<svg width="166" height="105" viewBox="0 0 166 105" fill="none" xmlns="http://www.w3.org/2000/svg">
<g filter="url(#filter0_f_799_1294)">
<g filter="url(#filter1_f_799_1294)">
<path d="M149.698 54.2228C149.698 54.2228 112.198 60.2228 74.6983 81.0696C37.1983 101.916 37.6983 0.52928 74.6983 27.3761C111.698 54.2228 149.698 54.2228 149.698 54.2228Z" fill="url(#paint0_linear_799_1294)"/>
</g>
<g filter="url(#filter2_f_799_1294)">
<path d="M155.198 60.2229C155.198 60.2229 112.198 60.2229 74.6983 81.0697C37.1983 101.916 37.6983 0.52931 74.6983 27.3761C111.698 54.2229 155.198 60.2229 155.198 60.2229Z" fill="url(#paint1_linear_799_1294)"/>
</g>
<path d="M152.698 46.7229C152.698 46.7229 112.198 60.2229 74.6983 81.0697C37.1983 101.916 37.6983 0.52931 74.6983 27.3761C111.698 54.2229 152.698 46.7229 152.698 46.7229Z" fill="url(#paint2_linear_799_1294)"/>
<g filter="url(#filter3_f_799_1294)">
<path d="M140.698 54.5775C140.698 54.5775 106.454 60.5678 72.2104 81.3808C37.9664 102.194 38.423 0.970941 72.2104 27.7742C105.998 54.5775 140.698 54.5775 140.698 54.5775Z" fill="white"/>
</g>
</g>
<g filter="url(#filter4_f_799_1294)">
<g clip-path="url(#clip0_799_1294)">
<circle cx="57.2378" cy="54.4163" r="35.0016" transform="rotate(-3.05962 57.2378 54.4163)" fill="url(#paint3_linear_799_1294)"/>
<g filter="url(#filter5_f_799_1294)">
<path d="M60.6932 31.8651L73.4493 6.023L89.5084 32.3318L60.6932 31.8651Z" fill="white"/>
</g>
<g filter="url(#filter6_di_799_1294)">
<path d="M42.5268 48.3923L42.2194 42.6412C42.2039 42.3511 42.4265 42.1034 42.7166 42.0879L69.726 40.6442C70.1775 40.6201 70.447 41.1393 70.1675 41.4947L54.7039 61.1521L71.4102 60.2592C71.7003 60.2437 71.948 60.4662 71.9635 60.7563L72.2608 66.3184C72.2763 66.6085 72.0537 66.8562 71.7637 66.8717L50.4175 68.0127C49.966 68.0369 49.6965 67.5177 49.976 67.1623L54.7039 61.1521L45.9279 61.6212C45.4737 61.6455 45.2049 61.1208 45.49 60.7663L54.8422 49.139C55.1273 48.7846 54.8585 48.2599 54.4043 48.2841L43.0801 48.8894C42.79 48.9049 42.5423 48.6824 42.5268 48.3923Z" fill="#CCFFCD"/>
</g>
<circle cx="57.2275" cy="54.398" r="33.0206" transform="rotate(-3.05962 57.2275 54.398)" stroke="#0E3016" stroke-width="0.314838"/>
<g filter="url(#filter7_f_799_1294)">
<path d="M66.8049 34.5233L79.561 8.68114L95.6201 34.9899L66.8049 34.5233Z" fill="white"/>
</g>
</g>
</g>
<g filter="url(#filter8_d_799_1294)">
<g filter="url(#filter9_n_799_1294)">
<g clip-path="url(#clip1_799_1294)">
<circle cx="54.8049" cy="52.7328" r="35.0016" transform="rotate(-20 54.8049 52.7328)" fill="#156F32"/>
<g filter="url(#filter10_f_799_1294)">
<rect x="1.52484" y="52.6033" width="89.5915" height="4.7338" transform="rotate(-23.2953 1.52484 52.6033)" fill="#4FF586"/>
</g>
<g filter="url(#filter11_f_799_1294)">
<rect x="5.13043" y="60.977" width="89.5915" height="4.7338" transform="rotate(-23.2953 5.13043 60.977)" fill="#64F33F"/>
</g>
<g filter="url(#filter12_f_799_1294)">
<rect x="12.3262" y="80.7474" width="89.5915" height="4.7338" transform="rotate(-23.2953 12.3262 80.7474)" fill="#64F33F"/>
</g>
<g filter="url(#filter13_f_799_1294)">
<rect x="10.8159" y="74.1818" width="89.5915" height="4.7338" transform="rotate(-23.2953 10.8159 74.1818)" fill="#3FF399"/>
</g>
<g filter="url(#filter14_f_799_1294)">
<rect x="16.3375" y="88.4299" width="89.5915" height="12.2726" transform="rotate(-20 16.3375 88.4299)" fill="#4FA87C"/>
</g>
<g filter="url(#filter15_f_799_1294)">
<rect x="-2.35791" y="43.5854" width="89.5915" height="13.3116" transform="rotate(-23.2953 -2.35791 43.5854)" fill="#87FFC3"/>
</g>
<g filter="url(#filter16_f_799_1294)">
<rect x="15.8081" y="85.7761" width="89.5915" height="4.7338" transform="rotate(-23.2953 15.8081 85.7761)" fill="#3FF399"/>
</g>
</g>
</g>
<g filter="url(#filter17_f_799_1294)">
<g clip-path="url(#clip2_799_1294)">
<circle cx="51.5785" cy="56.7949" r="35.0016" transform="rotate(-20 51.5785 56.7949)" fill="url(#paint4_linear_799_1294)"/>
<g filter="url(#filter18_f_799_1294)">
<path d="M48.3131 34.2154L52.9859 5.77783L76.014 26.2658L48.3131 34.2154Z" fill="white"/>
</g>
<g filter="url(#filter19_di_799_1294)">
<path d="M32.581 55.0114L30.2172 48.5171C30.098 48.1896 30.2669 47.8274 30.5944 47.7081L61.0946 36.607C61.6045 36.4214 62.0954 36.9232 61.8987 37.4289L51.0209 65.4011L69.8864 58.5347C70.2139 58.4154 70.5761 58.5843 70.6953 58.9119L72.9814 65.1929C73.1006 65.5205 72.9318 65.8826 72.6042 66.0019L48.4992 74.7754C47.9894 74.9609 47.4984 74.4592 47.6951 73.9535L51.0209 65.4011L41.1107 69.0082C40.5978 69.1948 40.1057 68.6865 40.3091 68.1799L46.9793 51.5626C47.1826 51.056 46.6906 50.5477 46.1776 50.7343L33.3899 55.3887C33.0624 55.5079 32.7002 55.339 32.581 55.0114Z" fill="#CCFFCD"/>
</g>
<circle cx="51.5634" cy="56.7804" r="33.0206" transform="rotate(-20 51.5634 56.7804)" stroke="#0E3016" stroke-width="0.314838"/>
<g filter="url(#filter20_f_799_1294)">
<path d="M54.9342 34.9774L59.6069 6.53982L82.635 27.0278L54.9342 34.9774Z" fill="white"/>
</g>
</g>
</g>
</g>
<defs>
<filter id="filter0_f_799_1294" x="41.6983" y="17.8173" width="118.5" height="71.4055" filterUnits="userSpaceOnUse" color-interpolation-filters="sRGB">
<feFlood flood-opacity="0" result="BackgroundImageFix"/>
<feBlend mode="normal" in="SourceGraphic" in2="BackgroundImageFix" result="shape"/>
<feGaussianBlur stdDeviation="0" result="effect1_foregroundBlur_799_1294"/>
</filter>
<filter id="filter1_f_799_1294" x="36.7605" y="12.8173" width="122.938" height="81.099" filterUnits="userSpaceOnUse" color-interpolation-filters="sRGB">
<feFlood flood-opacity="0" result="BackgroundImageFix"/>
<feBlend mode="normal" in="SourceGraphic" in2="BackgroundImageFix" result="shape"/>
<feGaussianBlur stdDeviation="5" result="effect1_foregroundBlur_799_1294"/>
</filter>
<filter id="filter2_f_799_1294" x="36.7605" y="12.8174" width="128.438" height="81.099" filterUnits="userSpaceOnUse" color-interpolation-filters="sRGB">
<feFlood flood-opacity="0" result="BackgroundImageFix"/>
<feBlend mode="normal" in="SourceGraphic" in2="BackgroundImageFix" result="shape"/>
<feGaussianBlur stdDeviation="5" result="effect1_foregroundBlur_799_1294"/>
</filter>
<filter id="filter3_f_799_1294" x="39.6983" y="16.2229" width="108" height="75" filterUnits="userSpaceOnUse" color-interpolation-filters="sRGB">
<feFlood flood-opacity="0" result="BackgroundImageFix"/>
<feBlend mode="normal" in="SourceGraphic" in2="BackgroundImageFix" result="shape"/>
<feGaussianBlur stdDeviation="3.5" result="effect1_foregroundBlur_799_1294"/>
</filter>
<filter id="filter4_f_799_1294" x="10.4178" y="7.59644" width="93.6398" height="93.6399" filterUnits="userSpaceOnUse" color-interpolation-filters="sRGB">
<feFlood flood-opacity="0" result="BackgroundImageFix"/>
<feBlend mode="normal" in="SourceGraphic" in2="BackgroundImageFix" result="shape"/>
<feGaussianBlur stdDeviation="5" result="effect1_foregroundBlur_799_1294"/>
</filter>
<filter id="filter5_f_799_1294" x="34.3944" y="-20.2759" width="81.4129" height="78.9065" filterUnits="userSpaceOnUse" color-interpolation-filters="sRGB">
<feFlood flood-opacity="0" result="BackgroundImageFix"/>
<feBlend mode="normal" in="SourceGraphic" in2="BackgroundImageFix" result="shape"/>
<feGaussianBlur stdDeviation="13.1494" result="effect1_foregroundBlur_799_1294"/>
</filter>
<filter id="filter6_di_799_1294" x="40.6444" y="39.0692" width="33.1914" height="30.7809" filterUnits="userSpaceOnUse" color-interpolation-filters="sRGB">
<feFlood flood-opacity="0" result="BackgroundImageFix"/>
<feColorMatrix in="SourceAlpha" type="matrix" values="0 0 0 0 0 0 0 0 0 0 0 0 0 0 0 0 0 0 127 0" result="hardAlpha"/>
<feOffset/>
<feGaussianBlur stdDeviation="0.787095"/>
<feComposite in2="hardAlpha" operator="out"/>
<feColorMatrix type="matrix" values="0 0 0 0 0 0 0 0 0 0 0 0 0 0 0 0 0 0 0.2 0"/>
<feBlend mode="normal" in2="BackgroundImageFix" result="effect1_dropShadow_799_1294"/>
<feBlend mode="normal" in="SourceGraphic" in2="effect1_dropShadow_799_1294" result="shape"/>
<feColorMatrix in="SourceAlpha" type="matrix" values="0 0 0 0 0 0 0 0 0 0 0 0 0 0 0 0 0 0 127 0" result="hardAlpha"/>
<feOffset dx="0.472257" dy="1.83656"/>
<feGaussianBlur stdDeviation="1.31183"/>
<feComposite in2="hardAlpha" operator="arithmetic" k2="-1" k3="1"/>
<feColorMatrix type="matrix" values="0 0 0 0 0 0 0 0 0 0 0 0 0 0 0 0 0 0 0.25 0"/>
<feBlend mode="normal" in2="shape" result="effect2_innerShadow_799_1294"/>
</filter>
<filter id="filter7_f_799_1294" x="40.506" y="-17.6177" width="81.4129" height="78.9065" filterUnits="userSpaceOnUse" color-interpolation-filters="sRGB">
<feFlood flood-opacity="0" result="BackgroundImageFix"/>
<feBlend mode="normal" in="SourceGraphic" in2="BackgroundImageFix" result="shape"/>
<feGaussianBlur stdDeviation="13.1494" result="effect1_foregroundBlur_799_1294"/>
</filter>
<filter id="filter8_d_799_1294" x="-0.599543" y="-1.33514e-05" width="104.045" height="104.281" filterUnits="userSpaceOnUse" color-interpolation-filters="sRGB">
<feFlood flood-opacity="0" result="BackgroundImageFix"/>
<feColorMatrix in="SourceAlpha" type="matrix" values="0 0 0 0 0 0 0 0 0 0 0 0 0 0 0 0 0 0 127 0" result="hardAlpha"/>
<feOffset dx="-1.46924" dy="-2.62365"/>
<feGaussianBlur stdDeviation="2.62365"/>
<feComposite in2="hardAlpha" operator="out"/>
<feColorMatrix type="matrix" values="0 0 0 0 0 0 0 0 0 0 0 0 0 0 0 0 0 0 0.3 0"/>
<feBlend mode="normal" in2="BackgroundImageFix" result="effect1_dropShadow_799_1294"/>
<feBlend mode="normal" in="SourceGraphic" in2="effect1_dropShadow_799_1294" result="shape"/>
</filter>
<filter id="filter9_n_799_1294" x="9.94287" y="7.87094" width="89.7241" height="89.724" filterUnits="userSpaceOnUse" color-interpolation-filters="sRGB">
<feFlood flood-opacity="0" result="BackgroundImageFix"/>
<feBlend mode="normal" in="SourceGraphic" in2="BackgroundImageFix" result="shape"/>
<feTurbulence type="fractalNoise" baseFrequency="5 5" stitchTiles="stitch" numOctaves="3" result="noise" seed="3838" />
<feColorMatrix in="noise" type="luminanceToAlpha" result="alphaNoise" />
<feComponentTransfer in="alphaNoise" result="cologreenNoise1">
<feFuncA type="discrete" tableValues="1 1 1 1 1 1 1 1 1 1 1 1 1 1 1 1 1 1 1 1 1 1 1 1 1 1 1 1 1 1 1 1 1 1 1 1 1 1 1 1 1 1 1 1 1 1 1 1 1 1 1 0 0 0 0 0 0 0 0 0 0 0 0 0 0 0 0 0 0 0 0 0 0 0 0 0 0 0 0 0 0 0 0 0 0 0 0 0 0 0 0 0 0 0 0 0 0 0 0 0 "/>
</feComponentTransfer>
<feComposite operator="in" in2="shape" in="cologreenNoise1" result="noise1Clipped" />
<feFlood flood-color="rgba(0, 0, 0, 0.25)" result="color1Flood" />
<feComposite operator="in" in2="noise1Clipped" in="color1Flood" result="color1" />
<feMerge result="effect1_noise_799_1294">
<feMergeNode in="shape" />
<feMergeNode in="color1" />
</feMerge>
</filter>
<filter id="filter10_f_799_1294" x="-1.98168" y="13.6661" width="91.1731" height="46.7917" filterUnits="userSpaceOnUse" color-interpolation-filters="sRGB">
<feFlood flood-opacity="0" result="BackgroundImageFix"/>
<feBlend mode="normal" in="SourceGraphic" in2="BackgroundImageFix" result="shape"/>
<feGaussianBlur stdDeviation="1.75326" result="effect1_foregroundBlur_799_1294"/>
</filter>
<filter id="filter11_f_799_1294" x="1.62391" y="22.0398" width="91.1731" height="46.7917" filterUnits="userSpaceOnUse" color-interpolation-filters="sRGB">
<feFlood flood-opacity="0" result="BackgroundImageFix"/>
<feBlend mode="normal" in="SourceGraphic" in2="BackgroundImageFix" result="shape"/>
<feGaussianBlur stdDeviation="1.75326" result="effect1_foregroundBlur_799_1294"/>
</filter>
<filter id="filter12_f_799_1294" x="8.81972" y="41.8101" width="91.1731" height="46.7917" filterUnits="userSpaceOnUse" color-interpolation-filters="sRGB">
<feFlood flood-opacity="0" result="BackgroundImageFix"/>
<feBlend mode="normal" in="SourceGraphic" in2="BackgroundImageFix" result="shape"/>
<feGaussianBlur stdDeviation="1.75326" result="effect1_foregroundBlur_799_1294"/>
</filter>
<filter id="filter13_f_799_1294" x="7.3094" y="35.2445" width="91.1731" height="46.7917" filterUnits="userSpaceOnUse" color-interpolation-filters="sRGB">
<feFlood flood-opacity="0" result="BackgroundImageFix"/>
<feBlend mode="normal" in="SourceGraphic" in2="BackgroundImageFix" result="shape"/>
<feGaussianBlur stdDeviation="1.75326" result="effect1_foregroundBlur_799_1294"/>
</filter>
<filter id="filter14_f_799_1294" x="12.831" y="54.2813" width="95.399" height="49.1876" filterUnits="userSpaceOnUse" color-interpolation-filters="sRGB">
<feFlood flood-opacity="0" result="BackgroundImageFix"/>
<feBlend mode="normal" in="SourceGraphic" in2="BackgroundImageFix" result="shape"/>
<feGaussianBlur stdDeviation="1.75326" result="effect1_foregroundBlur_799_1294"/>
</filter>
<filter id="filter15_f_799_1294" x="-5.86443" y="4.64818" width="94.5653" height="54.6702" filterUnits="userSpaceOnUse" color-interpolation-filters="sRGB">
<feFlood flood-opacity="0" result="BackgroundImageFix"/>
<feBlend mode="normal" in="SourceGraphic" in2="BackgroundImageFix" result="shape"/>
<feGaussianBlur stdDeviation="1.75326" result="effect1_foregroundBlur_799_1294"/>
</filter>
<filter id="filter16_f_799_1294" x="12.3016" y="46.8389" width="91.1731" height="46.7917" filterUnits="userSpaceOnUse" color-interpolation-filters="sRGB">
<feFlood flood-opacity="0" result="BackgroundImageFix"/>
<feBlend mode="normal" in="SourceGraphic" in2="BackgroundImageFix" result="shape"/>
<feGaussianBlur stdDeviation="1.75326" result="effect1_foregroundBlur_799_1294"/>
</filter>
<filter id="filter17_f_799_1294" x="6.31655" y="11.533" width="90.524" height="90.524" filterUnits="userSpaceOnUse" color-interpolation-filters="sRGB">
<feFlood flood-opacity="0" result="BackgroundImageFix"/>
<feBlend mode="normal" in="SourceGraphic" in2="BackgroundImageFix" result="shape"/>
<feGaussianBlur stdDeviation="0.2" result="effect1_foregroundBlur_799_1294"/>
</filter>
<filter id="filter18_f_799_1294" x="22.0143" y="-20.5211" width="80.2986" height="81.0354" filterUnits="userSpaceOnUse" color-interpolation-filters="sRGB">
<feFlood flood-opacity="0" result="BackgroundImageFix"/>
<feBlend mode="normal" in="SourceGraphic" in2="BackgroundImageFix" result="shape"/>
<feGaussianBlur stdDeviation="13.1494" result="effect1_foregroundBlur_799_1294"/>
</filter>
<filter id="filter19_di_799_1294" x="28.2899" y="34.6785" width="46.6188" height="42.3402" filterUnits="userSpaceOnUse" color-interpolation-filters="sRGB">
<feFlood flood-opacity="0" result="BackgroundImageFix"/>
<feColorMatrix in="SourceAlpha" type="matrix" values="0 0 0 0 0 0 0 0 0 0 0 0 0 0 0 0 0 0 127 0" result="hardAlpha"/>
<feOffset/>
<feGaussianBlur stdDeviation="0.944515"/>
<feComposite in2="hardAlpha" operator="out"/>
<feColorMatrix type="matrix" values="0 0 0 0 0 0 0 0 0 0 0 0 0 0 0 0 0 0 0.2 0"/>
<feBlend mode="normal" in2="BackgroundImageFix" result="effect1_dropShadow_799_1294"/>
<feBlend mode="normal" in="SourceGraphic" in2="effect1_dropShadow_799_1294" result="shape"/>
<feColorMatrix in="SourceAlpha" type="matrix" values="0 0 0 0 0 0 0 0 0 0 0 0 0 0 0 0 0 0 127 0" result="hardAlpha"/>
<feOffset dx="0.566709" dy="2.20387"/>
<feGaussianBlur stdDeviation="1.57419"/>
<feComposite in2="hardAlpha" operator="arithmetic" k2="-1" k3="1"/>
<feColorMatrix type="matrix" values="0 0 0 0 0 0 0 0 0 0 0 0 0 0 0 0 0 0 0.25 0"/>
<feBlend mode="normal" in2="shape" result="effect2_innerShadow_799_1294"/>
</filter>
<filter id="filter20_f_799_1294" x="28.6353" y="-19.7591" width="80.2986" height="81.0354" filterUnits="userSpaceOnUse" color-interpolation-filters="sRGB">
<feFlood flood-opacity="0" result="BackgroundImageFix"/>
<feBlend mode="normal" in="SourceGraphic" in2="BackgroundImageFix" result="shape"/>
<feGaussianBlur stdDeviation="13.1494" result="effect1_foregroundBlur_799_1294"/>
</filter>
<linearGradient id="paint0_linear_799_1294" x1="149.698" y1="55.1536" x2="52.1448" y2="55.1536" gradientUnits="userSpaceOnUse">
<stop stop-color="#00E35B"/>
<stop offset="1" stop-color="#4BFF93"/>
</linearGradient>
<linearGradient id="paint1_linear_799_1294" x1="149.698" y1="55.1536" x2="52.1448" y2="55.1536" gradientUnits="userSpaceOnUse">
<stop stop-color="#00E35B"/>
<stop offset="1" stop-color="#4BFF93"/>
</linearGradient>
<linearGradient id="paint2_linear_799_1294" x1="149.698" y1="55.1536" x2="52.1448" y2="55.1536" gradientUnits="userSpaceOnUse">
<stop stop-color="#00E35B"/>
<stop offset="1" stop-color="#4BFF93"/>
</linearGradient>
<linearGradient id="paint3_linear_799_1294" x1="80.6197" y1="19.4147" x2="41.6974" y2="94.1036" gradientUnits="userSpaceOnUse">
<stop stop-color="#20B551"/>
<stop offset="1" stop-color="#0E4F23"/>
</linearGradient>
<linearGradient id="paint4_linear_799_1294" x1="74.9605" y1="21.7934" x2="36.0382" y2="96.4822" gradientUnits="userSpaceOnUse">
<stop stop-color="#20B551"/>
<stop offset="1" stop-color="#0E4F23"/>
</linearGradient>
<clipPath id="clip0_799_1294">
<rect x="20.4178" y="21.3329" width="70.0032" height="70.0032" rx="35.0016" transform="rotate(-3.05962 20.4178 21.3329)" fill="white"/>
</clipPath>
<clipPath id="clip1_799_1294">
<rect x="9.94287" y="31.8134" width="70.0032" height="70.0032" rx="35.0016" transform="rotate(-20 9.94287 31.8134)" fill="white"/>
</clipPath>
<clipPath id="clip2_799_1294">
<rect x="6.71655" y="35.8755" width="70.0032" height="70.0032" rx="35.0016" transform="rotate(-20 6.71655 35.8755)" fill="white"/>
</clipPath>
</defs>
</svg>
