<svg width="289" height="282" viewBox="0 0 289 282" fill="none" xmlns="http://www.w3.org/2000/svg">
<g filter="url(#filter0_d_799_2114)">
<g clip-path="url(#clip0_799_2114)">
<circle cx="148.814" cy="141.603" r="73.0029" transform="rotate(30 148.814 141.603)" fill="#090909"/>
<g filter="url(#filter1_f_799_2114)">
<rect x="77.5903" y="56.3019" width="186.861" height="9.87328" transform="rotate(26.7047 77.5903 56.3019)" fill="#515151"/>
</g>
<g filter="url(#filter2_f_799_2114)">
<rect x="69.0452" y="73.2888" width="186.861" height="9.87328" transform="rotate(26.7047 69.0452 73.2888)" fill="#828282"/>
</g>
<g filter="url(#filter3_f_799_2114)">
<rect x="55.5698" y="100.076" width="186.861" height="9.87328" transform="rotate(26.7047 55.5698 100.076)" fill="#151515"/>
</g>
<g filter="url(#filter4_f_799_2114)">
<rect x="45.0525" y="123.305" width="186.861" height="25.5969" transform="rotate(30 45.0525 123.305)" fill="#171717"/>
</g>
<g filter="url(#filter5_f_799_2114)">
<rect x="86.793" y="38.0082" width="186.861" height="27.764" transform="rotate(26.7047 86.793 38.0082)" fill="#BFBFBF"/>
</g>
</g>
<g clip-path="url(#clip1_799_2114)">
<circle cx="139.724" cy="139.724" r="73.0028" transform="rotate(30 139.724 139.724)" fill="url(#paint0_linear_799_2114)"/>
<circle cx="139.727" cy="139.68" r="68.9744" transform="rotate(30 139.727 139.68)" stroke="#242424" stroke-width="0.449773"/>
<g filter="url(#filter6_f_799_2114)">
<path d="M179.081 115.835L230.782 85.1758L228.92 149.436L179.081 115.835Z" fill="white"/>
</g>
<g opacity="0.7" clip-path="url(#clip2_799_2114)" filter="url(#filter7_f_799_2114)">
<path d="M157.882 108.493L121.806 170.977" stroke="white" stroke-width="6.55918" stroke-linecap="round" stroke-linejoin="round"/>
<path d="M165.524 128.053L144.222 115.754C141.586 114.232 138.453 113.819 135.512 114.607C132.572 115.395 130.064 117.319 128.542 119.955C127.02 122.591 126.607 125.724 127.395 128.665C128.183 131.606 130.107 134.113 132.743 135.635L146.944 143.834C149.581 145.356 151.505 147.864 152.292 150.804C153.08 153.745 152.668 156.878 151.146 159.514C149.623 162.151 147.116 164.074 144.176 164.862C141.235 165.65 138.102 165.238 135.465 163.715L111.324 149.777" stroke="white" stroke-width="6.55918" stroke-linecap="round" stroke-linejoin="round"/>
</g>
<g clip-path="url(#clip3_799_2114)">
<path d="M157.882 108.493L121.806 170.977" stroke="white" stroke-width="6.55918" stroke-linecap="round" stroke-linejoin="round"/>
<path d="M165.524 128.053L144.222 115.754C141.586 114.232 138.453 113.819 135.512 114.607C132.572 115.395 130.064 117.319 128.542 119.955C127.02 122.591 126.607 125.724 127.395 128.665C128.183 131.606 130.107 134.113 132.743 135.635L146.944 143.834C149.581 145.356 151.505 147.864 152.292 150.804C153.08 153.745 152.668 156.878 151.146 159.514C149.623 162.151 147.116 164.074 144.176 164.862C141.235 165.65 138.102 165.238 135.465 163.715L111.324 149.777" stroke="white" stroke-width="6.55918" stroke-linecap="round" stroke-linejoin="round"/>
</g>
</g>
</g>
<defs>
<filter id="filter0_d_799_2114" x="0" y="-3.16675" width="288.538" height="285.723" filterUnits="userSpaceOnUse" color-interpolation-filters="sRGB">
<feFlood flood-opacity="0" result="BackgroundImageFix"/>
<feColorMatrix in="SourceAlpha" type="matrix" values="0 0 0 0 0 0 0 0 0 0 0 0 0 0 0 0 0 0 127 0" result="hardAlpha"/>
<feOffset/>
<feGaussianBlur stdDeviation="20"/>
<feComposite in2="hardAlpha" operator="out"/>
<feColorMatrix type="matrix" values="0 0 0 0 0 0 0 0 0 0 0 0 0 0 0 0 0 0 1 0"/>
<feBlend mode="normal" in2="BackgroundImageFix" result="effect1_dropShadow_799_2114"/>
<feBlend mode="normal" in="SourceGraphic" in2="effect1_dropShadow_799_2114" result="shape"/>
</filter>
<filter id="filter1_f_799_2114" x="65.8398" y="48.9883" width="185.993" height="107.421" filterUnits="userSpaceOnUse" color-interpolation-filters="sRGB">
<feFlood flood-opacity="0" result="BackgroundImageFix"/>
<feBlend mode="normal" in="SourceGraphic" in2="BackgroundImageFix" result="shape"/>
<feGaussianBlur stdDeviation="3.65677" result="effect1_foregroundBlur_799_2114"/>
</filter>
<filter id="filter2_f_799_2114" x="57.2946" y="65.9753" width="185.993" height="107.421" filterUnits="userSpaceOnUse" color-interpolation-filters="sRGB">
<feFlood flood-opacity="0" result="BackgroundImageFix"/>
<feBlend mode="normal" in="SourceGraphic" in2="BackgroundImageFix" result="shape"/>
<feGaussianBlur stdDeviation="3.65677" result="effect1_foregroundBlur_799_2114"/>
</filter>
<filter id="filter3_f_799_2114" x="43.8192" y="92.7623" width="185.993" height="107.421" filterUnits="userSpaceOnUse" color-interpolation-filters="sRGB">
<feFlood flood-opacity="0" result="BackgroundImageFix"/>
<feBlend mode="normal" in="SourceGraphic" in2="BackgroundImageFix" result="shape"/>
<feGaussianBlur stdDeviation="3.65677" result="effect1_foregroundBlur_799_2114"/>
</filter>
<filter id="filter4_f_799_2114" x="24.9405" y="115.991" width="189.252" height="130.225" filterUnits="userSpaceOnUse" color-interpolation-filters="sRGB">
<feFlood flood-opacity="0" result="BackgroundImageFix"/>
<feBlend mode="normal" in="SourceGraphic" in2="BackgroundImageFix" result="shape"/>
<feGaussianBlur stdDeviation="3.65677" result="effect1_foregroundBlur_799_2114"/>
</filter>
<filter id="filter5_f_799_2114" x="67.0026" y="30.6946" width="194.033" height="123.404" filterUnits="userSpaceOnUse" color-interpolation-filters="sRGB">
<feFlood flood-opacity="0" result="BackgroundImageFix"/>
<feBlend mode="normal" in="SourceGraphic" in2="BackgroundImageFix" result="shape"/>
<feGaussianBlur stdDeviation="3.65677" result="effect1_foregroundBlur_799_2114"/>
</filter>
<filter id="filter6_f_799_2114" x="124.23" y="30.3242" width="161.404" height="173.963" filterUnits="userSpaceOnUse" color-interpolation-filters="sRGB">
<feFlood flood-opacity="0" result="BackgroundImageFix"/>
<feBlend mode="normal" in="SourceGraphic" in2="BackgroundImageFix" result="shape"/>
<feGaussianBlur stdDeviation="27.4258" result="effect1_foregroundBlur_799_2114"/>
</filter>
<filter id="filter7_f_799_2114" x="81.5859" y="81.4766" width="116.516" height="116.516" filterUnits="userSpaceOnUse" color-interpolation-filters="sRGB">
<feFlood flood-opacity="0" result="BackgroundImageFix"/>
<feBlend mode="normal" in="SourceGraphic" in2="BackgroundImageFix" result="shape"/>
<feGaussianBlur stdDeviation="2.24886" result="effect1_foregroundBlur_799_2114"/>
</filter>
<linearGradient id="paint0_linear_799_2114" x1="188.491" y1="66.7209" x2="107.311" y2="222.499" gradientUnits="userSpaceOnUse">
<stop stop-color="#151515"/>
<stop offset="1" stop-color="#090909"/>
</linearGradient>
<clipPath id="clip0_799_2114">
<rect x="122.093" y="41.8795" width="146.006" height="146.006" rx="73.0029" transform="rotate(30 122.093 41.8795)" fill="white"/>
</clipPath>
<clipPath id="clip1_799_2114">
<rect x="113.003" y="40" width="146.006" height="146.006" rx="73.0028" transform="rotate(30 113.003 40)" fill="white"/>
</clipPath>
<clipPath id="clip2_799_2114">
<rect width="78.7102" height="78.7102" fill="white" transform="translate(125.44 85.9744) rotate(30.0009)"/>
</clipPath>
<clipPath id="clip3_799_2114">
<rect width="78.7102" height="78.7102" fill="white" transform="translate(125.44 85.9744) rotate(30.0009)"/>
</clipPath>
</defs>
</svg>
