<svg width="1512" height="1370" viewBox="0 0 1512 1370" fill="none" xmlns="http://www.w3.org/2000/svg">
<g clip-path="url(#clip0_807_32)" filter="url(#filter0_f_807_32)">
<rect width="1972" height="1387" transform="translate(-29 13.7065)" fill="#000604"/>
<g filter="url(#filter1_ddd_807_32)">
<ellipse cx="343.856" cy="1815.01" rx="967.315" ry="959.307" transform="rotate(-16.9491 343.856 1815.01)" fill="#000604"/>
</g>
<g filter="url(#filter2_ddd_807_32)">
<ellipse cx="769.372" cy="-106.907" rx="967.315" ry="959.307" transform="rotate(-16.9491 769.372 -106.907)" fill="#000604"/>
</g>
<ellipse cx="769.372" cy="-106.907" rx="967.315" ry="959.307" transform="rotate(-16.9491 769.372 -106.907)" fill="#000604"/>
<ellipse cx="343.856" cy="1815.01" rx="967.315" ry="959.307" transform="rotate(-16.9491 343.856 1815.01)" fill="#000604"/>
<path d="M577.881 731.279C577.881 731.279 568.406 796.709 589.832 828.31C611.257 859.91 675.548 875.326 675.548 875.326C675.548 875.326 610.118 865.85 578.517 887.276C546.917 908.702 531.501 972.993 531.501 972.993C531.501 972.993 540.977 907.562 519.551 875.962C498.125 844.362 433.834 828.946 433.834 828.946C433.834 828.946 499.265 838.421 530.865 816.996C562.465 795.57 577.881 731.279 577.881 731.279Z" fill="url(#paint0_linear_807_32)"/>
<mask id="path-6-outside-1_807_32" maskUnits="userSpaceOnUse" x="4" y="1157.71" width="758" height="275" fill="black">
<rect fill="white" x="4" y="1157.71" width="758" height="275"/>
<path d="M7.35168 1353.71V1320.85L115.523 1184.25L126.598 1201.97H10.6743V1165.42H161.671V1198.28L55.3457 1333.03L44.6393 1317.16H163.886V1353.71H7.35168ZM193.317 1429.39L242.049 1320.11L250.541 1306.08L303.703 1165.42H353.174L240.573 1429.39H193.317ZM235.035 1351.86L158.614 1165.42H209.192L273.061 1334.51L235.035 1351.86ZM464.717 1357.4C446.75 1357.4 432.105 1353.21 420.784 1344.85C409.708 1336.23 402.817 1324.42 400.109 1309.4L403.801 1309.04V1429.39H357.284V1165.42H402.694V1207.88L399.002 1207.14C402.448 1193.11 410.324 1182.04 422.63 1173.91C434.936 1165.79 449.949 1161.73 467.67 1161.73C484.407 1161.73 498.928 1165.79 511.234 1173.91C523.786 1181.79 533.508 1192.99 540.4 1207.51C547.291 1222.03 550.737 1239.14 550.737 1258.83C550.737 1278.76 547.168 1296.11 540.03 1310.88C532.893 1325.65 522.925 1337.09 510.126 1345.22C497.328 1353.34 482.191 1357.4 464.717 1357.4ZM452.903 1319C467.916 1319 479.853 1313.83 488.714 1303.5C497.574 1292.91 502.004 1278.15 502.004 1259.2C502.004 1240.24 497.451 1225.6 488.345 1215.26C479.484 1204.93 467.547 1199.76 452.534 1199.76C437.766 1199.76 425.829 1205.05 416.723 1215.63C407.616 1225.97 403.063 1240.61 403.063 1259.56C403.063 1278.52 407.616 1293.16 416.723 1303.5C425.829 1313.83 437.889 1319 452.903 1319ZM671.864 1357.4C653.897 1357.4 639.253 1353.21 627.931 1344.85C616.855 1336.23 609.964 1324.42 607.257 1309.4L610.949 1309.04V1429.39H564.431V1165.42H609.841V1207.88L606.149 1207.14C609.595 1193.11 617.471 1182.04 629.777 1173.91C642.083 1165.79 657.097 1161.73 674.817 1161.73C691.554 1161.73 706.075 1165.79 718.381 1173.91C730.934 1181.79 740.655 1192.99 747.547 1207.51C754.438 1222.03 757.884 1239.14 757.884 1258.83C757.884 1278.76 754.315 1296.11 747.178 1310.88C740.04 1325.65 730.072 1337.09 717.274 1345.22C704.475 1353.34 689.339 1357.4 671.864 1357.4ZM660.05 1319C675.064 1319 687.001 1313.83 695.861 1303.5C704.721 1292.91 709.152 1278.15 709.152 1259.2C709.152 1240.24 704.598 1225.6 695.492 1215.26C686.631 1204.93 674.694 1199.76 659.681 1199.76C644.914 1199.76 632.977 1205.05 623.87 1215.63C614.763 1225.97 610.21 1240.61 610.21 1259.56C610.21 1278.52 614.763 1293.16 623.87 1303.5C632.977 1313.83 645.037 1319 660.05 1319Z"/>
</mask>
<path d="M7.35168 1353.71V1320.85L115.523 1184.25L126.598 1201.97H10.6743V1165.42H161.671V1198.28L55.3457 1333.03L44.6393 1317.16H163.886V1353.71H7.35168ZM193.317 1429.39L242.049 1320.11L250.541 1306.08L303.703 1165.42H353.174L240.573 1429.39H193.317ZM235.035 1351.86L158.614 1165.42H209.192L273.061 1334.51L235.035 1351.86ZM464.717 1357.4C446.75 1357.4 432.105 1353.21 420.784 1344.85C409.708 1336.23 402.817 1324.42 400.109 1309.4L403.801 1309.04V1429.39H357.284V1165.42H402.694V1207.88L399.002 1207.14C402.448 1193.11 410.324 1182.04 422.63 1173.91C434.936 1165.79 449.949 1161.73 467.67 1161.73C484.407 1161.73 498.928 1165.79 511.234 1173.91C523.786 1181.79 533.508 1192.99 540.4 1207.51C547.291 1222.03 550.737 1239.14 550.737 1258.83C550.737 1278.76 547.168 1296.11 540.03 1310.88C532.893 1325.65 522.925 1337.09 510.126 1345.22C497.328 1353.34 482.191 1357.4 464.717 1357.4ZM452.903 1319C467.916 1319 479.853 1313.83 488.714 1303.5C497.574 1292.91 502.004 1278.15 502.004 1259.2C502.004 1240.24 497.451 1225.6 488.345 1215.26C479.484 1204.93 467.547 1199.76 452.534 1199.76C437.766 1199.76 425.829 1205.05 416.723 1215.63C407.616 1225.97 403.063 1240.61 403.063 1259.56C403.063 1278.52 407.616 1293.16 416.723 1303.5C425.829 1313.83 437.889 1319 452.903 1319ZM671.864 1357.4C653.897 1357.4 639.253 1353.21 627.931 1344.85C616.855 1336.23 609.964 1324.42 607.257 1309.4L610.949 1309.04V1429.39H564.431V1165.42H609.841V1207.88L606.149 1207.14C609.595 1193.11 617.471 1182.04 629.777 1173.91C642.083 1165.79 657.097 1161.73 674.817 1161.73C691.554 1161.73 706.075 1165.79 718.381 1173.91C730.934 1181.79 740.655 1192.99 747.547 1207.51C754.438 1222.03 757.884 1239.14 757.884 1258.83C757.884 1278.76 754.315 1296.11 747.178 1310.88C740.04 1325.65 730.072 1337.09 717.274 1345.22C704.475 1353.34 689.339 1357.4 671.864 1357.4ZM660.05 1319C675.064 1319 687.001 1313.83 695.861 1303.5C704.721 1292.91 709.152 1278.15 709.152 1259.2C709.152 1240.24 704.598 1225.6 695.492 1215.26C686.631 1204.93 674.694 1199.76 659.681 1199.76C644.914 1199.76 632.977 1205.05 623.87 1215.63C614.763 1225.97 610.21 1240.61 610.21 1259.56C610.21 1278.52 614.763 1293.16 623.87 1303.5C632.977 1313.83 645.037 1319 660.05 1319Z" fill="url(#paint1_linear_807_32)" fill-opacity="0.08"/>
<path d="M7.35168 1353.71H4.15168V1356.91H7.35168V1353.71ZM7.35168 1320.85L4.84301 1318.86L4.15168 1319.74V1320.85H7.35168ZM115.523 1184.25L118.236 1182.55L115.831 1178.71L113.014 1182.26L115.523 1184.25ZM126.598 1201.97V1205.17H132.372L129.312 1200.28L126.598 1201.97ZM10.6743 1201.97H7.47435V1205.17H10.6743V1201.97ZM10.6743 1165.42V1162.22H7.47435V1165.42H10.6743ZM161.671 1165.42H164.871V1162.22H161.671V1165.42ZM161.671 1198.28L164.183 1200.26L164.871 1199.39V1198.28H161.671ZM55.3457 1333.03L52.6927 1334.82L55.1431 1338.45L57.8578 1335.01L55.3457 1333.03ZM44.6393 1317.16V1313.96H38.6215L41.9863 1318.95L44.6393 1317.16ZM163.886 1317.16H167.086V1313.96H163.886V1317.16ZM163.886 1353.71V1356.91H167.086V1353.71H163.886ZM7.35168 1353.71H10.5517V1320.85H7.35168H4.15168V1353.71H7.35168ZM7.35168 1320.85L9.86035 1322.84L118.031 1186.24L115.523 1184.25L113.014 1182.26L4.84301 1318.86L7.35168 1320.85ZM115.523 1184.25L112.809 1185.95L123.885 1203.67L126.598 1201.97L129.312 1200.28L118.236 1182.55L115.523 1184.25ZM126.598 1201.97V1198.77H10.6743V1201.97V1205.17H126.598V1201.97ZM10.6743 1201.97H13.8743V1165.42H10.6743H7.47435V1201.97H10.6743ZM10.6743 1165.42V1168.62H161.671V1165.42V1162.22H10.6743V1165.42ZM161.671 1165.42H158.471V1198.28H161.671H164.871V1165.42H161.671ZM161.671 1198.28L159.159 1196.3L52.8335 1331.05L55.3457 1333.03L57.8578 1335.01L164.183 1200.26L161.671 1198.28ZM55.3457 1333.03L57.9987 1331.24L47.2924 1315.37L44.6393 1317.16L41.9863 1318.95L52.6927 1334.82L55.3457 1333.03ZM44.6393 1317.16V1320.36H163.886V1317.16V1313.96H44.6393V1317.16ZM163.886 1317.16H160.686V1353.71H163.886H167.086V1317.16H163.886ZM163.886 1353.71V1350.51H7.35168V1353.71V1356.91H163.886V1353.71ZM193.317 1429.39L190.394 1428.09L188.386 1432.59H193.317V1429.39ZM242.049 1320.11L239.312 1318.45L239.208 1318.62L239.127 1318.81L242.049 1320.11ZM250.541 1306.08L253.278 1307.74L253.43 1307.49L253.534 1307.21L250.541 1306.08ZM303.703 1165.42V1162.22H301.492L300.71 1164.29L303.703 1165.42ZM353.174 1165.42L356.117 1166.68L358.018 1162.22H353.174V1165.42ZM240.573 1429.39V1432.59H242.687L243.516 1430.64L240.573 1429.39ZM235.035 1351.86L232.074 1353.07L233.336 1356.15L236.363 1354.77L235.035 1351.86ZM158.614 1165.42V1162.22H153.844L155.653 1166.64L158.614 1165.42ZM209.192 1165.42L212.185 1164.29L211.404 1162.22H209.192V1165.42ZM273.061 1334.51L274.389 1337.42L277.112 1336.18L276.054 1333.38L273.061 1334.51ZM193.317 1429.39L196.24 1430.69L244.972 1321.41L242.049 1320.11L239.127 1318.81L190.394 1428.09L193.317 1429.39ZM242.049 1320.11L244.787 1321.77L253.278 1307.74L250.541 1306.08L247.803 1304.42L239.312 1318.45L242.049 1320.11ZM250.541 1306.08L253.534 1307.21L306.697 1166.55L303.703 1165.42L300.71 1164.29L247.547 1304.95L250.541 1306.08ZM303.703 1165.42V1168.62H353.174V1165.42V1162.22H303.703V1165.42ZM353.174 1165.42L350.231 1164.17L237.629 1428.13L240.573 1429.39L243.516 1430.64L356.117 1166.68L353.174 1165.42ZM240.573 1429.39V1426.19H193.317V1429.39V1432.59H240.573V1429.39ZM235.035 1351.86L237.996 1350.65L161.575 1164.21L158.614 1165.42L155.653 1166.64L232.074 1353.07L235.035 1351.86ZM158.614 1165.42V1168.62H209.192V1165.42V1162.22H158.614V1165.42ZM209.192 1165.42L206.198 1166.55L270.067 1335.64L273.061 1334.51L276.054 1333.38L212.185 1164.29L209.192 1165.42ZM273.061 1334.51L271.732 1331.6L233.706 1348.95L235.035 1351.86L236.363 1354.77L274.389 1337.42L273.061 1334.51ZM420.784 1344.85L418.819 1347.37L418.85 1347.4L418.882 1347.42L420.784 1344.85ZM400.109 1309.4L399.791 1306.22L396.346 1306.56L396.96 1309.97L400.109 1309.4ZM403.801 1309.04H407.001V1305.5L403.483 1305.85L403.801 1309.04ZM403.801 1429.39V1432.59H407.001V1429.39H403.801ZM357.284 1429.39H354.084V1432.59H357.284V1429.39ZM357.284 1165.42V1162.22H354.084V1165.42H357.284ZM402.694 1165.42H405.894V1162.22H402.694V1165.42ZM402.694 1207.88L402.066 1211.02L405.894 1211.78V1207.88H402.694ZM399.002 1207.14L395.894 1206.38L395.097 1209.62L398.374 1210.28L399.002 1207.14ZM422.63 1173.91L424.392 1176.58L424.392 1176.58L422.63 1173.91ZM511.234 1173.91L509.471 1176.58L509.502 1176.6L509.533 1176.62L511.234 1173.91ZM540.4 1207.51L543.291 1206.14L543.291 1206.14L540.4 1207.51ZM540.03 1310.88L542.912 1312.27L542.912 1312.27L540.03 1310.88ZM510.126 1345.22L508.412 1342.51L508.412 1342.51L510.126 1345.22ZM488.714 1303.5L491.143 1305.58L491.155 1305.57L491.167 1305.55L488.714 1303.5ZM488.345 1215.26L485.915 1217.34L485.929 1217.36L485.943 1217.38L488.345 1215.26ZM416.723 1215.63L419.124 1217.75L419.136 1217.73L419.148 1217.72L416.723 1215.63ZM416.723 1303.5L419.124 1301.38L419.124 1301.38L416.723 1303.5ZM464.717 1357.4V1354.2C447.244 1354.2 433.321 1350.13 422.686 1342.27L420.784 1344.85L418.882 1347.42C430.89 1356.29 446.255 1360.6 464.717 1360.6V1357.4ZM420.784 1344.85L422.748 1342.32C412.352 1334.23 405.839 1323.15 403.259 1308.84L400.109 1309.4L396.96 1309.97C399.794 1325.69 407.064 1338.23 418.819 1347.37L420.784 1344.85ZM400.109 1309.4L400.428 1312.59L404.12 1312.22L403.801 1309.04L403.483 1305.85L399.791 1306.22L400.109 1309.4ZM403.801 1309.04H400.601V1429.39H403.801H407.001V1309.04H403.801ZM403.801 1429.39V1426.19H357.284V1429.39V1432.59H403.801V1429.39ZM357.284 1429.39H360.484V1165.42H357.284H354.084V1429.39H357.284ZM357.284 1165.42V1168.62H402.694V1165.42V1162.22H357.284V1165.42ZM402.694 1165.42H399.494V1207.88H402.694H405.894V1165.42H402.694ZM402.694 1207.88L403.321 1204.74L399.629 1204L399.002 1207.14L398.374 1210.28L402.066 1211.02L402.694 1207.88ZM399.002 1207.14L402.11 1207.9C405.359 1194.67 412.743 1184.27 424.392 1176.58L422.63 1173.91L420.867 1171.24C407.904 1179.8 399.536 1191.55 395.894 1206.38L399.002 1207.14ZM422.63 1173.91L424.392 1176.58C436.078 1168.87 450.448 1164.93 467.67 1164.93V1161.73V1158.53C449.451 1158.53 433.794 1162.71 420.867 1171.24L422.63 1173.91ZM467.67 1161.73V1164.93C483.867 1164.93 497.757 1168.85 509.471 1176.58L511.234 1173.91L512.997 1171.24C500.099 1162.73 484.946 1158.53 467.67 1158.53V1161.73ZM511.234 1173.91L509.533 1176.62C521.526 1184.15 530.855 1194.86 537.509 1208.88L540.4 1207.51L543.291 1206.14C536.161 1191.11 526.047 1179.43 512.935 1171.2L511.234 1173.91ZM540.4 1207.51L537.509 1208.88C544.156 1222.89 547.537 1239.51 547.537 1258.83H550.737H553.937C553.937 1238.77 550.426 1221.17 543.291 1206.14L540.4 1207.51ZM550.737 1258.83H547.537C547.537 1278.38 544.037 1295.24 537.149 1309.49L540.03 1310.88L542.912 1312.27C550.299 1296.99 553.937 1279.14 553.937 1258.83H550.737ZM540.03 1310.88L537.149 1309.49C530.249 1323.77 520.666 1334.74 508.412 1342.51L510.126 1345.22L511.841 1347.92C525.184 1339.45 535.537 1327.53 542.912 1312.27L540.03 1310.88ZM510.126 1345.22L508.412 1342.51C496.201 1350.26 481.679 1354.2 464.717 1354.2V1357.4V1360.6C482.704 1360.6 498.455 1356.41 511.841 1347.92L510.126 1345.22ZM452.903 1319V1322.2C468.742 1322.2 481.608 1316.7 491.143 1305.58L488.714 1303.5L486.284 1301.41C478.099 1310.96 467.09 1315.8 452.903 1315.8V1319ZM488.714 1303.5L491.167 1305.55C500.663 1294.21 505.204 1278.62 505.204 1259.2H502.004H498.804C498.804 1277.67 494.485 1291.62 486.26 1301.44L488.714 1303.5ZM502.004 1259.2H505.204C505.204 1239.76 500.533 1224.26 490.746 1213.15L488.345 1215.26L485.943 1217.38C494.37 1226.94 498.804 1240.73 498.804 1259.2H502.004ZM488.345 1215.26L490.774 1213.18C481.239 1202.06 468.373 1196.56 452.534 1196.56V1199.76V1202.96C466.721 1202.96 477.729 1207.8 485.915 1217.34L488.345 1215.26ZM452.534 1199.76V1196.56C436.895 1196.56 424.05 1202.21 414.297 1213.54L416.723 1215.63L419.148 1217.72C427.608 1207.89 438.637 1202.96 452.534 1202.96V1199.76ZM416.723 1215.63L414.322 1213.52C404.535 1224.63 399.863 1240.13 399.863 1259.56H403.063H406.263C406.263 1241.1 410.698 1227.31 419.124 1217.75L416.723 1215.63ZM403.063 1259.56H399.863C399.863 1279 404.535 1294.5 414.322 1305.61L416.723 1303.5L419.124 1301.38C410.698 1291.82 406.263 1278.03 406.263 1259.56H403.063ZM416.723 1303.5L414.322 1305.61C424.094 1316.71 437.063 1322.2 452.903 1322.2V1319V1315.8C438.716 1315.8 427.564 1310.96 419.124 1301.38L416.723 1303.5ZM627.931 1344.85L625.966 1347.37L625.997 1347.4L626.029 1347.42L627.931 1344.85ZM607.257 1309.4L606.938 1306.22L603.493 1306.56L604.107 1309.97L607.257 1309.4ZM610.949 1309.04H614.149V1305.5L610.63 1305.85L610.949 1309.04ZM610.949 1429.39V1432.59H614.149V1429.39H610.949ZM564.431 1429.39H561.231V1432.59H564.431V1429.39ZM564.431 1165.42V1162.22H561.231V1165.42H564.431ZM609.841 1165.42H613.041V1162.22H609.841V1165.42ZM609.841 1207.88L609.213 1211.02L613.041 1211.78V1207.88H609.841ZM606.149 1207.14L603.041 1206.38L602.244 1209.62L605.522 1210.28L606.149 1207.14ZM629.777 1173.91L631.54 1176.58L631.54 1176.58L629.777 1173.91ZM718.381 1173.91L716.619 1176.58L716.649 1176.6L716.681 1176.62L718.381 1173.91ZM747.547 1207.51L750.438 1206.14L750.438 1206.14L747.547 1207.51ZM747.178 1310.88L750.059 1312.27L750.059 1312.27L747.178 1310.88ZM717.274 1345.22L715.559 1342.51L715.559 1342.51L717.274 1345.22ZM695.861 1303.5L698.291 1305.58L698.303 1305.57L698.315 1305.55L695.861 1303.5ZM695.492 1215.26L693.062 1217.34L693.076 1217.36L693.091 1217.38L695.492 1215.26ZM623.87 1215.63L626.271 1217.75L626.283 1217.73L626.296 1217.72L623.87 1215.63ZM623.87 1303.5L626.271 1301.38L626.271 1301.38L623.87 1303.5ZM671.864 1357.4V1354.2C654.391 1354.2 640.469 1350.13 629.833 1342.27L627.931 1344.85L626.029 1347.42C638.037 1356.29 653.403 1360.6 671.864 1360.6V1357.4ZM627.931 1344.85L629.896 1342.32C619.499 1334.23 612.986 1323.15 610.406 1308.84L607.257 1309.4L604.107 1309.97C606.942 1325.69 614.212 1338.23 625.966 1347.37L627.931 1344.85ZM607.257 1309.4L607.575 1312.59L611.267 1312.22L610.949 1309.04L610.63 1305.85L606.938 1306.22L607.257 1309.4ZM610.949 1309.04H607.749V1429.39H610.949H614.149V1309.04H610.949ZM610.949 1429.39V1426.19H564.431V1429.39V1432.59H610.949V1429.39ZM564.431 1429.39H567.631V1165.42H564.431H561.231V1429.39H564.431ZM564.431 1165.42V1168.62H609.841V1165.42V1162.22H564.431V1165.42ZM609.841 1165.42H606.641V1207.88H609.841H613.041V1165.42H609.841ZM609.841 1207.88L610.469 1204.74L606.777 1204L606.149 1207.14L605.522 1210.28L609.213 1211.02L609.841 1207.88ZM606.149 1207.14L609.257 1207.9C612.506 1194.67 619.891 1184.27 631.54 1176.58L629.777 1173.91L628.014 1171.24C615.051 1179.8 606.684 1191.55 603.041 1206.38L606.149 1207.14ZM629.777 1173.91L631.54 1176.58C643.225 1168.87 657.595 1164.93 674.817 1164.93V1161.73V1158.53C656.598 1158.53 640.941 1162.71 628.014 1171.24L629.777 1173.91ZM674.817 1161.73V1164.93C691.014 1164.93 704.904 1168.85 716.619 1176.58L718.381 1173.91L720.144 1171.24C707.246 1162.73 692.093 1158.53 674.817 1158.53V1161.73ZM718.381 1173.91L716.681 1176.62C728.673 1184.15 738.003 1194.86 744.656 1208.88L747.547 1207.51L750.438 1206.14C743.308 1191.11 733.194 1179.43 720.082 1171.2L718.381 1173.91ZM747.547 1207.51L744.656 1208.88C751.303 1222.89 754.684 1239.51 754.684 1258.83H757.884H761.084C761.084 1238.77 757.573 1221.17 750.438 1206.14L747.547 1207.51ZM757.884 1258.83H754.684C754.684 1278.38 751.184 1295.24 744.297 1309.49L747.178 1310.88L750.059 1312.27C757.447 1296.99 761.084 1279.14 761.084 1258.83H757.884ZM747.178 1310.88L744.297 1309.49C737.396 1323.77 727.813 1334.74 715.559 1342.51L717.274 1345.22L718.988 1347.92C732.331 1339.45 742.684 1327.53 750.059 1312.27L747.178 1310.88ZM717.274 1345.22L715.559 1342.51C703.348 1350.26 688.826 1354.2 671.864 1354.2V1357.4V1360.6C689.851 1360.6 705.603 1356.41 718.988 1347.92L717.274 1345.22ZM660.05 1319V1322.2C675.89 1322.2 688.755 1316.7 698.291 1305.58L695.861 1303.5L693.431 1301.41C685.246 1310.96 674.238 1315.8 660.05 1315.8V1319ZM695.861 1303.5L698.315 1305.55C707.81 1294.21 712.352 1278.62 712.352 1259.2H709.152H705.952C705.952 1277.67 701.633 1291.62 693.407 1301.44L695.861 1303.5ZM709.152 1259.2H712.352C712.352 1239.76 707.68 1224.26 697.893 1213.15L695.492 1215.26L693.091 1217.38C701.517 1226.94 705.952 1240.73 705.952 1259.2H709.152ZM695.492 1215.26L697.921 1213.18C688.386 1202.06 675.52 1196.56 659.681 1196.56V1199.76V1202.96C673.868 1202.96 684.877 1207.8 693.062 1217.34L695.492 1215.26ZM659.681 1199.76V1196.56C644.043 1196.56 631.198 1202.21 621.444 1213.54L623.87 1215.63L626.296 1217.72C634.755 1207.89 645.784 1202.96 659.681 1202.96V1199.76ZM623.87 1215.63L621.469 1213.52C611.682 1224.63 607.01 1240.13 607.01 1259.56H610.21H613.41C613.41 1241.1 617.845 1227.31 626.271 1217.75L623.87 1215.63ZM610.21 1259.56H607.01C607.01 1279 611.682 1294.5 621.469 1305.61L623.87 1303.5L626.271 1301.38C617.845 1291.82 613.41 1278.03 613.41 1259.56H610.21ZM623.87 1303.5L621.469 1305.61C631.242 1316.71 644.21 1322.2 660.05 1322.2V1319V1315.8C645.863 1315.8 634.711 1310.96 626.271 1301.38L623.87 1303.5Z" fill="url(#paint2_linear_807_32)" mask="url(#path-6-outside-1_807_32)"/>
</g>
<defs>
<filter id="filter0_f_807_32" x="-42.7068" y="-0.000207901" width="1999.41" height="1414.41" filterUnits="userSpaceOnUse" color-interpolation-filters="sRGB">
<feFlood flood-opacity="0" result="BackgroundImageFix"/>
<feBlend mode="normal" in="SourceGraphic" in2="BackgroundImageFix" result="shape"/>
<feGaussianBlur stdDeviation="6.85338" result="effect1_foregroundBlur_807_32"/>
</filter>
<filter id="filter1_ddd_807_32" x="-1210.24" y="267.559" width="3108.19" height="3094.9" filterUnits="userSpaceOnUse" color-interpolation-filters="sRGB">
<feFlood flood-opacity="0" result="BackgroundImageFix"/>
<feColorMatrix in="SourceAlpha" type="matrix" values="0 0 0 0 0 0 0 0 0 0 0 0 0 0 0 0 0 0 127 0" result="hardAlpha"/>
<feMorphology radius="414.496" operator="dilate" in="SourceAlpha" result="effect1_dropShadow_807_32"/>
<feOffset/>
<feGaussianBlur stdDeviation="86.3534"/>
<feComposite in2="hardAlpha" operator="out"/>
<feColorMatrix type="matrix" values="0 0 0 0 0 0 0 0 0 0.890196 0 0 0 0 0.356863 0 0 0 0.1 0"/>
<feBlend mode="normal" in2="BackgroundImageFix" result="effect1_dropShadow_807_32"/>
<feColorMatrix in="SourceAlpha" type="matrix" values="0 0 0 0 0 0 0 0 0 0 0 0 0 0 0 0 0 0 127 0" result="hardAlpha"/>
<feMorphology radius="207.248" operator="dilate" in="SourceAlpha" result="effect2_dropShadow_807_32"/>
<feOffset/>
<feGaussianBlur stdDeviation="86.3534"/>
<feComposite in2="hardAlpha" operator="out"/>
<feColorMatrix type="matrix" values="0 0 0 0 0 0 0 0 0 0.890196 0 0 0 0 0.356863 0 0 0 0.1 0"/>
<feBlend mode="normal" in2="effect1_dropShadow_807_32" result="effect2_dropShadow_807_32"/>
<feColorMatrix in="SourceAlpha" type="matrix" values="0 0 0 0 0 0 0 0 0 0 0 0 0 0 0 0 0 0 127 0" result="hardAlpha"/>
<feMorphology radius="69.0827" operator="dilate" in="SourceAlpha" result="effect3_dropShadow_807_32"/>
<feOffset/>
<feGaussianBlur stdDeviation="86.3534"/>
<feComposite in2="hardAlpha" operator="out"/>
<feColorMatrix type="matrix" values="0 0 0 0 0 0 0 0 0 0.891026 0 0 0 0 0.35641 0 0 0 1 0"/>
<feBlend mode="plus-lighter" in2="effect2_dropShadow_807_32" result="effect3_dropShadow_807_32"/>
<feBlend mode="normal" in="SourceGraphic" in2="effect3_dropShadow_807_32" result="shape"/>
</filter>
<filter id="filter2_ddd_807_32" x="-784.723" y="-1654.36" width="3108.19" height="3094.9" filterUnits="userSpaceOnUse" color-interpolation-filters="sRGB">
<feFlood flood-opacity="0" result="BackgroundImageFix"/>
<feColorMatrix in="SourceAlpha" type="matrix" values="0 0 0 0 0 0 0 0 0 0 0 0 0 0 0 0 0 0 127 0" result="hardAlpha"/>
<feMorphology radius="414.496" operator="dilate" in="SourceAlpha" result="effect1_dropShadow_807_32"/>
<feOffset/>
<feGaussianBlur stdDeviation="86.3534"/>
<feComposite in2="hardAlpha" operator="out"/>
<feColorMatrix type="matrix" values="0 0 0 0 0 0 0 0 0 0.890196 0 0 0 0 0.356863 0 0 0 0.1 0"/>
<feBlend mode="normal" in2="BackgroundImageFix" result="effect1_dropShadow_807_32"/>
<feColorMatrix in="SourceAlpha" type="matrix" values="0 0 0 0 0 0 0 0 0 0 0 0 0 0 0 0 0 0 127 0" result="hardAlpha"/>
<feMorphology radius="207.248" operator="dilate" in="SourceAlpha" result="effect2_dropShadow_807_32"/>
<feOffset/>
<feGaussianBlur stdDeviation="86.3534"/>
<feComposite in2="hardAlpha" operator="out"/>
<feColorMatrix type="matrix" values="0 0 0 0 0 0 0 0 0 0.890196 0 0 0 0 0.356863 0 0 0 0.1 0"/>
<feBlend mode="normal" in2="effect1_dropShadow_807_32" result="effect2_dropShadow_807_32"/>
<feColorMatrix in="SourceAlpha" type="matrix" values="0 0 0 0 0 0 0 0 0 0 0 0 0 0 0 0 0 0 127 0" result="hardAlpha"/>
<feMorphology radius="69.0827" operator="dilate" in="SourceAlpha" result="effect3_dropShadow_807_32"/>
<feOffset/>
<feGaussianBlur stdDeviation="86.3534"/>
<feComposite in2="hardAlpha" operator="out"/>
<feColorMatrix type="matrix" values="0 0 0 0 0 0 0 0 0 0.891026 0 0 0 0 0.35641 0 0 0 1 0"/>
<feBlend mode="plus-lighter" in2="effect2_dropShadow_807_32" result="effect3_dropShadow_807_32"/>
<feBlend mode="normal" in="SourceGraphic" in2="effect3_dropShadow_807_32" result="shape"/>
</filter>
<linearGradient id="paint0_linear_807_32" x1="641.699" y1="910.505" x2="474.504" y2="803.344" gradientUnits="userSpaceOnUse">
<stop stop-color="#13FFA0"/>
<stop offset="0.5" stop-color="#12FFA4"/>
<stop offset="1" stop-color="#13FFA0"/>
</linearGradient>
<linearGradient id="paint1_linear_807_32" x1="138.362" y1="1186.79" x2="521.878" y2="1254.73" gradientUnits="userSpaceOnUse">
<stop stop-color="#75F33F"/>
<stop offset="1" stop-color="#3FF399"/>
</linearGradient>
<linearGradient id="paint2_linear_807_32" x1="111.569" y1="1205.2" x2="581.465" y2="1283.93" gradientUnits="userSpaceOnUse">
<stop stop-color="#64F33F"/>
<stop offset="1" stop-color="#3FF399"/>
</linearGradient>
<clipPath id="clip0_807_32">
<rect width="1972" height="1387" fill="white" transform="translate(-29 13.7065)"/>
</clipPath>
</defs>
</svg>
