<svg width="3200" height="2264" viewBox="0 0 3200 2264" fill="none" xmlns="http://www.w3.org/2000/svg">
<g clip-path="url(#clip0_807_32)" filter="url(#filter0_f_807_32)">
<rect width="3155.2" height="2219.2" transform="translate(21.9309 21.9309)" fill="#000604"/>
<g filter="url(#filter1_ddd_807_32)">
<ellipse cx="618.501" cy="2904.01" rx="1547.7" ry="1534.89" transform="rotate(-16.9491 618.501 2904.01)" fill="#000604"/>
</g>
<g filter="url(#filter2_ddd_807_32)">
<ellipse cx="1299.33" cy="-171.05" rx="1547.7" ry="1534.89" transform="rotate(-16.9491 1299.33 -171.05)" fill="#000604"/>
</g>
<ellipse cx="1299.33" cy="-171.05" rx="1547.7" ry="1534.89" transform="rotate(-16.9491 1299.33 -171.05)" fill="#000604"/>
<ellipse cx="618.501" cy="2904.01" rx="1547.7" ry="1534.89" transform="rotate(-16.9491 618.501 2904.01)" fill="#000604"/>
<path d="M992.94 1170.05C992.94 1170.05 977.78 1274.74 1012.06 1325.3C1046.34 1375.86 1149.21 1400.52 1149.21 1400.52C1149.21 1400.52 1044.52 1385.36 993.958 1419.64C943.398 1453.92 918.733 1556.79 918.733 1556.79C918.733 1556.79 933.893 1452.1 899.612 1401.54C865.331 1350.98 762.466 1326.32 762.466 1326.32C762.466 1326.32 867.154 1341.48 917.715 1307.19C968.276 1272.91 992.94 1170.05 992.94 1170.05Z" fill="url(#paint0_linear_807_32)"/>
<mask id="path-6-outside-1_807_32" maskUnits="userSpaceOnUse" x="74.3311" y="1853.33" width="1212" height="440" fill="black">
<rect fill="white" x="74.3311" y="1853.33" width="1212" height="440"/>
<path d="M80.0937 2166.33V2113.76L253.168 1895.2L270.888 1923.55H85.41V1865.08H327.005V1917.65L156.884 2133.25L139.754 2107.85H330.549V2166.33H80.0937ZM377.638 2287.42L455.61 2112.58L469.196 2090.13L554.256 1865.08H633.409L453.247 2287.42H377.638ZM444.387 2163.38L322.113 1865.08H403.038L505.228 2135.61L444.387 2163.38ZM811.878 2172.24C783.131 2172.24 759.7 2165.54 741.585 2152.15C723.864 2138.37 712.838 2119.47 708.506 2095.45L714.413 2094.86V2287.42H639.985V1865.08H712.641V1933.01L706.734 1931.82C712.247 1909.38 724.849 1891.66 744.539 1878.66C764.228 1865.67 788.25 1859.17 816.603 1859.17C843.382 1859.17 866.616 1865.67 886.306 1878.66C906.389 1891.26 921.944 1909.18 932.97 1932.42C943.997 1955.65 949.51 1983.02 949.51 2014.52C949.51 2046.42 943.8 2074.18 932.38 2097.81C920.96 2121.44 905.011 2139.75 884.533 2152.74C864.056 2165.74 839.837 2172.24 811.878 2172.24ZM792.976 2110.81C816.997 2110.81 836.096 2102.54 850.273 2086C864.45 2069.06 871.538 2045.44 871.538 2015.11C871.538 1984.79 864.253 1961.36 849.682 1944.82C835.506 1928.28 816.407 1920.01 792.385 1920.01C768.757 1920.01 749.658 1928.48 735.087 1945.41C720.517 1961.95 713.232 1985.38 713.232 2015.7C713.232 2046.03 720.517 2069.46 735.087 2086C749.658 2102.54 768.954 2110.81 792.976 2110.81ZM1143.31 2172.24C1114.57 2172.24 1091.14 2165.54 1073.02 2152.15C1055.3 2138.37 1044.27 2119.47 1039.94 2095.45L1045.85 2094.86V2287.42H971.421V1865.08H1044.08V1933.01L1038.17 1931.82C1043.68 1909.38 1056.28 1891.66 1075.97 1878.66C1095.66 1865.67 1119.69 1859.17 1148.04 1859.17C1174.82 1859.17 1198.05 1865.67 1217.74 1878.66C1237.82 1891.26 1253.38 1909.18 1264.41 1932.42C1275.43 1955.65 1280.95 1983.02 1280.95 2014.52C1280.95 2046.42 1275.24 2074.18 1263.82 2097.81C1252.4 2121.44 1236.45 2139.75 1215.97 2152.74C1195.49 2165.74 1171.27 2172.24 1143.31 2172.24ZM1124.41 2110.81C1148.43 2110.81 1167.53 2102.54 1181.71 2086C1195.89 2069.06 1202.97 2045.44 1202.97 2015.11C1202.97 1984.79 1195.69 1961.36 1181.12 1944.82C1166.94 1928.28 1147.84 1920.01 1123.82 1920.01C1100.19 1920.01 1081.09 1928.48 1066.52 1945.41C1051.95 1961.95 1044.67 1985.38 1044.67 2015.7C1044.67 2046.03 1051.95 2069.46 1066.52 2086C1081.09 2102.54 1100.39 2110.81 1124.41 2110.81Z"/>
</mask>
<path d="M80.0937 2166.33V2113.76L253.168 1895.2L270.888 1923.55H85.41V1865.08H327.005V1917.65L156.884 2133.25L139.754 2107.85H330.549V2166.33H80.0937ZM377.638 2287.42L455.61 2112.58L469.196 2090.13L554.256 1865.08H633.409L453.247 2287.42H377.638ZM444.387 2163.38L322.113 1865.08H403.038L505.228 2135.61L444.387 2163.38ZM811.878 2172.24C783.131 2172.24 759.7 2165.54 741.585 2152.15C723.864 2138.37 712.838 2119.47 708.506 2095.45L714.413 2094.86V2287.42H639.985V1865.08H712.641V1933.01L706.734 1931.82C712.247 1909.38 724.849 1891.66 744.539 1878.66C764.228 1865.67 788.25 1859.17 816.603 1859.17C843.382 1859.17 866.616 1865.67 886.306 1878.66C906.389 1891.26 921.944 1909.18 932.97 1932.42C943.997 1955.65 949.51 1983.02 949.51 2014.52C949.51 2046.42 943.8 2074.18 932.38 2097.81C920.96 2121.44 905.011 2139.75 884.533 2152.74C864.056 2165.74 839.837 2172.24 811.878 2172.24ZM792.976 2110.81C816.997 2110.81 836.096 2102.54 850.273 2086C864.45 2069.06 871.538 2045.44 871.538 2015.11C871.538 1984.79 864.253 1961.36 849.682 1944.82C835.506 1928.28 816.407 1920.01 792.385 1920.01C768.757 1920.01 749.658 1928.48 735.087 1945.41C720.517 1961.95 713.232 1985.38 713.232 2015.7C713.232 2046.03 720.517 2069.46 735.087 2086C749.658 2102.54 768.954 2110.81 792.976 2110.81ZM1143.31 2172.24C1114.57 2172.24 1091.14 2165.54 1073.02 2152.15C1055.3 2138.37 1044.27 2119.47 1039.94 2095.45L1045.85 2094.86V2287.42H971.421V1865.08H1044.08V1933.01L1038.17 1931.82C1043.68 1909.38 1056.28 1891.66 1075.97 1878.66C1095.66 1865.67 1119.69 1859.17 1148.04 1859.17C1174.82 1859.17 1198.05 1865.67 1217.74 1878.66C1237.82 1891.26 1253.38 1909.18 1264.41 1932.42C1275.43 1955.65 1280.95 1983.02 1280.95 2014.52C1280.95 2046.42 1275.24 2074.18 1263.82 2097.81C1252.4 2121.44 1236.45 2139.75 1215.97 2152.74C1195.49 2165.74 1171.27 2172.24 1143.31 2172.24ZM1124.41 2110.81C1148.43 2110.81 1167.53 2102.54 1181.71 2086C1195.89 2069.06 1202.97 2045.44 1202.97 2015.11C1202.97 1984.79 1195.69 1961.36 1181.12 1944.82C1166.94 1928.28 1147.84 1920.01 1123.82 1920.01C1100.19 1920.01 1081.09 1928.48 1066.52 1945.41C1051.95 1961.95 1044.67 1985.38 1044.67 2015.7C1044.67 2046.03 1051.95 2069.46 1066.52 2086C1081.09 2102.54 1100.39 2110.81 1124.41 2110.81Z" fill="url(#paint1_linear_807_32)" fill-opacity="0.08"/>
<path d="M80.0937 2166.33H74.9737V2171.45H80.0937V2166.33ZM80.0937 2113.76L76.0799 2110.58L74.9737 2111.98V2113.76H80.0937ZM253.168 1895.2L257.509 1892.49L253.661 1886.33L249.154 1892.02L253.168 1895.2ZM270.888 1923.55V1928.67H280.126L275.23 1920.84L270.888 1923.55ZM85.41 1923.55H80.29V1928.67H85.41V1923.55ZM85.41 1865.08V1859.96H80.29V1865.08H85.41ZM327.005 1865.08H332.125V1859.96H327.005V1865.08ZM327.005 1917.65L331.024 1920.82L332.125 1919.42V1917.65H327.005ZM156.884 2133.25L152.639 2136.11L156.56 2141.93L160.904 2136.42L156.884 2133.25ZM139.754 2107.85V2102.73H130.125L135.509 2110.71L139.754 2107.85ZM330.549 2107.85H335.669V2102.73H330.549V2107.85ZM330.549 2166.33V2171.45H335.669V2166.33H330.549ZM80.0937 2166.33H85.2137V2113.76H80.0937H74.9737V2166.33H80.0937ZM80.0937 2113.76L84.1076 2116.94L257.181 1898.38L253.168 1895.2L249.154 1892.02L76.0799 2110.58L80.0937 2113.76ZM253.168 1895.2L248.826 1897.92L266.547 1926.27L270.888 1923.55L275.23 1920.84L257.509 1892.49L253.168 1895.2ZM270.888 1923.55V1918.43H85.41V1923.55V1928.67H270.888V1923.55ZM85.41 1923.55H90.53V1865.08H85.41H80.29V1923.55H85.41ZM85.41 1865.08V1870.2H327.005V1865.08V1859.96H85.41V1865.08ZM327.005 1865.08H321.885V1917.65H327.005H332.125V1865.08H327.005ZM327.005 1917.65L322.985 1914.48L152.865 2130.08L156.884 2133.25L160.904 2136.42L331.024 1920.82L327.005 1917.65ZM156.884 2133.25L161.129 2130.39L143.999 2104.99L139.754 2107.85L135.509 2110.71L152.639 2136.11L156.884 2133.25ZM139.754 2107.85V2112.97H330.549V2107.85V2102.73H139.754V2107.85ZM330.549 2107.85H325.429V2166.33H330.549H335.669V2107.85H330.549ZM330.549 2166.33V2161.21H80.0937V2166.33V2171.45H330.549V2166.33ZM377.638 2287.42L372.962 2285.34L369.749 2292.54H377.638V2287.42ZM455.61 2112.58L451.23 2109.93L451.064 2110.2L450.934 2110.49L455.61 2112.58ZM469.196 2090.13L473.576 2092.78L473.819 2092.38L473.985 2091.94L469.196 2090.13ZM554.256 1865.08V1859.96H550.718L549.467 1863.27L554.256 1865.08ZM633.409 1865.08L638.119 1867.08L641.16 1859.96H633.409V1865.08ZM453.247 2287.42V2292.54H456.63L457.957 2289.43L453.247 2287.42ZM444.387 2163.38L439.649 2165.32L441.669 2170.25L446.512 2168.04L444.387 2163.38ZM322.113 1865.08V1859.96H314.481L317.375 1867.02L322.113 1865.08ZM403.038 1865.08L407.828 1863.27L406.577 1859.96H403.038V1865.08ZM505.228 2135.61L507.354 2140.27L511.71 2138.28L510.018 2133.81L505.228 2135.61ZM377.638 2287.42L382.314 2289.51L460.286 2114.66L455.61 2112.58L450.934 2110.49L372.962 2285.34L377.638 2287.42ZM455.61 2112.58L459.99 2115.23L473.576 2092.78L469.196 2090.13L464.816 2087.48L451.23 2109.93L455.61 2112.58ZM469.196 2090.13L473.985 2091.94L559.045 1866.89L554.256 1865.08L549.467 1863.27L464.407 2088.32L469.196 2090.13ZM554.256 1865.08V1870.2H633.409V1865.08V1859.96H554.256V1865.08ZM633.409 1865.08L628.7 1863.07L448.538 2285.41L453.247 2287.42L457.957 2289.43L638.119 1867.08L633.409 1865.08ZM453.247 2287.42V2282.3H377.638V2287.42V2292.54H453.247V2287.42ZM444.387 2163.38L449.124 2161.44L326.85 1863.13L322.113 1865.08L317.375 1867.02L439.649 2165.32L444.387 2163.38ZM322.113 1865.08V1870.2H403.038V1865.08V1859.96H322.113V1865.08ZM403.038 1865.08L398.248 1866.89L500.439 2137.42L505.228 2135.61L510.018 2133.81L407.828 1863.27L403.038 1865.08ZM505.228 2135.61L503.103 2130.96L442.261 2158.72L444.387 2163.38L446.512 2168.04L507.354 2140.27L505.228 2135.61ZM741.585 2152.15L738.442 2156.2L738.491 2156.23L738.542 2156.27L741.585 2152.15ZM708.506 2095.45L707.997 2090.35L702.484 2090.9L703.467 2096.36L708.506 2095.45ZM714.413 2094.86H719.533V2089.2L713.904 2089.76L714.413 2094.86ZM714.413 2287.42V2292.54H719.533V2287.42H714.413ZM639.985 2287.42H634.865V2292.54H639.985V2287.42ZM639.985 1865.08V1859.96H634.865V1865.08H639.985ZM712.641 1865.08H717.761V1859.96H712.641V1865.08ZM712.641 1933.01L711.637 1938.03L717.761 1939.25V1933.01H712.641ZM706.734 1931.82L701.762 1930.6L700.486 1935.8L705.73 1936.85L706.734 1931.82ZM744.539 1878.66L747.359 1882.94L747.359 1882.94L744.539 1878.66ZM886.306 1878.66L883.485 1882.94L883.534 1882.97L883.584 1883L886.306 1878.66ZM932.97 1932.42L937.596 1930.22L937.596 1930.22L932.97 1932.42ZM932.38 2097.81L936.99 2100.04L936.99 2100.04L932.38 2097.81ZM884.533 2152.74L881.79 2148.42L881.79 2148.42L884.533 2152.74ZM850.273 2086L854.16 2089.33L854.18 2089.31L854.199 2089.28L850.273 2086ZM849.682 1944.82L845.795 1948.15L845.818 1948.18L845.841 1948.2L849.682 1944.82ZM735.087 1945.41L738.929 1948.8L738.949 1948.77L738.968 1948.75L735.087 1945.41ZM735.087 2086L738.929 2082.61L738.929 2082.61L735.087 2086ZM811.878 2172.24V2167.12C783.922 2167.12 761.645 2160.61 744.628 2148.04L741.585 2152.15L738.542 2156.27C757.754 2170.47 782.34 2177.36 811.878 2177.36V2172.24ZM741.585 2152.15L744.728 2148.11C728.094 2135.18 717.674 2117.44 713.545 2094.54L708.506 2095.45L703.467 2096.36C708.002 2121.5 719.634 2141.57 738.442 2156.2L741.585 2152.15ZM708.506 2095.45L709.016 2100.54L714.923 2099.95L714.413 2094.86L713.904 2089.76L707.997 2090.35L708.506 2095.45ZM714.413 2094.86H709.293V2287.42H714.413H719.533V2094.86H714.413ZM714.413 2287.42V2282.3H639.985V2287.42V2292.54H714.413V2287.42ZM639.985 2287.42H645.105V1865.08H639.985H634.865V2287.42H639.985ZM639.985 1865.08V1870.2H712.641V1865.08V1859.96H639.985V1865.08ZM712.641 1865.08H707.521V1933.01H712.641H717.761V1865.08H712.641ZM712.641 1933.01L713.645 1927.99L707.738 1926.8L706.734 1931.82L705.73 1936.85L711.637 1938.03L712.641 1933.01ZM706.734 1931.82L711.706 1933.05C716.905 1911.88 728.72 1895.24 747.359 1882.94L744.539 1878.66L741.718 1874.39C720.977 1888.08 707.589 1906.88 701.762 1930.6L706.734 1931.82ZM744.539 1878.66L747.359 1882.94C766.056 1870.6 789.048 1864.29 816.603 1864.29V1859.17V1854.05C787.452 1854.05 762.401 1860.74 741.718 1874.39L744.539 1878.66ZM816.603 1859.17V1864.29C842.519 1864.29 864.742 1870.56 883.485 1882.94L886.306 1878.66L889.126 1874.39C868.49 1860.77 844.245 1854.05 816.603 1854.05V1859.17ZM886.306 1878.66L883.584 1883C902.772 1895.04 917.7 1912.18 928.345 1934.61L932.97 1932.42L937.596 1930.22C926.189 1906.18 910.006 1887.49 889.027 1874.33L886.306 1878.66ZM932.97 1932.42L928.345 1934.61C938.981 1957.02 944.39 1983.61 944.39 2014.52H949.51H954.63C954.63 1982.43 949.013 1954.28 937.596 1930.22L932.97 1932.42ZM949.51 2014.52H944.39C944.39 2045.81 938.79 2072.78 927.77 2095.58L932.38 2097.81L936.99 2100.04C948.81 2075.58 954.63 2047.03 954.63 2014.52H949.51ZM932.38 2097.81L927.77 2095.58C916.729 2118.42 901.396 2135.98 881.79 2148.42L884.533 2152.74L887.277 2157.07C908.625 2143.52 925.19 2124.45 936.99 2100.04L932.38 2097.81ZM884.533 2152.74L881.79 2148.42C862.252 2160.82 839.018 2167.12 811.878 2167.12V2172.24V2177.36C840.657 2177.36 865.86 2170.66 887.277 2157.07L884.533 2152.74ZM792.976 2110.81V2115.93C818.319 2115.93 838.904 2107.13 854.16 2089.33L850.273 2086L846.386 2082.66C833.289 2097.94 815.676 2105.69 792.976 2105.69V2110.81ZM850.273 2086L854.199 2089.28C869.392 2071.14 876.658 2046.19 876.658 2015.11H871.538H866.418C866.418 2044.68 859.508 2066.99 846.347 2082.71L850.273 2086ZM871.538 2015.11H876.658C876.658 1984.01 869.183 1959.21 853.524 1941.44L849.682 1944.82L845.841 1948.2C859.323 1963.51 866.418 1985.57 866.418 2015.11H871.538ZM849.682 1944.82L853.57 1941.49C838.313 1923.69 817.728 1914.89 792.385 1914.89V1920.01V1925.13C815.085 1925.13 832.698 1932.87 845.795 1948.15L849.682 1944.82ZM792.385 1920.01V1914.89C767.364 1914.89 746.812 1923.94 731.206 1942.07L735.087 1945.41L738.968 1948.75C752.504 1933.02 770.15 1925.13 792.385 1925.13V1920.01ZM735.087 1945.41L731.246 1942.03C715.587 1959.8 708.112 1984.6 708.112 2015.7H713.232H718.352C718.352 1986.16 725.447 1964.1 738.929 1948.8L735.087 1945.41ZM713.232 2015.7H708.112C708.112 2046.8 715.587 2071.61 731.246 2089.38L735.087 2086L738.929 2082.61C725.447 2067.31 718.352 2045.25 718.352 2015.7H713.232ZM735.087 2086L731.246 2089.38C746.882 2107.13 767.632 2115.93 792.976 2115.93V2110.81V2105.69C770.276 2105.69 752.434 2097.94 738.929 2082.61L735.087 2086ZM1073.02 2152.15L1069.88 2156.2L1069.93 2156.23L1069.98 2156.27L1073.02 2152.15ZM1039.94 2095.45L1039.43 2090.35L1033.92 2090.9L1034.9 2096.36L1039.94 2095.45ZM1045.85 2094.86H1050.97V2089.2L1045.34 2089.76L1045.85 2094.86ZM1045.85 2287.42V2292.54H1050.97V2287.42H1045.85ZM971.421 2287.42H966.301V2292.54H971.421V2287.42ZM971.421 1865.08V1859.96H966.301V1865.08H971.421ZM1044.08 1865.08H1049.2V1859.96H1044.08V1865.08ZM1044.08 1933.01L1043.07 1938.03L1049.2 1939.25V1933.01H1044.08ZM1038.17 1931.82L1033.2 1930.6L1031.92 1935.8L1037.17 1936.85L1038.17 1931.82ZM1075.97 1878.66L1078.79 1882.94L1078.79 1882.94L1075.97 1878.66ZM1217.74 1878.66L1214.92 1882.94L1214.97 1882.97L1215.02 1883L1217.74 1878.66ZM1264.41 1932.42L1269.03 1930.22L1269.03 1930.22L1264.41 1932.42ZM1263.82 2097.81L1268.43 2100.04L1268.43 2100.04L1263.82 2097.81ZM1215.97 2152.74L1213.23 2148.42L1213.23 2148.42L1215.97 2152.74ZM1181.71 2086L1185.6 2089.33L1185.62 2089.31L1185.63 2089.28L1181.71 2086ZM1181.12 1944.82L1177.23 1948.15L1177.25 1948.18L1177.28 1948.2L1181.12 1944.82ZM1066.52 1945.41L1070.36 1948.8L1070.38 1948.77L1070.4 1948.75L1066.52 1945.41ZM1066.52 2086L1070.36 2082.61L1070.36 2082.61L1066.52 2086ZM1143.31 2172.24V2167.12C1115.36 2167.12 1093.08 2160.61 1076.06 2148.04L1073.02 2152.15L1069.98 2156.27C1089.19 2170.47 1113.78 2177.36 1143.31 2177.36V2172.24ZM1073.02 2152.15L1076.16 2148.11C1059.53 2135.18 1049.11 2117.44 1044.98 2094.54L1039.94 2095.45L1034.9 2096.36C1039.44 2121.5 1051.07 2141.57 1069.88 2156.2L1073.02 2152.15ZM1039.94 2095.45L1040.45 2100.54L1046.36 2099.95L1045.85 2094.86L1045.34 2089.76L1039.43 2090.35L1039.94 2095.45ZM1045.85 2094.86H1040.73V2287.42H1045.85H1050.97V2094.86H1045.85ZM1045.85 2287.42V2282.3H971.421V2287.42V2292.54H1045.85V2287.42ZM971.421 2287.42H976.541V1865.08H971.421H966.301V2287.42H971.421ZM971.421 1865.08V1870.2H1044.08V1865.08V1859.96H971.421V1865.08ZM1044.08 1865.08H1038.96V1933.01H1044.08H1049.2V1865.08H1044.08ZM1044.08 1933.01L1045.08 1927.99L1039.17 1926.8L1038.17 1931.82L1037.17 1936.85L1043.07 1938.03L1044.08 1933.01ZM1038.17 1931.82L1043.14 1933.05C1048.34 1911.88 1060.16 1895.24 1078.79 1882.94L1075.97 1878.66L1073.15 1874.39C1052.41 1888.08 1039.03 1906.88 1033.2 1930.6L1038.17 1931.82ZM1075.97 1878.66L1078.79 1882.94C1097.49 1870.6 1120.48 1864.29 1148.04 1864.29V1859.17V1854.05C1118.89 1854.05 1093.84 1860.74 1073.15 1874.39L1075.97 1878.66ZM1148.04 1859.17V1864.29C1173.95 1864.29 1196.18 1870.56 1214.92 1882.94L1217.74 1878.66L1220.56 1874.39C1199.93 1860.77 1175.68 1854.05 1148.04 1854.05V1859.17ZM1217.74 1878.66L1215.02 1883C1234.21 1895.04 1249.14 1912.18 1259.78 1934.61L1264.41 1932.42L1269.03 1930.22C1257.62 1906.18 1241.44 1887.49 1220.46 1874.33L1217.74 1878.66ZM1264.41 1932.42L1259.78 1934.61C1270.42 1957.02 1275.83 1983.61 1275.83 2014.52H1280.95H1286.07C1286.07 1982.43 1280.45 1954.28 1269.03 1930.22L1264.41 1932.42ZM1280.95 2014.52H1275.83C1275.83 2045.81 1270.23 2072.78 1259.21 2095.58L1263.82 2097.81L1268.43 2100.04C1280.25 2075.58 1286.07 2047.03 1286.07 2014.52H1280.95ZM1263.82 2097.81L1259.21 2095.58C1248.17 2118.42 1232.83 2135.98 1213.23 2148.42L1215.97 2152.74L1218.71 2157.07C1240.06 2143.52 1256.63 2124.45 1268.43 2100.04L1263.82 2097.81ZM1215.97 2152.74L1213.23 2148.42C1193.69 2160.82 1170.45 2167.12 1143.31 2167.12V2172.24V2177.36C1172.09 2177.36 1197.3 2170.66 1218.71 2157.07L1215.97 2152.74ZM1124.41 2110.81V2115.93C1149.75 2115.93 1170.34 2107.13 1185.6 2089.33L1181.71 2086L1177.82 2082.66C1164.72 2097.94 1147.11 2105.69 1124.41 2105.69V2110.81ZM1181.71 2086L1185.63 2089.28C1200.83 2071.14 1208.09 2046.19 1208.09 2015.11H1202.97H1197.85C1197.85 2044.68 1190.94 2066.99 1177.78 2082.71L1181.71 2086ZM1202.97 2015.11H1208.09C1208.09 1984.01 1200.62 1959.21 1184.96 1941.44L1181.12 1944.82L1177.28 1948.2C1190.76 1963.51 1197.85 1985.57 1197.85 2015.11H1202.97ZM1181.12 1944.82L1185.01 1941.49C1169.75 1923.69 1149.16 1914.89 1123.82 1914.89V1920.01V1925.13C1146.52 1925.13 1164.13 1932.87 1177.23 1948.15L1181.12 1944.82ZM1123.82 1920.01V1914.89C1098.8 1914.89 1078.25 1923.94 1062.64 1942.07L1066.52 1945.41L1070.4 1948.75C1083.94 1933.02 1101.59 1925.13 1123.82 1925.13V1920.01ZM1066.52 1945.41L1062.68 1942.03C1047.02 1959.8 1039.55 1984.6 1039.55 2015.7H1044.67H1049.79C1049.79 1986.16 1056.88 1964.1 1070.36 1948.8L1066.52 1945.41ZM1044.67 2015.7H1039.55C1039.55 2046.8 1047.02 2071.61 1062.68 2089.38L1066.52 2086L1070.36 2082.61C1056.88 2067.31 1049.79 2045.25 1049.79 2015.7H1044.67ZM1066.52 2086L1062.68 2089.38C1078.32 2107.13 1099.07 2115.93 1124.41 2115.93V2110.81V2105.69C1101.71 2105.69 1083.87 2097.94 1070.36 2082.61L1066.52 2086Z" fill="url(#paint2_linear_807_32)" mask="url(#path-6-outside-1_807_32)"/>
</g>
<defs>
<filter id="filter0_f_807_32" x="0.000106812" y="0.000106812" width="3199.06" height="2263.06" filterUnits="userSpaceOnUse" color-interpolation-filters="sRGB">
<feFlood flood-opacity="0" result="BackgroundImageFix"/>
<feBlend mode="normal" in="SourceGraphic" in2="BackgroundImageFix" result="shape"/>
<feGaussianBlur stdDeviation="10.9654" result="effect1_foregroundBlur_807_32"/>
</filter>
<filter id="filter1_ddd_807_32" x="-1868.05" y="428.095" width="4973.1" height="4951.83" filterUnits="userSpaceOnUse" color-interpolation-filters="sRGB">
<feFlood flood-opacity="0" result="BackgroundImageFix"/>
<feColorMatrix in="SourceAlpha" type="matrix" values="0 0 0 0 0 0 0 0 0 0 0 0 0 0 0 0 0 0 127 0" result="hardAlpha"/>
<feMorphology radius="663.194" operator="dilate" in="SourceAlpha" result="effect1_dropShadow_807_32"/>
<feOffset/>
<feGaussianBlur stdDeviation="138.165"/>
<feComposite in2="hardAlpha" operator="out"/>
<feColorMatrix type="matrix" values="0 0 0 0 0 0 0 0 0 0.890196 0 0 0 0 0.356863 0 0 0 0.1 0"/>
<feBlend mode="normal" in2="BackgroundImageFix" result="effect1_dropShadow_807_32"/>
<feColorMatrix in="SourceAlpha" type="matrix" values="0 0 0 0 0 0 0 0 0 0 0 0 0 0 0 0 0 0 127 0" result="hardAlpha"/>
<feMorphology radius="331.597" operator="dilate" in="SourceAlpha" result="effect2_dropShadow_807_32"/>
<feOffset/>
<feGaussianBlur stdDeviation="138.165"/>
<feComposite in2="hardAlpha" operator="out"/>
<feColorMatrix type="matrix" values="0 0 0 0 0 0 0 0 0 0.890196 0 0 0 0 0.356863 0 0 0 0.1 0"/>
<feBlend mode="normal" in2="effect1_dropShadow_807_32" result="effect2_dropShadow_807_32"/>
<feColorMatrix in="SourceAlpha" type="matrix" values="0 0 0 0 0 0 0 0 0 0 0 0 0 0 0 0 0 0 127 0" result="hardAlpha"/>
<feMorphology radius="110.532" operator="dilate" in="SourceAlpha" result="effect3_dropShadow_807_32"/>
<feOffset/>
<feGaussianBlur stdDeviation="138.165"/>
<feComposite in2="hardAlpha" operator="out"/>
<feColorMatrix type="matrix" values="0 0 0 0 0 0 0 0 0 0.891026 0 0 0 0 0.35641 0 0 0 1 0"/>
<feBlend mode="plus-lighter" in2="effect2_dropShadow_807_32" result="effect3_dropShadow_807_32"/>
<feBlend mode="normal" in="SourceGraphic" in2="effect3_dropShadow_807_32" result="shape"/>
</filter>
<filter id="filter2_ddd_807_32" x="-1187.23" y="-2646.97" width="4973.1" height="4951.83" filterUnits="userSpaceOnUse" color-interpolation-filters="sRGB">
<feFlood flood-opacity="0" result="BackgroundImageFix"/>
<feColorMatrix in="SourceAlpha" type="matrix" values="0 0 0 0 0 0 0 0 0 0 0 0 0 0 0 0 0 0 127 0" result="hardAlpha"/>
<feMorphology radius="663.194" operator="dilate" in="SourceAlpha" result="effect1_dropShadow_807_32"/>
<feOffset/>
<feGaussianBlur stdDeviation="138.165"/>
<feComposite in2="hardAlpha" operator="out"/>
<feColorMatrix type="matrix" values="0 0 0 0 0 0 0 0 0 0.890196 0 0 0 0 0.356863 0 0 0 0.1 0"/>
<feBlend mode="normal" in2="BackgroundImageFix" result="effect1_dropShadow_807_32"/>
<feColorMatrix in="SourceAlpha" type="matrix" values="0 0 0 0 0 0 0 0 0 0 0 0 0 0 0 0 0 0 127 0" result="hardAlpha"/>
<feMorphology radius="331.597" operator="dilate" in="SourceAlpha" result="effect2_dropShadow_807_32"/>
<feOffset/>
<feGaussianBlur stdDeviation="138.165"/>
<feComposite in2="hardAlpha" operator="out"/>
<feColorMatrix type="matrix" values="0 0 0 0 0 0 0 0 0 0.890196 0 0 0 0 0.356863 0 0 0 0.1 0"/>
<feBlend mode="normal" in2="effect1_dropShadow_807_32" result="effect2_dropShadow_807_32"/>
<feColorMatrix in="SourceAlpha" type="matrix" values="0 0 0 0 0 0 0 0 0 0 0 0 0 0 0 0 0 0 127 0" result="hardAlpha"/>
<feMorphology radius="110.532" operator="dilate" in="SourceAlpha" result="effect3_dropShadow_807_32"/>
<feOffset/>
<feGaussianBlur stdDeviation="138.165"/>
<feComposite in2="hardAlpha" operator="out"/>
<feColorMatrix type="matrix" values="0 0 0 0 0 0 0 0 0 0.891026 0 0 0 0 0.35641 0 0 0 1 0"/>
<feBlend mode="plus-lighter" in2="effect2_dropShadow_807_32" result="effect3_dropShadow_807_32"/>
<feBlend mode="normal" in="SourceGraphic" in2="effect3_dropShadow_807_32" result="shape"/>
</filter>
<linearGradient id="paint0_linear_807_32" x1="1095.05" y1="1456.81" x2="827.538" y2="1285.35" gradientUnits="userSpaceOnUse">
<stop stop-color="#13FFA0"/>
<stop offset="0.5" stop-color="#12FFA4"/>
<stop offset="1" stop-color="#13FFA0"/>
</linearGradient>
<linearGradient id="paint1_linear_807_32" x1="289.824" y1="1898.78" x2="903.719" y2="2007.62" gradientUnits="userSpaceOnUse">
<stop stop-color="#75F33F"/>
<stop offset="1" stop-color="#3FF399"/>
</linearGradient>
<linearGradient id="paint2_linear_807_32" x1="246.935" y1="1928.23" x2="999.1" y2="2054.34" gradientUnits="userSpaceOnUse">
<stop stop-color="#64F33F"/>
<stop offset="1" stop-color="#3FF399"/>
</linearGradient>
<clipPath id="clip0_807_32">
<rect width="3155.2" height="2219.2" fill="white" transform="translate(21.9309 21.9309)"/>
</clipPath>
</defs>
</svg>
