<svg width="65" height="65" viewBox="0 0 65 65" fill="none" xmlns="http://www.w3.org/2000/svg">
<path d="M32.4476 6.07568C26.0269 6.07554 19.8156 8.36022 14.9253 12.5209C10.035 16.6815 6.78483 22.4466 5.75643 28.7845C4.72804 35.1223 5.98852 41.6193 9.31232 47.1128C12.6361 52.6063 17.8063 56.7378 23.8977 58.7679C25.2497 59.0058 25.7553 58.1947 25.7553 57.4835C25.7553 56.8427 25.7229 54.7119 25.7229 52.4487C18.9278 53.698 17.1702 50.7912 16.6294 49.2716C16.0291 47.792 15.0779 46.4808 13.8578 45.4509C12.9115 44.9452 11.5595 43.6933 13.8227 43.6608C14.6877 43.7542 15.5174 44.0549 16.2414 44.5374C16.9654 45.0199 17.5623 45.67 17.9814 46.4324C18.3511 47.0967 18.8483 47.6815 19.4444 48.1533C20.0406 48.6251 20.7239 48.9747 21.4554 49.1819C22.1869 49.3891 22.952 49.45 23.7071 49.361C24.4621 49.272 25.1921 49.0348 25.8554 48.6632C25.9715 47.2876 26.5848 46.0014 27.5805 45.0453C21.5642 44.3693 15.2774 42.0384 15.2774 31.6958C15.2413 29.0084 16.2327 26.4086 18.049 24.4275C17.2241 22.0916 17.3208 19.5291 18.3194 17.262C18.3194 17.262 20.5826 16.5536 25.7553 20.0336C30.1798 18.817 34.8506 18.817 39.2751 20.0336C44.4451 16.5184 46.711 17.262 46.711 17.262C47.7097 19.5291 47.8064 22.0916 46.9814 24.4275C48.8049 26.4041 49.7974 29.0069 49.753 31.6958C49.753 42.0709 43.4311 44.3693 37.4175 45.0453C38.0621 45.6997 38.5584 46.4851 38.8728 47.3482C39.1873 48.2113 39.3125 49.1319 39.24 50.0476C39.24 53.6655 39.2075 56.5723 39.2075 57.4835C39.2075 58.1947 39.7132 59.0383 41.0652 58.7679C47.1453 56.7208 52.3001 52.5795 55.6093 47.0834C58.9186 41.5872 60.1669 35.0939 59.1314 28.7625C58.0959 22.4311 54.8441 16.6737 49.9564 12.5181C45.0686 8.36251 38.8631 6.07917 32.4476 6.07568Z" fill="#00FF84"/>
</svg>
