<svg width="960" height="992" viewBox="0 0 960 992" fill="none" xmlns="http://www.w3.org/2000/svg">
<circle opacity="0.2" cx="477.475" cy="515.143" r="228.75" fill="#011D14" stroke="#00E35B" stroke-width="3"/>
<circle opacity="0.5" cx="477.475" cy="515.143" r="343.073" stroke="#00E35B" stroke-width="4.605" stroke-miterlimit="11.4737" stroke-dasharray="351 27"/>
<g filter="url(#filter0_f_799_2237)">
<circle cx="477.475" cy="515.143" r="458.198" stroke="#00E35B" stroke-width="4.605"/>
</g>
<circle cx="477.475" cy="515.143" r="458.198" stroke="#00E35B" stroke-width="4.605"/>
<g filter="url(#filter1_d_799_2237)">
<g clip-path="url(#clip0_799_2237)">
<circle cx="788.21" cy="150.408" r="95.4653" transform="rotate(-30 788.21 150.408)" fill="#156F32"/>
<g filter="url(#filter2_f_799_2237)">
<rect x="645.038" y="175.294" width="244.357" height="12.9112" transform="rotate(-33.2953 645.038 175.294)" fill="#4FF586"/>
</g>
<g filter="url(#filter3_f_799_2237)">
<rect x="658.688" y="196.078" width="244.357" height="12.9112" transform="rotate(-33.2953 658.688 196.078)" fill="#64F33F"/>
</g>
<g filter="url(#filter4_f_799_2237)">
<rect x="687.38" y="245.774" width="244.357" height="12.9112" transform="rotate(-33.2953 687.38 245.774)" fill="#64F33F"/>
</g>
<g filter="url(#filter5_f_799_2237)">
<rect x="680.214" y="228.854" width="244.357" height="12.9112" transform="rotate(-33.2953 680.214 228.854)" fill="#3FF399"/>
</g>
<g filter="url(#filter6_f_799_2237)">
<rect x="701.793" y="264.509" width="244.357" height="33.4729" transform="rotate(-30 701.793 264.509)" fill="#4FA87C"/>
</g>
<g filter="url(#filter7_f_799_2237)">
<rect x="630.337" y="152.911" width="244.357" height="36.3068" transform="rotate(-33.2953 630.337 152.911)" fill="#87FFC3"/>
</g>
<g filter="url(#filter8_f_799_2237)">
<rect x="699.114" y="257.632" width="244.357" height="12.9112" transform="rotate(-33.2953 699.114 257.632)" fill="#3FF399"/>
</g>
</g>
<g clip-path="url(#clip1_799_2237)">
<circle cx="783.561" cy="158.614" r="95.4652" transform="rotate(-30 783.561 158.614)" fill="url(#paint0_linear_799_2237)"/>
<circle cx="783.543" cy="158.745" r="89.6623" transform="rotate(-30 783.543 158.745)" stroke="#003A0D" stroke-width="0.876946"/>
<g filter="url(#filter9_d_799_2237)">
<path d="M829.069 156.165L824.411 175.215C824.31 175.63 824.123 176.021 823.863 176.361C823.606 176.707 823.278 176.996 822.902 177.208L767.24 209.344C766.976 209.497 766.674 209.572 766.369 209.559C766.067 209.547 765.775 209.446 765.529 209.269C765.287 209.093 765.104 208.848 765.001 208.566C764.898 208.284 764.882 207.977 764.954 207.685L769.623 188.633C769.724 188.218 769.909 187.828 770.168 187.489C770.424 187.142 770.75 186.853 771.124 186.64L826.783 154.506C827.048 154.353 827.351 154.28 827.657 154.294C827.959 154.306 828.251 154.407 828.496 154.584C828.738 154.76 828.922 155.005 829.024 155.286C829.127 155.569 829.142 155.873 829.069 156.165ZM803.066 138.245C802.656 138.125 802.225 138.091 801.8 138.146C801.371 138.195 800.957 138.333 800.584 138.552L744.922 170.688C744.658 170.841 744.442 171.065 744.301 171.336C744.16 171.605 744.102 171.909 744.134 172.211C744.166 172.507 744.285 172.788 744.477 173.016C744.67 173.247 744.927 173.415 745.217 173.498L764.052 178.983C764.462 179.104 764.892 179.138 765.315 179.084C765.743 179.034 766.156 178.896 766.527 178.677L822.185 146.542C822.45 146.39 822.666 146.165 822.807 145.895C822.948 145.627 823.006 145.324 822.976 145.023C822.944 144.725 822.824 144.443 822.631 144.214C822.438 143.983 822.18 143.815 821.891 143.733L803.066 138.245ZM740.321 162.719L795.986 130.581C796.362 130.368 796.689 130.078 796.945 129.731C797.206 129.391 797.392 129 797.493 128.585L802.151 109.535C802.224 109.243 802.208 108.936 802.104 108.653C802.001 108.373 801.817 108.131 801.575 107.955C801.33 107.778 801.038 107.678 800.736 107.665C800.431 107.653 800.128 107.727 799.864 107.88L744.205 140.015C743.83 140.227 743.504 140.515 743.247 140.861C742.988 141.2 742.803 141.59 742.703 142.005L738.04 161.06C737.967 161.352 737.983 161.66 738.087 161.942C738.188 162.223 738.37 162.467 738.61 162.644C738.856 162.821 739.147 162.922 739.45 162.934C739.755 162.948 740.056 162.871 740.321 162.719Z" fill="black"/>
</g>
<g filter="url(#filter10_f_799_2237)">
<path d="M782.986 102.651L782.069 24.0538L853.626 68.1783L782.986 102.651Z" fill="white"/>
</g>
</g>
</g>
<g filter="url(#filter11_d_799_2237)">
<g clip-path="url(#clip2_799_2237)">
<circle cx="148.814" cy="570.409" r="73.0029" transform="rotate(30 148.814 570.409)" fill="#090909"/>
<g filter="url(#filter12_f_799_2237)">
<rect x="77.5903" y="485.108" width="186.861" height="9.87328" transform="rotate(26.7047 77.5903 485.108)" fill="#515151"/>
</g>
<g filter="url(#filter13_f_799_2237)">
<rect x="69.0452" y="502.095" width="186.861" height="9.87328" transform="rotate(26.7047 69.0452 502.095)" fill="#828282"/>
</g>
<g filter="url(#filter14_f_799_2237)">
<rect x="55.5698" y="528.882" width="186.861" height="9.87328" transform="rotate(26.7047 55.5698 528.882)" fill="#151515"/>
</g>
<g filter="url(#filter15_f_799_2237)">
<rect x="45.0525" y="552.111" width="186.861" height="25.5969" transform="rotate(30 45.0525 552.111)" fill="#171717"/>
</g>
<g filter="url(#filter16_f_799_2237)">
<rect x="86.793" y="466.814" width="186.861" height="27.764" transform="rotate(26.7047 86.793 466.814)" fill="#BFBFBF"/>
</g>
</g>
<g clip-path="url(#clip3_799_2237)">
<circle cx="139.724" cy="568.53" r="73.0028" transform="rotate(30 139.724 568.53)" fill="url(#paint1_linear_799_2237)"/>
<circle cx="139.727" cy="568.486" r="68.9744" transform="rotate(30 139.727 568.486)" stroke="#242424" stroke-width="0.449773"/>
<g filter="url(#filter17_f_799_2237)">
<path d="M179.081 544.641L230.782 513.982L228.92 578.242L179.081 544.641Z" fill="white"/>
</g>
<g opacity="0.7" clip-path="url(#clip4_799_2237)" filter="url(#filter18_f_799_2237)">
<path d="M157.882 537.299L121.806 599.783" stroke="white" stroke-width="6.55918" stroke-linecap="round" stroke-linejoin="round"/>
<path d="M165.524 556.859L144.222 544.56C141.586 543.038 138.453 542.625 135.512 543.413C132.572 544.201 130.064 546.124 128.542 548.761C127.02 551.397 126.607 554.53 127.395 557.471C128.183 560.412 130.107 562.919 132.743 564.441L146.944 572.64C149.581 574.162 151.505 576.67 152.292 579.61C153.08 582.551 152.668 585.684 151.146 588.32C149.623 590.957 147.116 592.88 144.176 593.668C141.235 594.456 138.102 594.044 135.465 592.521L111.324 578.583" stroke="white" stroke-width="6.55918" stroke-linecap="round" stroke-linejoin="round"/>
</g>
<g clip-path="url(#clip5_799_2237)">
<path d="M157.882 537.299L121.806 599.783" stroke="white" stroke-width="6.55918" stroke-linecap="round" stroke-linejoin="round"/>
<path d="M165.524 556.859L144.222 544.56C141.586 543.038 138.453 542.625 135.512 543.413C132.572 544.201 130.064 546.124 128.542 548.761C127.02 551.397 126.607 554.53 127.395 557.471C128.183 560.412 130.107 562.919 132.743 564.441L146.944 572.64C149.581 574.162 151.505 576.67 152.292 579.61C153.08 582.551 152.668 585.684 151.146 588.32C149.623 590.957 147.116 592.88 144.176 593.668C141.235 594.456 138.102 594.044 135.465 592.521L111.324 578.583" stroke="white" stroke-width="6.55918" stroke-linecap="round" stroke-linejoin="round"/>
</g>
</g>
</g>
<g filter="url(#filter19_d_799_2237)">
<g clip-path="url(#clip6_799_2237)">
<circle cx="820.055" cy="844.46" r="73.0029" transform="rotate(-30 820.055 844.46)" fill="#090909"/>
<g filter="url(#filter20_f_799_2237)">
<rect x="710.57" y="863.49" width="186.861" height="9.87328" transform="rotate(-33.2953 710.57 863.49)" fill="#515151"/>
</g>
<g filter="url(#filter21_f_799_2237)">
<rect x="721.008" y="879.384" width="186.861" height="9.87328" transform="rotate(-33.2953 721.008 879.384)" fill="#828282"/>
</g>
<g filter="url(#filter22_f_799_2237)">
<rect x="737.469" y="904.447" width="186.861" height="9.87328" transform="rotate(-33.2953 737.469 904.447)" fill="#151515"/>
</g>
<g filter="url(#filter23_f_799_2237)">
<rect x="752.327" y="925.17" width="186.861" height="25.5969" transform="rotate(-30 752.327 925.17)" fill="#171717"/>
</g>
<g filter="url(#filter24_f_799_2237)">
<rect x="699.329" y="846.373" width="186.861" height="27.764" transform="rotate(-33.2953 699.329 846.373)" fill="#BFBFBF"/>
</g>
</g>
<g clip-path="url(#clip7_799_2237)">
<circle cx="813.882" cy="851.392" r="73.0028" transform="rotate(-30 813.882 851.392)" fill="url(#paint2_linear_799_2237)"/>
<circle cx="813.845" cy="851.368" r="68.9744" transform="rotate(-30 813.845 851.368)" stroke="#242424" stroke-width="0.449773"/>
<g filter="url(#filter25_f_799_2237)">
<path d="M812.873 805.363L812.171 745.259L866.891 779.002L812.873 805.363Z" fill="white"/>
</g>
<g clip-path="url(#clip8_799_2237)">
<path d="M763.185 837.789L864.095 864.827" stroke="white" stroke-width="5.75625" stroke-linecap="round" stroke-linejoin="round"/>
<path d="M825.787 840.65C828.84 840.437 831.908 840.607 834.919 841.155" stroke="white" stroke-width="5.75625" stroke-linecap="round" stroke-linejoin="round"/>
<path d="M794.208 864.66C796.437 858.568 800.24 853.175 805.229 849.03" stroke="white" stroke-width="5.75625" stroke-linecap="round" stroke-linejoin="round"/>
<path d="M798.22 833.264C804.161 829.165 810.866 826.305 817.936 824.854C825.006 823.404 832.295 823.392 839.369 824.821" stroke="white" stroke-width="5.75625" stroke-linecap="round" stroke-linejoin="round"/>
<path d="M777.837 860.347C779.812 854.453 782.801 848.948 786.669 844.081" stroke="white" stroke-width="5.75625" stroke-linecap="round" stroke-linejoin="round"/>
<path d="M810.45 869.085C812.191 865.284 815.072 862.118 818.693 860.027C822.315 857.936 826.497 857.024 830.66 857.417" stroke="white" stroke-width="5.75625" stroke-linecap="round" stroke-linejoin="round"/>
<path d="M827.071 874.572L827.101 874.555" stroke="white" stroke-width="5.75625" stroke-linecap="round" stroke-linejoin="round"/>
</g>
</g>
</g>
<g filter="url(#filter26_d_799_2237)">
<g clip-path="url(#clip9_799_2237)">
<circle cx="820.055" cy="844.46" r="73.0029" transform="rotate(-30 820.055 844.46)" fill="#090909"/>
<g filter="url(#filter27_f_799_2237)">
<rect x="710.57" y="863.49" width="186.861" height="9.87328" transform="rotate(-33.2953 710.57 863.49)" fill="#515151"/>
</g>
<g filter="url(#filter28_f_799_2237)">
<rect x="721.008" y="879.384" width="186.861" height="9.87328" transform="rotate(-33.2953 721.008 879.384)" fill="#828282"/>
</g>
<g filter="url(#filter29_f_799_2237)">
<rect x="737.469" y="904.447" width="186.861" height="9.87328" transform="rotate(-33.2953 737.469 904.447)" fill="#151515"/>
</g>
<g filter="url(#filter30_f_799_2237)">
<rect x="752.327" y="925.17" width="186.861" height="25.5969" transform="rotate(-30 752.327 925.17)" fill="#171717"/>
</g>
<g filter="url(#filter31_f_799_2237)">
<rect x="699.329" y="846.373" width="186.861" height="27.764" transform="rotate(-33.2953 699.329 846.373)" fill="#BFBFBF"/>
</g>
</g>
<g clip-path="url(#clip10_799_2237)">
<circle cx="813.882" cy="851.392" r="73.0028" transform="rotate(-30 813.882 851.392)" fill="url(#paint3_linear_799_2237)"/>
<circle cx="813.845" cy="851.368" r="68.9744" transform="rotate(-30 813.845 851.368)" stroke="#242424" stroke-width="0.449773"/>
<g filter="url(#filter32_f_799_2237)">
<path d="M812.873 805.363L812.171 745.259L866.891 779.002L812.873 805.363Z" fill="white"/>
</g>
<g clip-path="url(#clip11_799_2237)">
<path d="M763.185 837.789L864.095 864.827" stroke="white" stroke-width="5.75625" stroke-linecap="round" stroke-linejoin="round"/>
<path d="M825.787 840.65C828.84 840.437 831.908 840.607 834.919 841.155" stroke="white" stroke-width="5.75625" stroke-linecap="round" stroke-linejoin="round"/>
<path d="M794.208 864.66C796.437 858.568 800.24 853.175 805.229 849.03" stroke="white" stroke-width="5.75625" stroke-linecap="round" stroke-linejoin="round"/>
<path d="M798.22 833.264C804.161 829.165 810.866 826.305 817.936 824.854C825.006 823.404 832.295 823.392 839.369 824.821" stroke="white" stroke-width="5.75625" stroke-linecap="round" stroke-linejoin="round"/>
<path d="M777.837 860.347C779.812 854.453 782.801 848.948 786.669 844.081" stroke="white" stroke-width="5.75625" stroke-linecap="round" stroke-linejoin="round"/>
<path d="M810.45 869.085C812.191 865.284 815.072 862.118 818.693 860.027C822.315 857.936 826.497 857.024 830.66 857.417" stroke="white" stroke-width="5.75625" stroke-linecap="round" stroke-linejoin="round"/>
<path d="M827.071 874.572L827.101 874.555" stroke="white" stroke-width="5.75625" stroke-linecap="round" stroke-linejoin="round"/>
</g>
<g clip-path="url(#clip12_799_2237)" filter="url(#filter33_f_799_2237)">
<path d="M763.185 837.789L864.095 864.827" stroke="white" stroke-width="5.75625" stroke-linecap="round" stroke-linejoin="round"/>
<path d="M825.787 840.65C828.84 840.437 831.908 840.607 834.919 841.155" stroke="white" stroke-width="5.75625" stroke-linecap="round" stroke-linejoin="round"/>
<path d="M794.208 864.66C796.437 858.568 800.24 853.175 805.229 849.03" stroke="white" stroke-width="5.75625" stroke-linecap="round" stroke-linejoin="round"/>
<path d="M798.22 833.264C804.161 829.165 810.866 826.305 817.936 824.854C825.006 823.404 832.295 823.392 839.369 824.821" stroke="white" stroke-width="5.75625" stroke-linecap="round" stroke-linejoin="round"/>
<path d="M777.837 860.347C779.812 854.453 782.801 848.948 786.669 844.081" stroke="white" stroke-width="5.75625" stroke-linecap="round" stroke-linejoin="round"/>
<path d="M810.45 869.085C812.191 865.284 815.072 862.118 818.693 860.027C822.315 857.936 826.497 857.024 830.66 857.417" stroke="white" stroke-width="5.75625" stroke-linecap="round" stroke-linejoin="round"/>
<path d="M827.071 874.572L827.101 874.555" stroke="white" stroke-width="5.75625" stroke-linecap="round" stroke-linejoin="round"/>
</g>
</g>
</g>
<g filter="url(#filter34_d_799_2237)">
<g clip-path="url(#clip13_799_2237)">
<circle cx="478.284" cy="296.176" r="48.5" fill="#00E35B" stroke="#006B2B" stroke-width="3"/>
<g filter="url(#filter35_f_799_2237)">
<path d="M491.043 273.26L511.209 237.369L532.111 276.122L491.043 273.26Z" fill="white"/>
</g>
<g clip-path="url(#clip14_799_2237)">
<g filter="url(#filter36_d_799_2237)">
<path d="M494.914 316.132V311.861C494.914 309.596 494.014 307.423 492.412 305.821C490.81 304.219 488.637 303.319 486.372 303.319H469.288C467.022 303.319 464.85 304.219 463.248 305.821C461.646 307.423 460.746 309.596 460.746 311.861V316.132" stroke="white" stroke-width="4.5" stroke-linecap="round" stroke-linejoin="round" shape-rendering="crispEdges"/>
</g>
<g filter="url(#filter37_d_799_2237)">
<path d="M477.83 294.777C482.547 294.777 486.372 290.953 486.372 286.235C486.372 281.517 482.547 277.693 477.83 277.693C473.112 277.693 469.288 281.517 469.288 286.235C469.288 290.953 473.112 294.777 477.83 294.777Z" stroke="white" stroke-width="4.5" stroke-linecap="round" stroke-linejoin="round" shape-rendering="crispEdges"/>
</g>
</g>
</g>
</g>
<g filter="url(#filter38_d_799_2237)">
<path d="M382.671 469.481V432.458C382.671 430.331 384.395 428.607 386.522 428.607H562.855C566.165 428.607 567.933 432.508 565.75 434.997L458.044 557.812H567.503C569.63 557.812 571.354 559.536 571.354 561.663V597.444C571.354 599.571 569.63 601.295 567.503 601.295H428.41C425.099 601.295 423.332 597.394 425.515 594.905L458.044 557.812H401.224C397.894 557.812 396.134 553.871 398.357 551.391L462.568 479.753C464.791 477.273 463.031 473.332 459.701 473.332H386.522C384.395 473.332 382.671 471.608 382.671 469.481Z" fill="#00E35B"/>
</g>
<defs>
<filter id="filter0_f_799_2237" x="5.46254" y="43.1305" width="944.025" height="944.025" filterUnits="userSpaceOnUse" color-interpolation-filters="sRGB">
<feFlood flood-opacity="0" result="BackgroundImageFix"/>
<feBlend mode="normal" in="SourceGraphic" in2="BackgroundImageFix" result="shape"/>
<feGaussianBlur stdDeviation="5.75625" result="effect1_foregroundBlur_799_2237"/>
</filter>
<filter id="filter1_d_799_2237" x="630.762" y="-0.00012207" width="310.247" height="309.022" filterUnits="userSpaceOnUse" color-interpolation-filters="sRGB">
<feFlood flood-opacity="0" result="BackgroundImageFix"/>
<feColorMatrix in="SourceAlpha" type="matrix" values="0 0 0 0 0 0 0 0 0 0 0 0 0 0 0 0 0 0 127 0" result="hardAlpha"/>
<feOffset/>
<feGaussianBlur stdDeviation="10"/>
<feComposite in2="hardAlpha" operator="out"/>
<feColorMatrix type="matrix" values="0 0 0 0 0 0 0 0 0 0 0 0 0 0 0 0 0 0 1 0"/>
<feBlend mode="normal" in2="BackgroundImageFix" result="effect1_dropShadow_799_2237"/>
<feBlend mode="normal" in="SourceGraphic" in2="effect1_dropShadow_799_2237" result="shape"/>
</filter>
<filter id="filter2_f_799_2237" x="635.474" y="31.5898" width="230.462" height="164.06" filterUnits="userSpaceOnUse" color-interpolation-filters="sRGB">
<feFlood flood-opacity="0" result="BackgroundImageFix"/>
<feBlend mode="normal" in="SourceGraphic" in2="BackgroundImageFix" result="shape"/>
<feGaussianBlur stdDeviation="4.78193" result="effect1_foregroundBlur_799_2237"/>
</filter>
<filter id="filter3_f_799_2237" x="649.124" y="52.3741" width="230.462" height="164.06" filterUnits="userSpaceOnUse" color-interpolation-filters="sRGB">
<feFlood flood-opacity="0" result="BackgroundImageFix"/>
<feBlend mode="normal" in="SourceGraphic" in2="BackgroundImageFix" result="shape"/>
<feGaussianBlur stdDeviation="4.78193" result="effect1_foregroundBlur_799_2237"/>
</filter>
<filter id="filter4_f_799_2237" x="677.816" y="102.069" width="230.462" height="164.06" filterUnits="userSpaceOnUse" color-interpolation-filters="sRGB">
<feFlood flood-opacity="0" result="BackgroundImageFix"/>
<feBlend mode="normal" in="SourceGraphic" in2="BackgroundImageFix" result="shape"/>
<feGaussianBlur stdDeviation="4.78193" result="effect1_foregroundBlur_799_2237"/>
</filter>
<filter id="filter5_f_799_2237" x="670.65" y="85.1495" width="230.462" height="164.06" filterUnits="userSpaceOnUse" color-interpolation-filters="sRGB">
<feFlood flood-opacity="0" result="BackgroundImageFix"/>
<feBlend mode="normal" in="SourceGraphic" in2="BackgroundImageFix" result="shape"/>
<feGaussianBlur stdDeviation="4.78193" result="effect1_foregroundBlur_799_2237"/>
</filter>
<filter id="filter6_f_799_2237" x="692.229" y="132.767" width="247.483" height="170.294" filterUnits="userSpaceOnUse" color-interpolation-filters="sRGB">
<feFlood flood-opacity="0" result="BackgroundImageFix"/>
<feBlend mode="normal" in="SourceGraphic" in2="BackgroundImageFix" result="shape"/>
<feGaussianBlur stdDeviation="4.78193" result="effect1_foregroundBlur_799_2237"/>
</filter>
<filter id="filter7_f_799_2237" x="620.773" y="9.20658" width="243.305" height="183.615" filterUnits="userSpaceOnUse" color-interpolation-filters="sRGB">
<feFlood flood-opacity="0" result="BackgroundImageFix"/>
<feBlend mode="normal" in="SourceGraphic" in2="BackgroundImageFix" result="shape"/>
<feGaussianBlur stdDeviation="4.78193" result="effect1_foregroundBlur_799_2237"/>
</filter>
<filter id="filter8_f_799_2237" x="689.55" y="113.928" width="230.462" height="164.06" filterUnits="userSpaceOnUse" color-interpolation-filters="sRGB">
<feFlood flood-opacity="0" result="BackgroundImageFix"/>
<feBlend mode="normal" in="SourceGraphic" in2="BackgroundImageFix" result="shape"/>
<feGaussianBlur stdDeviation="4.78193" result="effect1_foregroundBlur_799_2237"/>
</filter>
<filter id="filter9_d_799_2237" x="733.702" y="103.371" width="99.7065" height="110.483" filterUnits="userSpaceOnUse" color-interpolation-filters="sRGB">
<feFlood flood-opacity="0" result="BackgroundImageFix"/>
<feColorMatrix in="SourceAlpha" type="matrix" values="0 0 0 0 0 0 0 0 0 0 0 0 0 0 0 0 0 0 127 0" result="hardAlpha"/>
<feOffset/>
<feGaussianBlur stdDeviation="2.14677"/>
<feComposite in2="hardAlpha" operator="out"/>
<feColorMatrix type="matrix" values="0 0 0 0 0 0 0 0 0 0 0 0 0 0 0 0 0 0 0.2 0"/>
<feBlend mode="normal" in2="BackgroundImageFix" result="effect1_dropShadow_799_2237"/>
<feBlend mode="normal" in="SourceGraphic" in2="effect1_dropShadow_799_2237" result="shape"/>
</filter>
<filter id="filter10_f_799_2237" x="710.34" y="-47.6752" width="215.015" height="222.055" filterUnits="userSpaceOnUse" color-interpolation-filters="sRGB">
<feFlood flood-opacity="0" result="BackgroundImageFix"/>
<feBlend mode="normal" in="SourceGraphic" in2="BackgroundImageFix" result="shape"/>
<feGaussianBlur stdDeviation="35.8645" result="effect1_foregroundBlur_799_2237"/>
</filter>
<filter id="filter11_d_799_2237" x="0" y="425.639" width="288.538" height="285.723" filterUnits="userSpaceOnUse" color-interpolation-filters="sRGB">
<feFlood flood-opacity="0" result="BackgroundImageFix"/>
<feColorMatrix in="SourceAlpha" type="matrix" values="0 0 0 0 0 0 0 0 0 0 0 0 0 0 0 0 0 0 127 0" result="hardAlpha"/>
<feOffset/>
<feGaussianBlur stdDeviation="20"/>
<feComposite in2="hardAlpha" operator="out"/>
<feColorMatrix type="matrix" values="0 0 0 0 0 0 0 0 0 0 0 0 0 0 0 0 0 0 1 0"/>
<feBlend mode="normal" in2="BackgroundImageFix" result="effect1_dropShadow_799_2237"/>
<feBlend mode="normal" in="SourceGraphic" in2="effect1_dropShadow_799_2237" result="shape"/>
</filter>
<filter id="filter12_f_799_2237" x="65.8398" y="477.794" width="185.993" height="107.421" filterUnits="userSpaceOnUse" color-interpolation-filters="sRGB">
<feFlood flood-opacity="0" result="BackgroundImageFix"/>
<feBlend mode="normal" in="SourceGraphic" in2="BackgroundImageFix" result="shape"/>
<feGaussianBlur stdDeviation="3.65677" result="effect1_foregroundBlur_799_2237"/>
</filter>
<filter id="filter13_f_799_2237" x="57.2946" y="494.781" width="185.993" height="107.421" filterUnits="userSpaceOnUse" color-interpolation-filters="sRGB">
<feFlood flood-opacity="0" result="BackgroundImageFix"/>
<feBlend mode="normal" in="SourceGraphic" in2="BackgroundImageFix" result="shape"/>
<feGaussianBlur stdDeviation="3.65677" result="effect1_foregroundBlur_799_2237"/>
</filter>
<filter id="filter14_f_799_2237" x="43.8192" y="521.568" width="185.993" height="107.421" filterUnits="userSpaceOnUse" color-interpolation-filters="sRGB">
<feFlood flood-opacity="0" result="BackgroundImageFix"/>
<feBlend mode="normal" in="SourceGraphic" in2="BackgroundImageFix" result="shape"/>
<feGaussianBlur stdDeviation="3.65677" result="effect1_foregroundBlur_799_2237"/>
</filter>
<filter id="filter15_f_799_2237" x="24.9405" y="544.797" width="189.252" height="130.225" filterUnits="userSpaceOnUse" color-interpolation-filters="sRGB">
<feFlood flood-opacity="0" result="BackgroundImageFix"/>
<feBlend mode="normal" in="SourceGraphic" in2="BackgroundImageFix" result="shape"/>
<feGaussianBlur stdDeviation="3.65677" result="effect1_foregroundBlur_799_2237"/>
</filter>
<filter id="filter16_f_799_2237" x="67.0026" y="459.501" width="194.033" height="123.404" filterUnits="userSpaceOnUse" color-interpolation-filters="sRGB">
<feFlood flood-opacity="0" result="BackgroundImageFix"/>
<feBlend mode="normal" in="SourceGraphic" in2="BackgroundImageFix" result="shape"/>
<feGaussianBlur stdDeviation="3.65677" result="effect1_foregroundBlur_799_2237"/>
</filter>
<filter id="filter17_f_799_2237" x="124.23" y="459.13" width="161.404" height="173.963" filterUnits="userSpaceOnUse" color-interpolation-filters="sRGB">
<feFlood flood-opacity="0" result="BackgroundImageFix"/>
<feBlend mode="normal" in="SourceGraphic" in2="BackgroundImageFix" result="shape"/>
<feGaussianBlur stdDeviation="27.4258" result="effect1_foregroundBlur_799_2237"/>
</filter>
<filter id="filter18_f_799_2237" x="81.5859" y="510.283" width="116.516" height="116.516" filterUnits="userSpaceOnUse" color-interpolation-filters="sRGB">
<feFlood flood-opacity="0" result="BackgroundImageFix"/>
<feBlend mode="normal" in="SourceGraphic" in2="BackgroundImageFix" result="shape"/>
<feGaussianBlur stdDeviation="2.24886" result="effect1_foregroundBlur_799_2237"/>
</filter>
<filter id="filter19_d_799_2237" x="697.712" y="713.252" width="252.426" height="251.357" filterUnits="userSpaceOnUse" color-interpolation-filters="sRGB">
<feFlood flood-opacity="0" result="BackgroundImageFix"/>
<feColorMatrix in="SourceAlpha" type="matrix" values="0 0 0 0 0 0 0 0 0 0 0 0 0 0 0 0 0 0 127 0" result="hardAlpha"/>
<feOffset dx="7.87102" dy="-8.99545"/>
<feGaussianBlur stdDeviation="11.2443"/>
<feComposite in2="hardAlpha" operator="out"/>
<feColorMatrix type="matrix" values="0 0 0 0 0 0 0 0 0 0 0 0 0 0 0 0 0 0 0.35 0"/>
<feBlend mode="normal" in2="BackgroundImageFix" result="effect1_dropShadow_799_2237"/>
<feBlend mode="normal" in="SourceGraphic" in2="effect1_dropShadow_799_2237" result="shape"/>
</filter>
<filter id="filter20_f_799_2237" x="703.256" y="753.599" width="176.235" height="125.458" filterUnits="userSpaceOnUse" color-interpolation-filters="sRGB">
<feFlood flood-opacity="0" result="BackgroundImageFix"/>
<feBlend mode="normal" in="SourceGraphic" in2="BackgroundImageFix" result="shape"/>
<feGaussianBlur stdDeviation="3.65677" result="effect1_foregroundBlur_799_2237"/>
</filter>
<filter id="filter21_f_799_2237" x="713.695" y="769.492" width="176.235" height="125.458" filterUnits="userSpaceOnUse" color-interpolation-filters="sRGB">
<feFlood flood-opacity="0" result="BackgroundImageFix"/>
<feBlend mode="normal" in="SourceGraphic" in2="BackgroundImageFix" result="shape"/>
<feGaussianBlur stdDeviation="3.65677" result="effect1_foregroundBlur_799_2237"/>
</filter>
<filter id="filter22_f_799_2237" x="730.155" y="794.556" width="176.235" height="125.458" filterUnits="userSpaceOnUse" color-interpolation-filters="sRGB">
<feFlood flood-opacity="0" result="BackgroundImageFix"/>
<feBlend mode="normal" in="SourceGraphic" in2="BackgroundImageFix" result="shape"/>
<feGaussianBlur stdDeviation="3.65677" result="effect1_foregroundBlur_799_2237"/>
</filter>
<filter id="filter23_f_799_2237" x="745.014" y="824.426" width="189.252" height="130.225" filterUnits="userSpaceOnUse" color-interpolation-filters="sRGB">
<feFlood flood-opacity="0" result="BackgroundImageFix"/>
<feBlend mode="normal" in="SourceGraphic" in2="BackgroundImageFix" result="shape"/>
<feGaussianBlur stdDeviation="3.65677" result="effect1_foregroundBlur_799_2237"/>
</filter>
<filter id="filter24_f_799_2237" x="692.015" y="736.482" width="186.057" height="140.412" filterUnits="userSpaceOnUse" color-interpolation-filters="sRGB">
<feFlood flood-opacity="0" result="BackgroundImageFix"/>
<feBlend mode="normal" in="SourceGraphic" in2="BackgroundImageFix" result="shape"/>
<feGaussianBlur stdDeviation="3.65677" result="effect1_foregroundBlur_799_2237"/>
</filter>
<filter id="filter25_f_799_2237" x="757.319" y="690.408" width="164.423" height="169.807" filterUnits="userSpaceOnUse" color-interpolation-filters="sRGB">
<feFlood flood-opacity="0" result="BackgroundImageFix"/>
<feBlend mode="normal" in="SourceGraphic" in2="BackgroundImageFix" result="shape"/>
<feGaussianBlur stdDeviation="27.4258" result="effect1_foregroundBlur_799_2237"/>
</filter>
<filter id="filter26_d_799_2237" x="672.33" y="704.736" width="287.449" height="286.38" filterUnits="userSpaceOnUse" color-interpolation-filters="sRGB">
<feFlood flood-opacity="0" result="BackgroundImageFix"/>
<feColorMatrix in="SourceAlpha" type="matrix" values="0 0 0 0 0 0 0 0 0 0 0 0 0 0 0 0 0 0 127 0" result="hardAlpha"/>
<feOffset/>
<feGaussianBlur stdDeviation="20"/>
<feComposite in2="hardAlpha" operator="out"/>
<feColorMatrix type="matrix" values="0 0 0 0 0 0 0 0 0 0 0 0 0 0 0 0 0 0 1 0"/>
<feBlend mode="normal" in2="BackgroundImageFix" result="effect1_dropShadow_799_2237"/>
<feBlend mode="normal" in="SourceGraphic" in2="effect1_dropShadow_799_2237" result="shape"/>
</filter>
<filter id="filter27_f_799_2237" x="703.256" y="753.599" width="176.235" height="125.458" filterUnits="userSpaceOnUse" color-interpolation-filters="sRGB">
<feFlood flood-opacity="0" result="BackgroundImageFix"/>
<feBlend mode="normal" in="SourceGraphic" in2="BackgroundImageFix" result="shape"/>
<feGaussianBlur stdDeviation="3.65677" result="effect1_foregroundBlur_799_2237"/>
</filter>
<filter id="filter28_f_799_2237" x="713.695" y="769.492" width="176.235" height="125.458" filterUnits="userSpaceOnUse" color-interpolation-filters="sRGB">
<feFlood flood-opacity="0" result="BackgroundImageFix"/>
<feBlend mode="normal" in="SourceGraphic" in2="BackgroundImageFix" result="shape"/>
<feGaussianBlur stdDeviation="3.65677" result="effect1_foregroundBlur_799_2237"/>
</filter>
<filter id="filter29_f_799_2237" x="730.155" y="794.556" width="176.235" height="125.458" filterUnits="userSpaceOnUse" color-interpolation-filters="sRGB">
<feFlood flood-opacity="0" result="BackgroundImageFix"/>
<feBlend mode="normal" in="SourceGraphic" in2="BackgroundImageFix" result="shape"/>
<feGaussianBlur stdDeviation="3.65677" result="effect1_foregroundBlur_799_2237"/>
</filter>
<filter id="filter30_f_799_2237" x="745.014" y="824.426" width="189.252" height="130.225" filterUnits="userSpaceOnUse" color-interpolation-filters="sRGB">
<feFlood flood-opacity="0" result="BackgroundImageFix"/>
<feBlend mode="normal" in="SourceGraphic" in2="BackgroundImageFix" result="shape"/>
<feGaussianBlur stdDeviation="3.65677" result="effect1_foregroundBlur_799_2237"/>
</filter>
<filter id="filter31_f_799_2237" x="692.015" y="736.482" width="186.057" height="140.412" filterUnits="userSpaceOnUse" color-interpolation-filters="sRGB">
<feFlood flood-opacity="0" result="BackgroundImageFix"/>
<feBlend mode="normal" in="SourceGraphic" in2="BackgroundImageFix" result="shape"/>
<feGaussianBlur stdDeviation="3.65677" result="effect1_foregroundBlur_799_2237"/>
</filter>
<filter id="filter32_f_799_2237" x="757.319" y="690.408" width="164.423" height="169.807" filterUnits="userSpaceOnUse" color-interpolation-filters="sRGB">
<feFlood flood-opacity="0" result="BackgroundImageFix"/>
<feBlend mode="normal" in="SourceGraphic" in2="BackgroundImageFix" result="shape"/>
<feGaussianBlur stdDeviation="27.4258" result="effect1_foregroundBlur_799_2237"/>
</filter>
<filter id="filter33_f_799_2237" x="753.993" y="791.661" width="119.295" height="119.294" filterUnits="userSpaceOnUse" color-interpolation-filters="sRGB">
<feFlood flood-opacity="0" result="BackgroundImageFix"/>
<feBlend mode="normal" in="SourceGraphic" in2="BackgroundImageFix" result="shape"/>
<feGaussianBlur stdDeviation="2.3025" result="effect1_foregroundBlur_799_2237"/>
</filter>
<filter id="filter34_d_799_2237" x="378.284" y="216.176" width="200" height="200" filterUnits="userSpaceOnUse" color-interpolation-filters="sRGB">
<feFlood flood-opacity="0" result="BackgroundImageFix"/>
<feColorMatrix in="SourceAlpha" type="matrix" values="0 0 0 0 0 0 0 0 0 0 0 0 0 0 0 0 0 0 127 0" result="hardAlpha"/>
<feOffset dy="20"/>
<feGaussianBlur stdDeviation="25"/>
<feComposite in2="hardAlpha" operator="out"/>
<feColorMatrix type="matrix" values="0 0 0 0 0 0 0 0 0 0.890196 0 0 0 0 0.356863 0 0 0 0.3 0"/>
<feBlend mode="normal" in2="BackgroundImageFix" result="effect1_dropShadow_799_2237"/>
<feBlend mode="normal" in="SourceGraphic" in2="effect1_dropShadow_799_2237" result="shape"/>
</filter>
<filter id="filter35_f_799_2237" x="453.475" y="199.801" width="116.205" height="113.889" filterUnits="userSpaceOnUse" color-interpolation-filters="sRGB">
<feFlood flood-opacity="0" result="BackgroundImageFix"/>
<feBlend mode="normal" in="SourceGraphic" in2="BackgroundImageFix" result="shape"/>
<feGaussianBlur stdDeviation="18.784" result="effect1_foregroundBlur_799_2237"/>
</filter>
<filter id="filter36_d_799_2237" x="453.496" y="300.069" width="48.6682" height="27.3131" filterUnits="userSpaceOnUse" color-interpolation-filters="sRGB">
<feFlood flood-opacity="0" result="BackgroundImageFix"/>
<feColorMatrix in="SourceAlpha" type="matrix" values="0 0 0 0 0 0 0 0 0 0 0 0 0 0 0 0 0 0 127 0" result="hardAlpha"/>
<feOffset dy="4"/>
<feGaussianBlur stdDeviation="2.5"/>
<feComposite in2="hardAlpha" operator="out"/>
<feColorMatrix type="matrix" values="0 0 0 0 0 0 0 0 0 0 0 0 0 0 0 0 0 0 0.3 0"/>
<feBlend mode="normal" in2="BackgroundImageFix" result="effect1_dropShadow_799_2237"/>
<feBlend mode="normal" in="SourceGraphic" in2="effect1_dropShadow_799_2237" result="shape"/>
</filter>
<filter id="filter37_d_799_2237" x="462.038" y="274.443" width="31.5841" height="31.5841" filterUnits="userSpaceOnUse" color-interpolation-filters="sRGB">
<feFlood flood-opacity="0" result="BackgroundImageFix"/>
<feColorMatrix in="SourceAlpha" type="matrix" values="0 0 0 0 0 0 0 0 0 0 0 0 0 0 0 0 0 0 127 0" result="hardAlpha"/>
<feOffset dy="4"/>
<feGaussianBlur stdDeviation="2.5"/>
<feComposite in2="hardAlpha" operator="out"/>
<feColorMatrix type="matrix" values="0 0 0 0 0 0 0 0 0 0 0 0 0 0 0 0 0 0 0.3 0"/>
<feBlend mode="normal" in2="BackgroundImageFix" result="effect1_dropShadow_799_2237"/>
<feBlend mode="normal" in="SourceGraphic" in2="effect1_dropShadow_799_2237" result="shape"/>
</filter>
<filter id="filter38_d_799_2237" x="350.971" y="396.907" width="252.082" height="236.088" filterUnits="userSpaceOnUse" color-interpolation-filters="sRGB">
<feFlood flood-opacity="0" result="BackgroundImageFix"/>
<feColorMatrix in="SourceAlpha" type="matrix" values="0 0 0 0 0 0 0 0 0 0 0 0 0 0 0 0 0 0 127 0" result="hardAlpha"/>
<feOffset/>
<feGaussianBlur stdDeviation="15.85"/>
<feComposite in2="hardAlpha" operator="out"/>
<feColorMatrix type="matrix" values="0 0 0 0 0.293269 0 0 0 0 1 0 0 0 0 0.576584 0 0 0 0.86 0"/>
<feBlend mode="normal" in2="BackgroundImageFix" result="effect1_dropShadow_799_2237"/>
<feBlend mode="normal" in="SourceGraphic" in2="effect1_dropShadow_799_2237" result="shape"/>
</filter>
<linearGradient id="paint0_linear_799_2237" x1="847.334" y1="63.1486" x2="741.175" y2="266.859" gradientUnits="userSpaceOnUse">
<stop stop-color="#20B551"/>
<stop offset="1" stop-color="#0E4F23"/>
</linearGradient>
<linearGradient id="paint1_linear_799_2237" x1="188.491" y1="495.527" x2="107.311" y2="651.305" gradientUnits="userSpaceOnUse">
<stop stop-color="#151515"/>
<stop offset="1" stop-color="#090909"/>
</linearGradient>
<linearGradient id="paint2_linear_799_2237" x1="862.65" y1="778.389" x2="781.469" y2="934.168" gradientUnits="userSpaceOnUse">
<stop stop-color="#151515"/>
<stop offset="1" stop-color="#090909"/>
</linearGradient>
<linearGradient id="paint3_linear_799_2237" x1="862.65" y1="778.389" x2="781.469" y2="934.168" gradientUnits="userSpaceOnUse">
<stop stop-color="#151515"/>
<stop offset="1" stop-color="#090909"/>
</linearGradient>
<clipPath id="clip0_799_2237">
<rect x="657.802" y="115.465" width="190.931" height="190.931" rx="95.4653" transform="rotate(-30 657.802 115.465)" fill="white"/>
</clipPath>
<clipPath id="clip1_799_2237">
<rect x="653.153" y="123.671" width="190.93" height="190.931" rx="95.4652" transform="rotate(-30 653.153 123.671)" fill="white"/>
</clipPath>
<clipPath id="clip2_799_2237">
<rect x="122.093" y="470.685" width="146.006" height="146.006" rx="73.0029" transform="rotate(30 122.093 470.685)" fill="white"/>
</clipPath>
<clipPath id="clip3_799_2237">
<rect x="113.003" y="468.806" width="146.006" height="146.006" rx="73.0028" transform="rotate(30 113.003 468.806)" fill="white"/>
</clipPath>
<clipPath id="clip4_799_2237">
<rect width="78.7102" height="78.7102" fill="white" transform="translate(125.44 514.78) rotate(30.0009)"/>
</clipPath>
<clipPath id="clip5_799_2237">
<rect width="78.7102" height="78.7102" fill="white" transform="translate(125.44 514.78) rotate(30.0009)"/>
</clipPath>
<clipPath id="clip6_799_2237">
<rect x="720.331" y="817.739" width="146.006" height="146.006" rx="73.0029" transform="rotate(-30 720.331 817.739)" fill="white"/>
</clipPath>
<clipPath id="clip7_799_2237">
<rect x="714.158" y="824.671" width="146.006" height="146.006" rx="73.0028" transform="rotate(-30 714.158 824.671)" fill="white"/>
</clipPath>
<clipPath id="clip8_799_2237">
<rect width="80.5875" height="80.5875" fill="white" transform="translate(758.598 836.56) rotate(-30)"/>
</clipPath>
<clipPath id="clip9_799_2237">
<rect x="720.331" y="817.739" width="146.006" height="146.006" rx="73.0029" transform="rotate(-30 720.331 817.739)" fill="white"/>
</clipPath>
<clipPath id="clip10_799_2237">
<rect x="714.158" y="824.671" width="146.006" height="146.006" rx="73.0028" transform="rotate(-30 714.158 824.671)" fill="white"/>
</clipPath>
<clipPath id="clip11_799_2237">
<rect width="80.5875" height="80.5875" fill="white" transform="translate(758.598 836.56) rotate(-30)"/>
</clipPath>
<clipPath id="clip12_799_2237">
<rect width="80.5875" height="80.5875" fill="white" transform="translate(758.598 836.56) rotate(-30)"/>
</clipPath>
<clipPath id="clip13_799_2237">
<rect x="428.284" y="246.176" width="99.9999" height="100" rx="50" fill="white"/>
</clipPath>
<clipPath id="clip14_799_2237">
<rect width="51.2523" height="51.2523" fill="white" transform="translate(452.203 271.286)"/>
</clipPath>
</defs>
</svg>
