<svg width="219" height="59" viewBox="0 0 219 59" fill="none" xmlns="http://www.w3.org/2000/svg">
<g filter="url(#filter0_d_715_1126)">
<g filter="url(#filter1_i_715_1126)">
<rect x="12.4223" y="12.4223" width="33.9251" height="33.9251" rx="7.5389" fill="url(#paint0_linear_715_1126)"/>
</g>
<rect x="12.1962" y="12.1962" width="34.3774" height="34.3774" rx="7.76507" stroke="#008E55" stroke-width="0.452334"/>
<g style="mix-blend-mode:hard-light" opacity="0.4">
<rect x="12.4223" y="12.4223" width="33.9251" height="33.9251" rx="7.5389" fill="url(#paint1_linear_715_1126)"/>
</g>
<path d="M38.8716 19.679C39.4759 19.679 39.7991 20.3907 39.4009 20.845L28.0572 33.7796H39.3794C39.7675 33.7797 40.0824 34.0947 40.0826 34.4827V38.388C40.0826 38.7762 39.7676 39.091 39.3794 39.0911H24.1988C23.5944 39.0911 23.272 38.3795 23.6704 37.9251L26.8091 34.345H21.232C20.6241 34.345 20.302 33.6259 20.7076 33.1732L27.7163 25.3548C27.7956 25.2663 27.7326 25.1254 27.6138 25.1253H19.6265C19.2384 25.1251 18.9243 24.8103 18.9243 24.4222V20.3812C18.9245 19.9932 19.2385 19.6792 19.6265 19.679H38.8716Z" fill="#040B08" stroke="url(#paint2_linear_715_1126)" stroke-width="0.565418"/>
<path d="M62.6031 38.8849V36.6302L72.7743 22.1249L73.6511 23.4276H62.9037V20.8472H76.0311V23.1019L65.9601 37.482L65.1083 36.3045H76.1814V38.8849H62.6031ZM77.0817 44.0207L80.3887 36.6052L80.9649 35.6532L84.5724 26.1082H87.9294L80.2884 44.0207H77.0817ZM79.9127 38.7597L74.7268 26.1082H78.159L82.4931 37.5822L79.9127 38.7597ZM95.4986 39.1354C94.2793 39.1354 93.2856 38.8515 92.5173 38.2837C91.7658 37.6991 91.2981 36.8974 91.1144 35.8786L91.3649 35.8536V44.0207H88.2083V26.1082H91.2898V28.9892L91.0392 28.9391C91.2731 27.9871 91.8075 27.2356 92.6426 26.6844C93.4777 26.1333 94.4965 25.8577 95.699 25.8577C96.8347 25.8577 97.8201 26.1333 98.6551 26.6844C99.5069 27.2189 100.167 27.9788 100.634 28.9642C101.102 29.9496 101.336 31.1103 101.336 32.4465C101.336 33.7993 101.094 34.9768 100.609 35.9788C100.125 36.9809 99.4485 37.7576 98.58 38.3087C97.7115 38.8599 96.6844 39.1354 95.4986 39.1354ZM94.6969 36.53C95.7157 36.53 96.5257 36.1793 97.127 35.4778C97.7282 34.7596 98.0288 33.7575 98.0288 32.4715C98.0288 31.1855 97.7199 30.1918 97.1019 29.4903C96.5006 28.7888 95.6906 28.4381 94.6718 28.4381C93.6697 28.4381 92.8597 28.7972 92.2417 29.5153C91.6238 30.2168 91.3148 31.2105 91.3148 32.4966C91.3148 33.7826 91.6238 34.7763 92.2417 35.4778C92.8597 36.1793 93.6781 36.53 94.6969 36.53ZM109.555 39.1354C108.336 39.1354 107.342 38.8515 106.574 38.2837C105.822 37.6991 105.355 36.8974 105.171 35.8786L105.422 35.8536V44.0207H102.265V26.1082H105.346V28.9892L105.096 28.9391C105.33 27.9871 105.864 27.2356 106.699 26.6844C107.534 26.1333 108.553 25.8577 109.756 25.8577C110.891 25.8577 111.877 26.1333 112.712 26.6844C113.564 27.2189 114.223 27.9788 114.691 28.9642C115.159 29.9496 115.392 31.1103 115.392 32.4465C115.392 33.7993 115.15 34.9768 114.666 35.9788C114.182 36.9809 113.505 37.7576 112.637 38.3087C111.768 38.8599 110.741 39.1354 109.555 39.1354ZM108.754 36.53C109.772 36.53 110.582 36.1793 111.184 35.4778C111.785 34.7596 112.086 33.7575 112.086 32.4715C112.086 31.1855 111.777 30.1918 111.159 29.4903C110.557 28.7888 109.747 28.4381 108.729 28.4381C107.726 28.4381 106.916 28.7972 106.298 29.5153C105.681 30.2168 105.372 31.2105 105.372 32.4966C105.372 33.7826 105.681 34.7763 106.298 35.4778C106.916 36.1793 107.735 36.53 108.754 36.53ZM119.537 38.8849V20.8472H127.629C128.949 20.8472 130.076 21.0727 131.011 21.5236C131.963 21.9746 132.69 22.6092 133.191 23.4276C133.709 24.246 133.968 25.2147 133.968 26.3337C133.968 27.436 133.709 28.4047 133.191 29.2398C132.673 30.0748 131.947 30.7262 131.011 31.1938C130.076 31.6448 128.949 31.8703 127.629 31.8703H122.068V29.3149H127.479C128.515 29.3149 129.308 29.0477 129.859 28.5132C130.427 27.9788 130.711 27.2523 130.711 26.3337C130.711 25.4318 130.427 24.722 129.859 24.2042C129.308 23.6865 128.515 23.4276 127.479 23.4276H122.794V38.8849H119.537ZM134.869 38.8849V26.1082H137.951V29.1897H138.026V38.8849H134.869ZM138.026 32.221L137.7 29.1897C138.001 28.1041 138.51 27.2773 139.228 26.7095C139.947 26.1416 140.807 25.8577 141.809 25.8577C142.16 25.8577 142.41 25.8911 142.56 25.9579V28.9391C142.477 28.9057 142.36 28.889 142.21 28.889C142.059 28.8723 141.876 28.864 141.658 28.864C140.439 28.864 139.529 29.1312 138.928 29.6657C138.327 30.2001 138.026 31.0519 138.026 32.221ZM148.818 39.1354C147.465 39.1354 146.271 38.8515 145.235 38.2837C144.216 37.7158 143.423 36.9308 142.855 35.9287C142.287 34.9099 142.003 33.7492 142.003 32.4465C142.003 31.1437 142.287 29.9997 142.855 29.0143C143.423 28.0289 144.216 27.2606 145.235 26.7095C146.271 26.1416 147.465 25.8577 148.818 25.8577C150.187 25.8577 151.381 26.1416 152.4 26.7095C153.419 27.2606 154.212 28.0289 154.78 29.0143C155.348 29.9997 155.632 31.1437 155.632 32.4465C155.632 33.7492 155.34 34.9099 154.755 35.9287C154.187 36.9308 153.394 37.7158 152.375 38.2837C151.356 38.8515 150.17 39.1354 148.818 39.1354ZM148.818 36.6052C149.486 36.6052 150.087 36.4381 150.621 36.1041C151.156 35.7534 151.573 35.269 151.874 34.6511C152.175 34.0164 152.325 33.2732 152.325 32.4214C152.325 31.1688 151.991 30.1834 151.323 29.4652C150.671 28.7471 149.836 28.388 148.818 28.388C147.799 28.388 146.955 28.7471 146.287 29.4652C145.619 30.1834 145.285 31.1688 145.285 32.4214C145.285 33.2732 145.436 34.0164 145.736 34.6511C146.053 35.269 146.471 35.7534 146.989 36.1041C147.523 36.4381 148.133 36.6052 148.818 36.6052ZM161.894 39.1354C160.324 39.1354 159.163 38.768 158.412 38.0331C157.677 37.2816 157.309 36.1626 157.309 34.6761V23.2021L160.491 22.0247V34.7513C160.491 35.3692 160.658 35.8285 160.992 36.1292C161.326 36.4298 161.852 36.5801 162.57 36.5801C162.854 36.5801 163.105 36.5634 163.322 36.53C163.556 36.4799 163.773 36.4214 163.973 36.3546V38.8098C163.773 38.91 163.489 38.9851 163.122 39.0352C162.754 39.102 162.345 39.1354 161.894 39.1354ZM154.854 28.5884V26.1082H163.973V28.5884H154.854ZM170.252 39.1354C168.899 39.1354 167.705 38.8515 166.67 38.2837C165.651 37.7158 164.857 36.9308 164.29 35.9287C163.722 34.9099 163.438 33.7492 163.438 32.4465C163.438 31.1437 163.722 29.9997 164.29 29.0143C164.857 28.0289 165.651 27.2606 166.67 26.7095C167.705 26.1416 168.899 25.8577 170.252 25.8577C171.622 25.8577 172.816 26.1416 173.835 26.7095C174.853 27.2606 175.647 28.0289 176.214 29.0143C176.782 29.9997 177.066 31.1437 177.066 32.4465C177.066 33.7492 176.774 34.9099 176.189 35.9287C175.622 36.9308 174.828 37.7158 173.809 38.2837C172.791 38.8515 171.605 39.1354 170.252 39.1354ZM170.252 36.6052C170.92 36.6052 171.521 36.4381 172.056 36.1041C172.59 35.7534 173.008 35.269 173.308 34.6511C173.609 34.0164 173.759 33.2732 173.759 32.4214C173.759 31.1688 173.425 30.1834 172.757 29.4652C172.106 28.7471 171.271 28.388 170.252 28.388C169.233 28.388 168.39 28.7471 167.722 29.4652C167.054 30.1834 166.72 31.1688 166.72 32.4214C166.72 33.2732 166.87 34.0164 167.171 34.6511C167.488 35.269 167.905 35.7534 168.423 36.1041C168.958 36.4381 169.567 36.6052 170.252 36.6052ZM183.422 39.1354C182.136 39.1354 181 38.8515 180.014 38.2837C179.046 37.7158 178.277 36.9308 177.71 35.9287C177.158 34.9099 176.883 33.7575 176.883 32.4715C176.883 31.1855 177.158 30.0498 177.71 29.0644C178.277 28.0623 179.046 27.2773 180.014 26.7095C181 26.1416 182.136 25.8577 183.422 25.8577C184.474 25.8577 185.426 26.0581 186.278 26.459C187.129 26.8431 187.831 27.3942 188.382 28.1124C188.933 28.8139 189.284 29.6322 189.434 30.5675H186.403C186.219 29.8828 185.868 29.3483 185.351 28.9642C184.833 28.58 184.207 28.388 183.472 28.388C182.787 28.388 182.194 28.555 181.693 28.889C181.209 29.2231 180.833 29.6991 180.566 30.317C180.298 30.935 180.165 31.6531 180.165 32.4715C180.165 33.3066 180.298 34.0331 180.566 34.6511C180.833 35.269 181.217 35.7534 181.718 36.1041C182.219 36.4381 182.804 36.6052 183.472 36.6052C184.207 36.6052 184.833 36.4131 185.351 36.0289C185.868 35.6448 186.219 35.1104 186.403 34.4256H189.434C189.284 35.3609 188.925 36.1876 188.357 36.9058C187.806 37.6072 187.104 38.1584 186.252 38.5592C185.417 38.9434 184.474 39.1354 183.422 39.1354ZM195.943 39.1354C194.591 39.1354 193.396 38.8515 192.361 38.2837C191.342 37.7158 190.549 36.9308 189.981 35.9287C189.413 34.9099 189.129 33.7492 189.129 32.4465C189.129 31.1437 189.413 29.9997 189.981 29.0143C190.549 28.0289 191.342 27.2606 192.361 26.7095C193.396 26.1416 194.591 25.8577 195.943 25.8577C197.313 25.8577 198.507 26.1416 199.526 26.7095C200.545 27.2606 201.338 28.0289 201.906 29.0143C202.474 29.9997 202.758 31.1437 202.758 32.4465C202.758 33.7492 202.465 34.9099 201.881 35.9287C201.313 36.9308 200.52 37.7158 199.501 38.2837C198.482 38.8515 197.296 39.1354 195.943 39.1354ZM195.943 36.6052C196.611 36.6052 197.213 36.4381 197.747 36.1041C198.282 35.7534 198.699 35.269 199 34.6511C199.3 34.0164 199.451 33.2732 199.451 32.4214C199.451 31.1688 199.117 30.1834 198.449 29.4652C197.797 28.7471 196.962 28.388 195.943 28.388C194.925 28.388 194.081 28.7471 193.413 29.4652C192.745 30.1834 192.411 31.1688 192.411 32.4214C192.411 33.2732 192.561 34.0164 192.862 34.6511C193.179 35.269 193.597 35.7534 194.115 36.1041C194.649 36.4381 195.259 36.6052 195.943 36.6052ZM203.576 38.8849V20.8472H206.733V38.8849H203.576Z" fill="white"/>
</g>
<defs>
<filter id="filter0_d_715_1126" x="9.53674e-07" y="9.53674e-07" width="220.396" height="58.7697" filterUnits="userSpaceOnUse" color-interpolation-filters="sRGB">
<feFlood flood-opacity="0" result="BackgroundImageFix"/>
<feColorMatrix in="SourceAlpha" type="matrix" values="0 0 0 0 0 0 0 0 0 0 0 0 0 0 0 0 0 0 127 0" result="hardAlpha"/>
<feOffset/>
<feGaussianBlur stdDeviation="5.985"/>
<feComposite in2="hardAlpha" operator="out"/>
<feColorMatrix type="matrix" values="0 0 0 0 0 0 0 0 0 0 0 0 0 0 0 0 0 0 0.64 0"/>
<feBlend mode="normal" in2="BackgroundImageFix" result="effect1_dropShadow_715_1126"/>
<feBlend mode="normal" in="SourceGraphic" in2="effect1_dropShadow_715_1126" result="shape"/>
</filter>
<filter id="filter1_i_715_1126" x="11.97" y="11.97" width="34.8297" height="34.8297" filterUnits="userSpaceOnUse" color-interpolation-filters="sRGB">
<feFlood flood-opacity="0" result="BackgroundImageFix"/>
<feBlend mode="normal" in="SourceGraphic" in2="BackgroundImageFix" result="shape"/>
<feColorMatrix in="SourceAlpha" type="matrix" values="0 0 0 0 0 0 0 0 0 0 0 0 0 0 0 0 0 0 127 0" result="hardAlpha"/>
<feOffset/>
<feGaussianBlur stdDeviation="2.714"/>
<feComposite in2="hardAlpha" operator="arithmetic" k2="-1" k3="1"/>
<feColorMatrix type="matrix" values="0 0 0 0 0 0 0 0 0 0 0 0 0 0 0 0 0 0 1 0"/>
<feBlend mode="normal" in2="shape" result="effect1_innerShadow_715_1126"/>
</filter>
<linearGradient id="paint0_linear_715_1126" x1="42.9549" y1="12.4223" x2="19.2073" y2="38.2431" gradientUnits="userSpaceOnUse">
<stop stop-color="#05E2A7"/>
<stop offset="1" stop-color="#005D32"/>
</linearGradient>
<linearGradient id="paint1_linear_715_1126" x1="42.9549" y1="12.4223" x2="19.2073" y2="38.2431" gradientUnits="userSpaceOnUse">
<stop stop-color="#05E2A7"/>
<stop offset="1" stop-color="#005D32"/>
</linearGradient>
<linearGradient id="paint2_linear_715_1126" x1="36.1691" y1="23.7307" x2="23.353" y2="38.8085" gradientUnits="userSpaceOnUse">
<stop stop-color="#056037"/>
<stop offset="1" stop-color="#05FFD1"/>
</linearGradient>
</defs>
</svg>
