<svg width="695" height="304" viewBox="0 0 695 304" fill="none" xmlns="http://www.w3.org/2000/svg" xmlns:xlink="http://www.w3.org/1999/xlink">
<g clip-path="url(#clip0_832_2314)">
<rect opacity="0.06" x="-10" y="-21" width="774" height="325"/>
<path d="M246 45H717V271H417.713L246 45Z" fill="url(#paint0_linear_832_2314)"/>
<rect x="418.05" y="283.838" width="48.4055" height="7.87082" rx="3.93541" fill="#191919"/>
<rect x="475.113" y="283.838" width="48.4055" height="7.87082" rx="3.93541" fill="#191919"/>
<rect x="394.044" y="269.08" width="354.384" height="19.6771" rx="5.90312" fill="#101010"/>
<rect x="570.744" y="275.967" width="50.1765" height="5.90312" rx="1.96771" fill="#1F1F1F"/>
<rect x="474.916" y="275.967" width="82.2501" height="5.90312" rx="1.96771" fill="#1F1F1F"/>
<rect width="48.4055" height="7.87082" rx="3.93541" transform="matrix(-1 0 0 1 227.378 283.838)" fill="#191919"/>
<rect width="48.4055" height="7.87082" rx="3.93541" transform="matrix(-1 0 0 1 170.315 283.838)" fill="#191919"/>
<rect width="354.384" height="19.6771" rx="5.90312" transform="matrix(-1 0 0 1 251.384 269.08)" fill="#101010"/>
<rect width="50.1765" height="5.90312" rx="1.96771" transform="matrix(-1 0 0 1 74.6839 275.967)" fill="#1F1F1F"/>
<rect width="82.2501" height="5.90312" rx="1.96771" transform="matrix(-1 0 0 1 170.511 275.967)" fill="#1F1F1F"/>
<path d="M410 43H-61.0001V269H238.287L410 43Z" fill="url(#paint1_linear_832_2314)"/>
<g opacity="0.9" filter="url(#filter0_d_832_2314)">
<circle cx="107.026" cy="120.991" r="35.0252" fill="#27C272" fill-opacity="0.5"/>
<path d="M141.923 117.043C141.923 136.105 126.47 151.558 107.407 151.558C88.3448 151.558 72.8916 136.105 72.8916 117.043" stroke="black" stroke-opacity="0.2" stroke-width="4.92784"/>
<g filter="url(#filter1_f_832_2314)">
<circle cx="107.025" cy="120.864" r="31.5863" stroke="#135C2F" stroke-width="5.09457"/>
</g>
<circle cx="107.026" cy="120.864" r="32.4779" stroke="#3ADA7D" stroke-width="5.09457"/>
<g filter="url(#filter2_d_832_2314)">
<path fill-rule="evenodd" clip-rule="evenodd" d="M121.395 111.017C121.816 111.438 122.053 112.009 122.053 112.604C122.053 113.2 121.816 113.771 121.395 114.192L104.563 131.025C104.34 131.247 104.076 131.424 103.785 131.544C103.495 131.665 103.183 131.727 102.869 131.727C102.554 131.727 102.242 131.665 101.952 131.544C101.661 131.424 101.397 131.247 101.175 131.025L92.8114 122.663C92.5969 122.456 92.4258 122.208 92.3081 121.934C92.1904 121.66 92.1285 121.366 92.1259 121.067C92.1233 120.769 92.1801 120.473 92.293 120.197C92.4059 119.921 92.5727 119.671 92.7835 119.46C92.9944 119.249 93.2451 119.082 93.5211 118.969C93.7971 118.856 94.0928 118.8 94.391 118.802C94.6892 118.805 94.9839 118.867 95.2579 118.984C95.5319 119.102 95.7797 119.273 95.9869 119.488L102.868 126.369L118.218 111.017C118.427 110.808 118.674 110.642 118.947 110.529C119.22 110.417 119.512 110.358 119.807 110.358C120.102 110.358 120.394 110.417 120.666 110.529C120.939 110.642 121.187 110.808 121.395 111.017Z" fill="#36D982"/>
</g>
</g>
<path opacity="0.9" d="M68.873 203.345C66.5346 203.345 64.4704 202.926 62.6805 202.089C60.8906 201.252 59.4904 200.054 58.4799 198.495C57.4695 196.936 56.9643 195.059 56.9643 192.865V191.653H62.5939V192.865C62.5939 194.684 63.1568 196.055 64.2828 196.979C65.4087 197.874 66.9388 198.321 68.873 198.321C70.8362 198.321 72.2941 197.932 73.2468 197.152C74.2284 196.373 74.7192 195.377 74.7192 194.164C74.7192 193.327 74.4738 192.649 73.983 192.129C73.5211 191.609 72.8282 191.191 71.9044 190.873C71.0094 190.527 69.9124 190.209 68.6132 189.92L67.6172 189.704C65.5386 189.242 63.7487 188.665 62.2474 187.972C60.7751 187.25 59.6347 186.312 58.8264 185.157C58.0469 184.002 57.6571 182.501 57.6571 180.653C57.6571 178.805 58.0902 177.232 58.9563 175.933C59.8513 174.605 61.0926 173.595 62.6805 172.902C64.2972 172.18 66.1882 171.819 68.3534 171.819C70.5186 171.819 72.4385 172.194 74.1129 172.945C75.8162 173.667 77.1442 174.764 78.0969 176.236C79.0785 177.68 79.5693 179.498 79.5693 181.692V182.992H73.9397V181.692C73.9397 180.538 73.7087 179.614 73.2468 178.921C72.8138 178.199 72.1786 177.68 71.3414 177.362C70.5042 177.016 69.5082 176.842 68.3534 176.842C66.6212 176.842 65.3365 177.174 64.4993 177.838C63.6909 178.473 63.2868 179.354 63.2868 180.48C63.2868 181.231 63.4744 181.866 63.8497 182.385C64.2539 182.905 64.8457 183.338 65.6252 183.684C66.4047 184.031 67.4007 184.334 68.6132 184.594L69.6092 184.81C71.7745 185.272 73.651 185.864 75.2388 186.586C76.8555 187.308 78.1114 188.26 79.0063 189.444C79.9013 190.628 80.3488 192.143 80.3488 193.991C80.3488 195.839 79.8724 197.47 78.9197 198.884C77.9959 200.27 76.6679 201.367 74.9357 202.176C73.2324 202.955 71.2115 203.345 68.873 203.345ZM92.8398 203.345C90.7034 203.345 88.8125 202.897 87.1669 202.002C85.5502 201.079 84.2799 199.794 83.3561 198.148C82.4611 196.474 82.0136 194.511 82.0136 192.259V191.739C82.0136 189.487 82.4611 187.539 83.3561 185.893C84.251 184.219 85.5069 182.934 87.1236 182.039C88.7403 181.115 90.6168 180.653 92.7532 180.653C94.8607 180.653 96.6939 181.13 98.2529 182.082C99.8118 183.006 101.024 184.305 101.89 185.98C102.757 187.625 103.19 189.545 103.19 191.739V193.601H87.5566C87.6144 195.074 88.1629 196.272 89.2022 197.196C90.2415 198.119 91.5118 198.581 93.013 198.581C94.5431 198.581 95.669 198.249 96.3908 197.585C97.1125 196.921 97.661 196.185 98.0363 195.377L102.497 197.715C102.093 198.466 101.501 199.289 100.721 200.184C99.9706 201.05 98.9602 201.8 97.6899 202.435C96.4196 203.042 94.8029 203.345 92.8398 203.345ZM87.5999 189.531H97.6466C97.5311 188.289 97.0259 187.293 96.1309 186.543C95.2649 185.792 94.1245 185.417 92.7099 185.417C91.2375 185.417 90.0683 185.792 89.2022 186.543C88.3361 187.293 87.802 188.289 87.5999 189.531ZM106.314 202.739V181.259H111.684V184.074H112.463C112.81 183.324 113.459 182.616 114.412 181.952C115.365 181.259 116.808 180.913 118.742 180.913C120.417 180.913 121.875 181.303 123.116 182.082C124.386 182.833 125.368 183.887 126.061 185.243C126.754 186.571 127.1 188.13 127.1 189.92V202.739H121.644V190.353C121.644 188.737 121.24 187.524 120.431 186.716C119.652 185.907 118.526 185.503 117.054 185.503C115.379 185.503 114.08 186.066 113.156 187.192C112.232 188.289 111.77 189.834 111.77 191.826V202.739H106.314ZM138.902 202.739C137.488 202.739 136.333 202.305 135.438 201.439C134.572 200.544 134.139 199.361 134.139 197.888V185.763H128.769V181.259H134.139V174.591H139.595V181.259H145.485V185.763H139.595V196.936C139.595 197.802 139.999 198.235 140.808 198.235H144.965V202.739H138.902ZM149.341 192.778V172.425H154.884V192.778H149.341ZM152.113 203.345C150.958 203.345 149.976 202.969 149.168 202.219C148.388 201.439 147.999 200.443 147.999 199.231C147.999 198.018 148.388 197.037 149.168 196.286C149.976 195.507 150.958 195.117 152.113 195.117C153.296 195.117 154.278 195.507 155.057 196.286C155.837 197.037 156.227 198.018 156.227 199.231C156.227 200.443 155.837 201.439 155.057 202.219C154.278 202.969 153.296 203.345 152.113 203.345Z" fill="#A2FFBF"/>
<g opacity="0.9" filter="url(#filter3_d_832_2314)">
<circle cx="557.65" cy="120.991" r="35.0252" fill="#27C272" fill-opacity="0.5"/>
<path d="M592.548 117.043C592.548 136.105 577.095 151.558 558.032 151.558C538.97 151.558 523.517 136.105 523.517 117.043" stroke="black" stroke-opacity="0.2" stroke-width="4.92784"/>
<g filter="url(#filter4_f_832_2314)">
<circle cx="557.65" cy="120.864" r="31.5863" stroke="#135C2F" stroke-width="5.09457"/>
</g>
<circle cx="557.65" cy="120.864" r="32.4779" stroke="#3ADA7D" stroke-width="5.09457"/>
<g filter="url(#filter5_d_832_2314)">
<path fill-rule="evenodd" clip-rule="evenodd" d="M572.02 111.017C572.441 111.438 572.678 112.009 572.678 112.604C572.678 113.2 572.441 113.771 572.02 114.192L555.187 131.025C554.965 131.247 554.701 131.424 554.41 131.544C554.12 131.665 553.808 131.727 553.493 131.727C553.179 131.727 552.867 131.665 552.577 131.544C552.286 131.424 552.022 131.247 551.799 131.025L543.436 122.663C543.222 122.456 543.051 122.208 542.933 121.934C542.815 121.66 542.753 121.366 542.751 121.067C542.748 120.769 542.805 120.473 542.918 120.197C543.031 119.921 543.198 119.671 543.408 119.46C543.619 119.249 543.87 119.082 544.146 118.969C544.422 118.856 544.718 118.8 545.016 118.802C545.314 118.805 545.609 118.867 545.883 118.984C546.157 119.102 546.405 119.273 546.612 119.488L553.493 126.369L568.843 111.017C569.052 110.808 569.299 110.642 569.572 110.529C569.844 110.417 570.137 110.358 570.432 110.358C570.727 110.358 571.019 110.417 571.291 110.529C571.564 110.642 571.812 110.808 572.02 111.017Z" fill="#36D982"/>
</g>
</g>
<path opacity="0.9" d="M466.026 202.739V172.425H479.191C481.096 172.425 482.756 172.757 484.171 173.421C485.585 174.085 486.682 175.024 487.462 176.236C488.241 177.449 488.631 178.878 488.631 180.523V181.043C488.631 182.862 488.198 184.334 487.332 185.46C486.466 186.586 485.398 187.409 484.127 187.928V188.708C485.282 188.766 486.177 189.17 486.812 189.92C487.448 190.642 487.765 191.609 487.765 192.822V202.739H482.049V193.645C482.049 192.952 481.861 192.389 481.486 191.956C481.139 191.523 480.548 191.306 479.71 191.306H471.742V202.739H466.026ZM471.742 186.11H478.584C479.941 186.11 480.995 185.749 481.746 185.027C482.525 184.276 482.915 183.295 482.915 182.082V181.649C482.915 180.437 482.54 179.47 481.789 178.748C481.038 177.997 479.97 177.622 478.584 177.622H471.742V186.11ZM501.615 203.345C499.479 203.345 497.588 202.897 495.943 202.002C494.326 201.079 493.056 199.794 492.132 198.148C491.237 196.474 490.789 194.511 490.789 192.259V191.739C490.789 189.487 491.237 187.539 492.132 185.893C493.027 184.219 494.283 182.934 495.899 182.039C497.516 181.115 499.392 180.653 501.529 180.653C503.636 180.653 505.47 181.13 507.029 182.082C508.588 183.006 509.8 184.305 510.666 185.98C511.532 187.625 511.965 189.545 511.965 191.739V193.601H496.332C496.39 195.074 496.939 196.272 497.978 197.196C499.017 198.119 500.287 198.581 501.789 198.581C503.319 198.581 504.445 198.249 505.166 197.585C505.888 196.921 506.437 196.185 506.812 195.377L511.272 197.715C510.868 198.466 510.276 199.289 509.497 200.184C508.746 201.05 507.736 201.8 506.466 202.435C505.195 203.042 503.579 203.345 501.615 203.345ZM496.376 189.531H506.422C506.307 188.289 505.802 187.293 504.907 186.543C504.041 185.792 502.9 185.417 501.486 185.417C500.013 185.417 498.844 185.792 497.978 186.543C497.112 187.293 496.578 188.289 496.376 189.531ZM525.18 203.345C523.101 203.345 521.21 202.912 519.507 202.046C517.832 201.18 516.504 199.924 515.523 198.278C514.541 196.633 514.05 194.641 514.05 192.302V191.696C514.05 189.357 514.541 187.365 515.523 185.72C516.504 184.074 517.832 182.818 519.507 181.952C521.21 181.086 523.101 180.653 525.18 180.653C527.229 180.653 528.99 181.014 530.463 181.736C531.935 182.458 533.119 183.454 534.014 184.724C534.938 185.965 535.544 187.38 535.833 188.968L530.549 190.094C530.434 189.227 530.174 188.448 529.77 187.755C529.366 187.062 528.788 186.514 528.038 186.11C527.316 185.705 526.407 185.503 525.31 185.503C524.212 185.503 523.216 185.749 522.321 186.239C521.455 186.701 520.763 187.409 520.243 188.361C519.752 189.285 519.507 190.426 519.507 191.782V192.215C519.507 193.572 519.752 194.727 520.243 195.68C520.763 196.604 521.455 197.311 522.321 197.802C523.216 198.264 524.212 198.495 525.31 198.495C526.955 198.495 528.196 198.076 529.034 197.239C529.9 196.373 530.448 195.247 530.679 193.861L535.962 195.117C535.587 196.647 534.938 198.047 534.014 199.317C533.119 200.559 531.935 201.54 530.463 202.262C528.99 202.984 527.229 203.345 525.18 203.345ZM548.518 203.345C546.382 203.345 544.491 202.897 542.845 202.002C541.228 201.079 539.958 199.794 539.034 198.148C538.139 196.474 537.692 194.511 537.692 192.259V191.739C537.692 189.487 538.139 187.539 539.034 185.893C539.929 184.219 541.185 182.934 542.802 182.039C544.419 181.115 546.295 180.653 548.431 180.653C550.539 180.653 552.372 181.13 553.931 182.082C555.49 183.006 556.703 184.305 557.569 185.98C558.435 187.625 558.868 189.545 558.868 191.739V193.601H543.235C543.293 195.074 543.841 196.272 544.881 197.196C545.92 198.119 547.19 198.581 548.691 198.581C550.221 198.581 551.347 198.249 552.069 197.585C552.791 196.921 553.339 196.185 553.715 195.377L558.175 197.715C557.771 198.466 557.179 199.289 556.4 200.184C555.649 201.05 554.638 201.8 553.368 202.435C552.098 203.042 550.481 203.345 548.518 203.345ZM543.278 189.531H553.325C553.209 188.289 552.704 187.293 551.809 186.543C550.943 185.792 549.803 185.417 548.388 185.417C546.916 185.417 545.747 185.792 544.881 186.543C544.014 187.293 543.48 188.289 543.278 189.531ZM561.992 202.739V181.259H567.449V202.739H561.992ZM564.72 178.748C563.739 178.748 562.902 178.43 562.209 177.795C561.545 177.16 561.213 176.323 561.213 175.283C561.213 174.244 561.545 173.407 562.209 172.772C562.902 172.137 563.739 171.819 564.72 171.819C565.731 171.819 566.568 172.137 567.232 172.772C567.896 173.407 568.228 174.244 568.228 175.283C568.228 176.323 567.896 177.16 567.232 177.795C566.568 178.43 565.731 178.748 564.72 178.748ZM576.267 202.739L569.424 181.259H575.227L580.207 198.754H580.987L585.967 181.259H591.77L584.927 202.739H576.267ZM602.908 203.345C600.771 203.345 598.88 202.897 597.235 202.002C595.618 201.079 594.348 199.794 593.424 198.148C592.529 196.474 592.082 194.511 592.082 192.259V191.739C592.082 189.487 592.529 187.539 593.424 185.893C594.319 184.219 595.575 182.934 597.191 182.039C598.808 181.115 600.685 180.653 602.821 180.653C604.929 180.653 606.762 181.13 608.321 182.082C609.88 183.006 611.092 184.305 611.958 185.98C612.824 187.625 613.258 189.545 613.258 191.739V193.601H597.625C597.682 195.074 598.231 196.272 599.27 197.196C600.309 198.119 601.58 198.581 603.081 198.581C604.611 198.581 605.737 198.249 606.459 197.585C607.18 196.921 607.729 196.185 608.104 195.377L612.565 197.715C612.16 198.466 611.569 199.289 610.789 200.184C610.039 201.05 609.028 201.8 607.758 202.435C606.488 203.042 604.871 203.345 602.908 203.345ZM597.668 189.531H607.715C607.599 188.289 607.094 187.293 606.199 186.543C605.333 185.792 604.192 185.417 602.778 185.417C601.305 185.417 600.136 185.792 599.27 186.543C598.404 187.293 597.87 188.289 597.668 189.531ZM625.043 203.345C623.339 203.345 621.737 202.926 620.236 202.089C618.764 201.223 617.58 199.967 616.685 198.321C615.79 196.676 615.343 194.684 615.343 192.345V191.653C615.343 189.314 615.79 187.322 616.685 185.676C617.58 184.031 618.764 182.79 620.236 181.952C621.708 181.086 623.311 180.653 625.043 180.653C626.342 180.653 627.425 180.812 628.291 181.13C629.186 181.418 629.907 181.794 630.456 182.255C631.004 182.717 631.423 183.208 631.712 183.728H632.491V172.425H637.948V202.739H632.578V200.14H631.798C631.308 200.949 630.542 201.685 629.503 202.349C628.493 203.013 627.006 203.345 625.043 203.345ZM626.688 198.581C628.363 198.581 629.763 198.047 630.889 196.979C632.015 195.882 632.578 194.294 632.578 192.215V191.782C632.578 189.704 632.015 188.13 630.889 187.062C629.792 185.965 628.392 185.417 626.688 185.417C625.014 185.417 623.614 185.965 622.488 187.062C621.362 188.13 620.799 189.704 620.799 191.782V192.215C620.799 194.294 621.362 195.882 622.488 196.979C623.614 198.047 625.014 198.581 626.688 198.581ZM642.914 192.778V172.425H648.457V192.778H642.914ZM645.686 203.345C644.531 203.345 643.55 202.969 642.741 202.219C641.962 201.439 641.572 200.443 641.572 199.231C641.572 198.018 641.962 197.037 642.741 196.286C643.55 195.507 644.531 195.117 645.686 195.117C646.87 195.117 647.851 195.507 648.631 196.286C649.41 197.037 649.8 198.018 649.8 199.231C649.8 200.443 649.41 201.439 648.631 202.219C647.851 202.969 646.87 203.345 645.686 203.345Z" fill="#A2FFBF"/>
<path opacity="0.6" d="M342.275 100.914L318.347 76.8585C316.353 77.3252 314.497 78.0252 312.78 78.9586C311.062 79.892 309.524 81.0587 308.164 82.4588L302.819 76.9858C304.176 75.6281 305.64 74.4402 307.21 73.422C308.78 72.4037 310.455 71.5128 312.237 70.7491L306.51 65.0215C304.77 65.9125 303.147 66.8993 301.64 67.9821C300.133 69.0648 298.702 70.2841 297.346 71.6401L292 66.1671C293.358 64.8094 294.769 63.5901 296.233 62.5091C297.698 61.428 299.257 60.3988 300.91 59.4213L295.564 54.0755L299.128 50.5117L345.966 97.3505L342.275 100.914ZM322.547 96.8414C320.765 96.8414 319.259 96.216 318.029 94.9653C316.798 93.7145 316.183 92.2186 316.183 90.4774C316.183 88.6955 316.798 87.1893 318.029 85.959C319.259 84.7286 320.765 84.1134 322.547 84.1134C324.329 84.1134 325.835 84.7286 327.065 85.959C328.296 87.1893 328.911 88.6955 328.911 90.4774C328.911 92.2169 328.296 93.7128 327.065 94.9653C325.835 96.2177 324.329 96.843 322.547 96.8414ZM337.566 81.6951L335.72 79.8496L333.875 78.004L324.711 68.8399C328.147 69.1793 331.361 70.0491 334.351 71.4491C337.341 72.8492 339.983 74.6948 342.275 76.9858L337.566 81.6951ZM347.748 71.6401C344.481 68.3732 340.695 65.8175 336.39 63.9728C332.084 62.1281 327.47 61.2049 322.547 61.2032C321.656 61.2032 320.797 61.2354 319.971 61.2999C319.144 61.3644 318.306 61.4594 317.456 61.585L310.965 55.0938C312.831 54.5847 314.73 54.2028 316.662 53.9483C318.593 53.6937 320.555 53.5664 322.547 53.5664C328.572 53.5664 334.193 54.6907 339.412 56.9393C344.63 59.1879 349.191 62.2638 353.094 66.1671L347.748 71.6401Z" fill="#31C56A"/>
</g>
<defs>
<filter id="filter0_d_832_2314" x="69.9512" y="85.3621" width="74.9122" height="71.1302" filterUnits="userSpaceOnUse" color-interpolation-filters="sRGB">
<feFlood flood-opacity="0" result="BackgroundImageFix"/>
<feColorMatrix in="SourceAlpha" type="matrix" values="0 0 0 0 0 0 0 0 0 0 0 0 0 0 0 0 0 0 127 0" result="hardAlpha"/>
<feOffset/>
<feGaussianBlur stdDeviation="0.238239"/>
<feComposite in2="hardAlpha" operator="out"/>
<feColorMatrix type="matrix" values="0 0 0 0 0 0 0 0 0 0 0 0 0 0 0 0 0 0 0.25 0"/>
<feBlend mode="normal" in2="BackgroundImageFix" result="effect1_dropShadow_832_2314"/>
<feBlend mode="normal" in="SourceGraphic" in2="effect1_dropShadow_832_2314" result="shape"/>
</filter>
<filter id="filter1_f_832_2314" x="71.6179" y="85.4563" width="70.8145" height="70.8146" filterUnits="userSpaceOnUse" color-interpolation-filters="sRGB">
<feFlood flood-opacity="0" result="BackgroundImageFix"/>
<feBlend mode="normal" in="SourceGraphic" in2="BackgroundImageFix" result="shape"/>
<feGaussianBlur stdDeviation="0.636821" result="effect1_foregroundBlur_832_2314"/>
</filter>
<filter id="filter2_d_832_2314" x="89.5785" y="107.811" width="35.0215" height="26.4627" filterUnits="userSpaceOnUse" color-interpolation-filters="sRGB">
<feFlood flood-opacity="0" result="BackgroundImageFix"/>
<feColorMatrix in="SourceAlpha" type="matrix" values="0 0 0 0 0 0 0 0 0 0 0 0 0 0 0 0 0 0 127 0" result="hardAlpha"/>
<feOffset/>
<feGaussianBlur stdDeviation="1.27364"/>
<feComposite in2="hardAlpha" operator="out"/>
<feColorMatrix type="matrix" values="0 0 0 0 0 0 0 0 0 0 0 0 0 0 0 0 0 0 0.25 0"/>
<feBlend mode="normal" in2="BackgroundImageFix" result="effect1_dropShadow_832_2314"/>
<feBlend mode="normal" in="SourceGraphic" in2="effect1_dropShadow_832_2314" result="shape"/>
</filter>
<filter id="filter3_d_832_2314" x="520.576" y="85.3621" width="74.9122" height="71.1302" filterUnits="userSpaceOnUse" color-interpolation-filters="sRGB">
<feFlood flood-opacity="0" result="BackgroundImageFix"/>
<feColorMatrix in="SourceAlpha" type="matrix" values="0 0 0 0 0 0 0 0 0 0 0 0 0 0 0 0 0 0 127 0" result="hardAlpha"/>
<feOffset/>
<feGaussianBlur stdDeviation="0.238239"/>
<feComposite in2="hardAlpha" operator="out"/>
<feColorMatrix type="matrix" values="0 0 0 0 0 0 0 0 0 0 0 0 0 0 0 0 0 0 0.25 0"/>
<feBlend mode="normal" in2="BackgroundImageFix" result="effect1_dropShadow_832_2314"/>
<feBlend mode="normal" in="SourceGraphic" in2="effect1_dropShadow_832_2314" result="shape"/>
</filter>
<filter id="filter4_f_832_2314" x="522.243" y="85.4563" width="70.8145" height="70.8146" filterUnits="userSpaceOnUse" color-interpolation-filters="sRGB">
<feFlood flood-opacity="0" result="BackgroundImageFix"/>
<feBlend mode="normal" in="SourceGraphic" in2="BackgroundImageFix" result="shape"/>
<feGaussianBlur stdDeviation="0.636821" result="effect1_foregroundBlur_832_2314"/>
</filter>
<filter id="filter5_d_832_2314" x="540.203" y="107.811" width="35.0215" height="26.4627" filterUnits="userSpaceOnUse" color-interpolation-filters="sRGB">
<feFlood flood-opacity="0" result="BackgroundImageFix"/>
<feColorMatrix in="SourceAlpha" type="matrix" values="0 0 0 0 0 0 0 0 0 0 0 0 0 0 0 0 0 0 127 0" result="hardAlpha"/>
<feOffset/>
<feGaussianBlur stdDeviation="1.27364"/>
<feComposite in2="hardAlpha" operator="out"/>
<feColorMatrix type="matrix" values="0 0 0 0 0 0 0 0 0 0 0 0 0 0 0 0 0 0 0.25 0"/>
<feBlend mode="normal" in2="BackgroundImageFix" result="effect1_dropShadow_832_2314"/>
<feBlend mode="normal" in="SourceGraphic" in2="effect1_dropShadow_832_2314" result="shape"/>
</filter>
<linearGradient id="paint0_linear_832_2314" x1="536.813" y1="45" x2="531.653" y2="680.132" gradientUnits="userSpaceOnUse">
<stop stop-color="#27C258" stop-opacity="0"/>
<stop offset="0.431544" stop-color="#74FF9C" stop-opacity="0.253581"/>
<stop offset="1" stop-color="#27C268" stop-opacity="0.6"/>
</linearGradient>
<linearGradient id="paint1_linear_832_2314" x1="119.187" y1="43" x2="124.347" y2="678.132" gradientUnits="userSpaceOnUse">
<stop stop-color="#27C258" stop-opacity="0"/>
<stop offset="0.431544" stop-color="#74FF9C" stop-opacity="0.253581"/>
<stop offset="1" stop-color="#27C268" stop-opacity="0.6"/>
</linearGradient>
<clipPath id="clip0_832_2314">
<rect width="695" height="304" fill="white"/>
</clipPath>
</defs>
</svg>
