<svg width="757" height="275" viewBox="0 0 757 275" fill="none" xmlns="http://www.w3.org/2000/svg">
<mask id="path-1-outside-1_945_1258" maskUnits="userSpaceOnUse" x="-0.151672" y="-0.82373" width="758" height="275" fill="black">
<rect fill="white" x="-0.151672" y="-0.82373" width="758" height="275"/>
<path d="M3.20001 195.176V162.319L111.371 25.7205L122.447 43.4413H6.52267V6.89204H157.519V39.7495L51.194 174.502L40.4877 158.627H159.734V195.176H3.20001ZM189.165 270.859L237.898 161.58L246.389 147.551L299.552 6.89204H349.022L236.421 270.859H189.165ZM230.883 193.33L154.462 6.89204H205.04L268.909 175.979L230.883 193.33ZM460.565 198.868C442.598 198.868 427.954 194.684 416.632 186.316C405.557 177.702 398.665 165.888 395.958 150.874L399.65 150.505V270.859H353.132V6.89204H398.542V49.3483L394.85 48.6099C398.296 34.5809 406.172 23.5054 418.478 15.3833C430.784 7.26123 445.798 3.2002 463.519 3.2002C480.255 3.2002 494.776 7.26123 507.082 15.3833C519.635 23.2592 529.357 34.4578 536.248 48.9791C543.139 63.5004 546.585 80.6059 546.585 100.296C546.585 120.232 543.016 137.583 535.879 152.351C528.741 167.118 518.773 178.563 505.975 186.685C493.176 194.807 478.04 198.868 460.565 198.868ZM448.751 160.473C463.765 160.473 475.702 155.304 484.562 144.967C493.423 134.384 497.853 119.616 497.853 100.665C497.853 81.7135 493.299 67.0692 484.193 56.732C475.332 46.3948 463.395 41.2262 448.382 41.2262C433.615 41.2262 421.678 46.5179 412.571 57.1012C403.465 67.4383 398.911 82.0827 398.911 101.034C398.911 119.986 403.465 134.63 412.571 144.967C421.678 155.304 433.738 160.473 448.751 160.473ZM667.712 198.868C649.745 198.868 635.101 194.684 623.779 186.316C612.704 177.702 605.812 165.888 603.105 150.874L606.797 150.505V270.859H560.28V6.89204H605.689V49.3483L601.997 48.6099C605.443 34.5809 613.319 23.5054 625.625 15.3833C637.931 7.26123 652.945 3.2002 670.666 3.2002C687.402 3.2002 701.923 7.26123 714.23 15.3833C726.782 23.2592 736.504 34.4578 743.395 48.9791C750.287 63.5004 753.732 80.6059 753.732 100.296C753.732 120.232 750.164 137.583 743.026 152.351C735.888 167.118 725.92 178.563 713.122 186.685C700.324 194.807 685.187 198.868 667.712 198.868ZM655.898 160.473C670.912 160.473 682.849 155.304 691.709 144.967C700.57 134.384 705 119.616 705 100.665C705 81.7135 700.447 67.0692 691.34 56.732C682.48 46.3948 670.543 41.2262 655.529 41.2262C640.762 41.2262 628.825 46.5179 619.718 57.1012C610.612 67.4383 606.058 82.0827 606.058 101.034C606.058 119.986 610.612 134.63 619.718 144.967C628.825 155.304 640.885 160.473 655.898 160.473Z"/>
</mask>
<path d="M3.20001 195.176V162.319L111.371 25.7205L122.447 43.4413H6.52267V6.89204H157.519V39.7495L51.194 174.502L40.4877 158.627H159.734V195.176H3.20001ZM189.165 270.859L237.898 161.58L246.389 147.551L299.552 6.89204H349.022L236.421 270.859H189.165ZM230.883 193.33L154.462 6.89204H205.04L268.909 175.979L230.883 193.33ZM460.565 198.868C442.598 198.868 427.954 194.684 416.632 186.316C405.557 177.702 398.665 165.888 395.958 150.874L399.65 150.505V270.859H353.132V6.89204H398.542V49.3483L394.85 48.6099C398.296 34.5809 406.172 23.5054 418.478 15.3833C430.784 7.26123 445.798 3.2002 463.519 3.2002C480.255 3.2002 494.776 7.26123 507.082 15.3833C519.635 23.2592 529.357 34.4578 536.248 48.9791C543.139 63.5004 546.585 80.6059 546.585 100.296C546.585 120.232 543.016 137.583 535.879 152.351C528.741 167.118 518.773 178.563 505.975 186.685C493.176 194.807 478.04 198.868 460.565 198.868ZM448.751 160.473C463.765 160.473 475.702 155.304 484.562 144.967C493.423 134.384 497.853 119.616 497.853 100.665C497.853 81.7135 493.299 67.0692 484.193 56.732C475.332 46.3948 463.395 41.2262 448.382 41.2262C433.615 41.2262 421.678 46.5179 412.571 57.1012C403.465 67.4383 398.911 82.0827 398.911 101.034C398.911 119.986 403.465 134.63 412.571 144.967C421.678 155.304 433.738 160.473 448.751 160.473ZM667.712 198.868C649.745 198.868 635.101 194.684 623.779 186.316C612.704 177.702 605.812 165.888 603.105 150.874L606.797 150.505V270.859H560.28V6.89204H605.689V49.3483L601.997 48.6099C605.443 34.5809 613.319 23.5054 625.625 15.3833C637.931 7.26123 652.945 3.2002 670.666 3.2002C687.402 3.2002 701.923 7.26123 714.23 15.3833C726.782 23.2592 736.504 34.4578 743.395 48.9791C750.287 63.5004 753.732 80.6059 753.732 100.296C753.732 120.232 750.164 137.583 743.026 152.351C735.888 167.118 725.92 178.563 713.122 186.685C700.324 194.807 685.187 198.868 667.712 198.868ZM655.898 160.473C670.912 160.473 682.849 155.304 691.709 144.967C700.57 134.384 705 119.616 705 100.665C705 81.7135 700.447 67.0692 691.34 56.732C682.48 46.3948 670.543 41.2262 655.529 41.2262C640.762 41.2262 628.825 46.5179 619.718 57.1012C610.612 67.4383 606.058 82.0827 606.058 101.034C606.058 119.986 610.612 134.63 619.718 144.967C628.825 155.304 640.885 160.473 655.898 160.473Z" fill="url(#paint0_linear_945_1258)" fill-opacity="0.08"/>
<path d="M3.20001 195.176H1.03465e-05V198.376H3.20001V195.176ZM3.20001 162.319L0.691339 160.332L1.03465e-05 161.205V162.319H3.20001ZM111.371 25.7205L114.085 24.0245L111.68 20.1763L108.862 23.7339L111.371 25.7205ZM122.447 43.4413V46.6413H128.22L125.16 41.7453L122.447 43.4413ZM6.52267 43.4413H3.32267V46.6413H6.52267V43.4413ZM6.52267 6.89204V3.69204H3.32267V6.89204H6.52267ZM157.519 6.89204H160.719V3.69204H157.519V6.89204ZM157.519 39.7495L160.031 41.7317L160.719 40.8599V39.7495H157.519ZM51.194 174.502L48.541 176.291L50.9915 179.925L53.7062 176.484L51.194 174.502ZM40.4877 158.627V155.427H34.4698L37.8346 160.416L40.4877 158.627ZM159.734 158.627H162.934V155.427H159.734V158.627ZM159.734 195.176V198.376H162.934V195.176H159.734ZM3.20001 195.176H6.40001V162.319H3.20001H1.03465e-05V195.176H3.20001ZM3.20001 162.319L5.70868 164.305L113.88 27.7071L111.371 25.7205L108.862 23.7339L0.691339 160.332L3.20001 162.319ZM111.371 25.7205L108.658 27.4165L119.733 45.1373L122.447 43.4413L125.16 41.7453L114.085 24.0245L111.371 25.7205ZM122.447 43.4413V40.2413H6.52267V43.4413V46.6413H122.447V43.4413ZM6.52267 43.4413H9.72267V6.89204H6.52267H3.32267V43.4413H6.52267ZM6.52267 6.89204V10.092H157.519V6.89204V3.69204H6.52267V6.89204ZM157.519 6.89204H154.319V39.7495H157.519H160.719V6.89204H157.519ZM157.519 39.7495L155.007 37.7673L48.6819 172.52L51.194 174.502L53.7062 176.484L160.031 41.7317L157.519 39.7495ZM51.194 174.502L53.8471 172.713L43.1407 156.838L40.4877 158.627L37.8346 160.416L48.541 176.291L51.194 174.502ZM40.4877 158.627V161.827H159.734V158.627V155.427H40.4877V158.627ZM159.734 158.627H156.534V195.176H159.734H162.934V158.627H159.734ZM159.734 195.176V191.976H3.20001V195.176V198.376H159.734V195.176ZM189.165 270.859L186.243 269.556L184.234 274.059H189.165V270.859ZM237.898 161.58L235.16 159.923L235.057 160.095L234.975 160.277L237.898 161.58ZM246.389 147.551L249.127 149.208L249.278 148.957L249.382 148.683L246.389 147.551ZM299.552 6.89204V3.69204H297.34L296.558 5.7607L299.552 6.89204ZM349.022 6.89204L351.966 8.14761L353.866 3.69204H349.022V6.89204ZM236.421 270.859V274.059H238.535L239.364 272.115L236.421 270.859ZM230.883 193.33L227.922 194.544L229.184 197.623L232.212 196.242L230.883 193.33ZM154.462 6.89204V3.69204H149.692L151.501 8.10572L154.462 6.89204ZM205.04 6.89204L208.034 5.76129L207.252 3.69204H205.04V6.89204ZM268.909 175.979L270.238 178.89L272.96 177.648L271.903 174.848L268.909 175.979ZM189.165 270.859L192.088 272.162L240.82 162.884L237.898 161.58L234.975 160.277L186.243 269.556L189.165 270.859ZM237.898 161.58L240.635 163.237L249.127 149.208L246.389 147.551L243.651 145.894L235.16 159.923L237.898 161.58ZM246.389 147.551L249.382 148.683L302.545 8.02338L299.552 6.89204L296.558 5.7607L243.396 146.42L246.389 147.551ZM299.552 6.89204V10.092H349.022V6.89204V3.69204H299.552V6.89204ZM349.022 6.89204L346.079 5.63647L233.478 269.604L236.421 270.859L239.364 272.115L351.966 8.14761L349.022 6.89204ZM236.421 270.859V267.659H189.165V270.859V274.059H236.421V270.859ZM230.883 193.33L233.844 192.117L157.423 5.67836L154.462 6.89204L151.501 8.10572L227.922 194.544L230.883 193.33ZM154.462 6.89204V10.092H205.04V6.89204V3.69204H154.462V6.89204ZM205.04 6.89204L202.047 8.0228L265.916 177.109L268.909 175.979L271.903 174.848L208.034 5.76129L205.04 6.89204ZM268.909 175.979L267.581 173.067L229.555 190.419L230.883 193.33L232.212 196.242L270.238 178.89L268.909 175.979ZM416.632 186.316L414.667 188.842L414.698 188.866L414.73 188.889L416.632 186.316ZM395.958 150.874L395.639 147.69L392.194 148.035L392.809 151.442L395.958 150.874ZM399.65 150.505H402.85V146.969L399.331 147.321L399.65 150.505ZM399.65 270.859V274.059H402.85V270.859H399.65ZM353.132 270.859H349.932V274.059H353.132V270.859ZM353.132 6.89204V3.69204H349.932V6.89204H353.132ZM398.542 6.89204H401.742V3.69204H398.542V6.89204ZM398.542 49.3483L397.914 52.4862L401.742 53.2517V49.3483H398.542ZM394.85 48.6099L391.743 47.8467L390.945 51.0923L394.223 51.7478L394.85 48.6099ZM418.478 15.3833L420.241 18.0541L420.241 18.0541L418.478 15.3833ZM507.082 15.3833L505.32 18.0541L505.35 18.0743L505.382 18.0939L507.082 15.3833ZM536.248 48.9791L539.139 47.6071L539.139 47.6071L536.248 48.9791ZM535.879 152.351L538.76 153.743L538.76 153.743L535.879 152.351ZM505.975 186.685L504.26 183.983L504.26 183.983L505.975 186.685ZM484.562 144.967L486.992 147.05L487.004 147.036L487.016 147.021L484.562 144.967ZM484.193 56.732L481.763 58.8145L481.777 58.831L481.792 58.8473L484.193 56.732ZM412.571 57.1012L414.972 59.2165L414.985 59.2025L414.997 59.1884L412.571 57.1012ZM412.571 144.967L414.972 142.852L414.972 142.852L412.571 144.967ZM460.565 198.868V195.668C443.093 195.668 429.17 191.603 418.534 183.742L416.632 186.316L414.73 188.889C426.738 197.765 442.104 202.068 460.565 202.068V198.868ZM416.632 186.316L418.597 183.79C408.2 175.704 401.688 164.617 399.107 150.306L395.958 150.874L392.809 151.442C395.643 167.158 402.913 179.699 414.667 188.842L416.632 186.316ZM395.958 150.874L396.276 154.058L399.968 153.689L399.65 150.505L399.331 147.321L395.639 147.69L395.958 150.874ZM399.65 150.505H396.45V270.859H399.65H402.85V150.505H399.65ZM399.65 270.859V267.659H353.132V270.859V274.059H399.65V270.859ZM353.132 270.859H356.332V6.89204H353.132H349.932V270.859H353.132ZM353.132 6.89204V10.092H398.542V6.89204V3.69204H353.132V6.89204ZM398.542 6.89204H395.342V49.3483H398.542H401.742V6.89204H398.542ZM398.542 49.3483L399.17 46.2104L395.478 45.4721L394.85 48.6099L394.223 51.7478L397.914 52.4862L398.542 49.3483ZM394.85 48.6099L397.958 49.3732C401.207 36.1444 408.592 25.7425 420.241 18.0541L418.478 15.3833L416.715 12.7126C403.752 21.2683 395.385 33.0174 391.743 47.8467L394.85 48.6099ZM418.478 15.3833L420.241 18.0541C431.926 10.3416 446.296 6.4002 463.519 6.4002V3.2002V0.000198612C445.299 0.000198612 429.642 4.18084 416.715 12.7126L418.478 15.3833ZM463.519 3.2002V6.4002C479.715 6.4002 493.605 10.3223 505.32 18.0541L507.082 15.3833L508.845 12.7126C495.947 4.20013 480.794 0.000198612 463.519 0.000198612V3.2002ZM507.082 15.3833L505.382 18.0939C517.374 25.6186 526.704 36.3317 533.357 50.3511L536.248 48.9791L539.139 47.6071C532.009 32.584 521.895 20.8999 508.783 12.6727L507.082 15.3833ZM536.248 48.9791L533.357 50.3511C540.004 64.3582 543.385 80.9759 543.385 100.296H546.585H549.785C549.785 80.236 546.274 62.6426 539.139 47.6071L536.248 48.9791ZM546.585 100.296H543.385C543.385 119.852 539.885 136.709 532.998 150.958L535.879 152.351L538.76 153.743C546.148 138.458 549.785 120.612 549.785 100.296H546.585ZM535.879 152.351L532.998 150.958C526.097 165.235 516.514 176.207 504.26 183.983L505.975 186.685L507.689 189.387C521.032 180.919 531.385 169.002 538.76 153.743L535.879 152.351ZM505.975 186.685L504.26 183.983C492.049 191.733 477.527 195.668 460.565 195.668V198.868V202.068C478.552 202.068 494.304 197.882 507.689 189.387L505.975 186.685ZM448.751 160.473V163.673C464.591 163.673 477.456 158.174 486.992 147.05L484.562 144.967L482.132 142.885C473.947 152.434 462.939 157.273 448.751 157.273V160.473ZM484.562 144.967L487.016 147.021C496.511 135.679 501.053 120.088 501.053 100.665H497.853H494.653C494.653 119.145 490.334 133.088 482.108 142.913L484.562 144.967ZM497.853 100.665H501.053C501.053 81.228 496.381 65.7262 486.594 54.6167L484.193 56.732L481.792 58.8473C490.218 68.4122 494.653 82.199 494.653 100.665H497.853ZM484.193 56.732L486.623 54.6495C477.087 43.5249 464.222 38.0262 448.382 38.0262V41.2262V44.4262C462.569 44.4262 473.578 49.2648 481.763 58.8145L484.193 56.732ZM448.382 41.2262V38.0262C432.744 38.0262 419.899 43.6791 410.145 55.014L412.571 57.1012L414.997 59.1884C423.457 49.3567 434.485 44.4262 448.382 44.4262V41.2262ZM412.571 57.1012L410.17 54.9859C400.383 66.0953 395.711 81.5972 395.711 101.034H398.911H402.111C402.111 82.5681 406.546 68.7814 414.972 59.2165L412.571 57.1012ZM398.911 101.034H395.711C395.711 120.471 400.383 135.973 410.17 147.082L412.571 144.967L414.972 142.852C406.546 133.287 402.111 119.5 402.111 101.034H398.911ZM412.571 144.967L410.17 147.082C419.943 158.176 432.911 163.673 448.751 163.673V160.473V157.273C434.564 157.273 423.412 152.433 414.972 142.852L412.571 144.967ZM623.779 186.316L621.815 188.842L621.846 188.866L621.877 188.889L623.779 186.316ZM603.105 150.874L602.787 147.69L599.341 148.035L599.956 151.442L603.105 150.874ZM606.797 150.505H609.997V146.969L606.478 147.321L606.797 150.505ZM606.797 270.859V274.059H609.997V270.859H606.797ZM560.28 270.859H557.08V274.059H560.28V270.859ZM560.28 6.89204V3.69204H557.08V6.89204H560.28ZM605.689 6.89204H608.889V3.69204H605.689V6.89204ZM605.689 49.3483L605.062 52.4862L608.889 53.2517V49.3483H605.689ZM601.997 48.6099L598.89 47.8467L598.093 51.0923L601.37 51.7478L601.997 48.6099ZM625.625 15.3833L627.388 18.0541L627.388 18.0541L625.625 15.3833ZM714.23 15.3833L712.467 18.0541L712.498 18.0743L712.529 18.0939L714.23 15.3833ZM743.395 48.9791L746.286 47.6071L746.286 47.6071L743.395 48.9791ZM743.026 152.351L745.907 153.743L745.907 153.743L743.026 152.351ZM713.122 186.685L711.407 183.983L711.407 183.983L713.122 186.685ZM691.709 144.967L694.139 147.05L694.151 147.036L694.163 147.021L691.709 144.967ZM691.34 56.732L688.911 58.8145L688.925 58.831L688.939 58.8473L691.34 56.732ZM619.718 57.1012L622.119 59.2165L622.132 59.2025L622.144 59.1884L619.718 57.1012ZM619.718 144.967L622.119 142.852L622.119 142.852L619.718 144.967ZM667.712 198.868V195.668C650.24 195.668 636.317 191.603 625.681 183.742L623.779 186.316L621.877 188.889C633.885 197.765 649.251 202.068 667.712 202.068V198.868ZM623.779 186.316L625.744 183.79C615.348 175.704 608.835 164.617 606.254 150.306L603.105 150.874L599.956 151.442C602.79 167.158 610.06 179.699 621.815 188.842L623.779 186.316ZM603.105 150.874L603.423 154.058L607.115 153.689L606.797 150.505L606.478 147.321L602.787 147.69L603.105 150.874ZM606.797 150.505H603.597V270.859H606.797H609.997V150.505H606.797ZM606.797 270.859V267.659H560.28V270.859V274.059H606.797V270.859ZM560.28 270.859H563.48V6.89204H560.28H557.08V270.859H560.28ZM560.28 6.89204V10.092H605.689V6.89204V3.69204H560.28V6.89204ZM605.689 6.89204H602.489V49.3483H605.689H608.889V6.89204H605.689ZM605.689 49.3483L606.317 46.2104L602.625 45.4721L601.997 48.6099L601.37 51.7478L605.062 52.4862L605.689 49.3483ZM601.997 48.6099L605.105 49.3732C608.354 36.1444 615.739 25.7425 627.388 18.0541L625.625 15.3833L623.863 12.7126C610.899 21.2683 602.532 33.0174 598.89 47.8467L601.997 48.6099ZM625.625 15.3833L627.388 18.0541C639.073 10.3416 653.443 6.4002 670.666 6.4002V3.2002V0.000198612C652.446 0.000198612 636.789 4.18084 623.863 12.7126L625.625 15.3833ZM670.666 3.2002V6.4002C686.863 6.4002 700.752 10.3223 712.467 18.0541L714.23 15.3833L715.992 12.7126C703.095 4.20013 687.942 0.000198612 670.666 0.000198612V3.2002ZM714.23 15.3833L712.529 18.0939C724.521 25.6186 733.851 36.3317 740.504 50.3511L743.395 48.9791L746.286 47.6071C739.157 32.584 729.042 20.8999 715.93 12.6727L714.23 15.3833ZM743.395 48.9791L740.504 50.3511C747.152 64.3582 750.532 80.9759 750.532 100.296H753.732H756.932C756.932 80.236 753.422 62.6426 746.286 47.6071L743.395 48.9791ZM753.732 100.296H750.532C750.532 119.852 747.032 136.709 740.145 150.958L743.026 152.351L745.907 153.743C753.295 138.458 756.932 120.612 756.932 100.296H753.732ZM743.026 152.351L740.145 150.958C733.245 165.235 723.661 176.207 711.407 183.983L713.122 186.685L714.837 189.387C728.179 180.919 738.532 169.002 745.907 153.743L743.026 152.351ZM713.122 186.685L711.407 183.983C699.196 191.733 684.675 195.668 667.712 195.668V198.868V202.068C685.699 202.068 701.451 197.882 714.837 189.387L713.122 186.685ZM655.898 160.473V163.673C671.738 163.673 684.604 158.174 694.139 147.05L691.709 144.967L689.28 142.885C681.094 152.434 670.086 157.273 655.898 157.273V160.473ZM691.709 144.967L694.163 147.021C703.659 135.679 708.2 120.088 708.2 100.665H705H701.8C701.8 119.145 697.481 133.088 689.256 142.913L691.709 144.967ZM705 100.665H708.2C708.2 81.228 703.528 65.7262 693.741 54.6167L691.34 56.732L688.939 58.8473C697.365 68.4122 701.8 82.199 701.8 100.665H705ZM691.34 56.732L693.77 54.6495C684.234 43.5249 671.369 38.0262 655.529 38.0262V41.2262V44.4262C669.717 44.4262 680.725 49.2648 688.911 58.8145L691.34 56.732ZM655.529 41.2262V38.0262C639.891 38.0262 627.046 43.6791 617.293 55.014L619.718 57.1012L622.144 59.1884C630.604 49.3567 641.633 44.4262 655.529 44.4262V41.2262ZM619.718 57.1012L617.317 54.9859C607.53 66.0953 602.858 81.5972 602.858 101.034H606.058H609.258C609.258 82.5681 613.693 68.7814 622.119 59.2165L619.718 57.1012ZM606.058 101.034H602.858C602.858 120.471 607.53 135.973 617.317 147.082L619.718 144.967L622.119 142.852C613.693 133.287 609.258 119.5 609.258 101.034H606.058ZM619.718 144.967L617.317 147.082C627.09 158.176 640.059 163.673 655.898 163.673V160.473V157.273C641.711 157.273 630.56 152.433 622.119 142.852L619.718 144.967Z" fill="url(#paint1_linear_945_1258)" mask="url(#path-1-outside-1_945_1258)"/>
<defs>
<linearGradient id="paint0_linear_945_1258" x1="134.21" y1="28.263" x2="517.727" y2="96.2044" gradientUnits="userSpaceOnUse">
<stop stop-color="#75F33F"/>
<stop offset="1" stop-color="#3FF399"/>
</linearGradient>
<linearGradient id="paint1_linear_945_1258" x1="107.417" y1="46.6701" x2="577.313" y2="125.402" gradientUnits="userSpaceOnUse">
<stop stop-color="#64F33F"/>
<stop offset="1" stop-color="#3FF399"/>
</linearGradient>
</defs>
</svg>
