<svg width="695" height="304" viewBox="0 0 695 304" fill="none" xmlns="http://www.w3.org/2000/svg" xmlns:xlink="http://www.w3.org/1999/xlink">
<g clip-path="url(#clip0_832_2435)">
<rect opacity="0.06" x="-10" y="-21" width="774" height="325"/>
<g clip-path="url(#clip1_832_2435)">
<rect x="401.815" y="-103.767" width="251" height="518.08" rx="41.1798" transform="rotate(42.0333 401.815 -103.767)" fill="black"/>
<rect x="401.98" y="-100.582" width="246.49" height="513.57" rx="38.9247" transform="rotate(42.0333 401.98 -100.582)" stroke="black" stroke-width="2.54923"/>
<rect x="401.85" y="-103.074" width="250.02" height="517.099" rx="40.6896" transform="rotate(42.0333 401.85 -103.074)" stroke="#5F5F5F" stroke-width="0.980471"/>
<g opacity="0.9" filter="url(#filter0_f_832_2435)">
<rect x="401.755" y="-102.237" width="249.039" height="515.923" rx="40.3954" transform="rotate(42.0333 401.755 -102.237)" stroke="black" stroke-width="0.980471"/>
</g>
<g opacity="0.8" filter="url(#filter1_f_832_2435)">
<rect x="402.13" y="-97.6739" width="242.372" height="509.452" rx="36.8657" transform="rotate(42.0333 402.13 -97.6739)" stroke="#545454" stroke-width="0.392188"/>
</g>
<g clip-path="url(#clip2_832_2435)">
<rect x="402.604" y="-88.5347" width="229.43" height="496.509" rx="32.3555" transform="rotate(42.0333 402.604 -88.5347)" fill="black"/>
<g opacity="0.2" filter="url(#filter2_f_832_2435)">
<path d="M311.6 95.6449C333.767 74.2816 368.681 73.6998 391.547 94.3127C414.413 114.926 417.444 149.713 398.486 173.969L262.382 348.118L152.454 249.023L311.6 95.6449Z" fill="#00E35B"/>
</g>
<g opacity="0.2" filter="url(#filter3_f_832_2435)">
<path d="M326.032 95.8078C344.027 78.0334 372.761 77.3777 391.547 94.3128C410.334 111.248 412.652 139.896 396.833 159.631L252.726 339.414L162.109 257.727L326.032 95.8078Z" fill="#45FF8F"/>
</g>
<g filter="url(#filter4_f_832_2435)">
<g filter="url(#filter5_f_832_2435)">
<ellipse cx="464.043" cy="-97.5971" rx="79.8105" ry="61.0791" transform="rotate(56.5797 464.043 -97.5971)" fill="#64F33F"/>
</g>
<g filter="url(#filter6_f_832_2435)">
<ellipse cx="566.629" cy="5.3754" rx="85.2734" ry="61.0791" transform="rotate(56.5797 566.629 5.3754)" fill="#94E052"/>
</g>
</g>
<path opacity="0.2" d="M263.726 155.458L327.669 84.5244C347.822 62.1678 382.284 60.3818 404.64 80.5353C426.997 100.689 428.783 135.15 408.629 157.507L344.686 228.44" stroke="#00E35B"/>
<g filter="url(#filter7_f_832_2435)">
<path d="M209.575 203.58L322.062 78.7965C344.989 53.3633 384.192 51.3315 409.625 74.2584C435.059 97.1854 437.09 136.389 414.163 161.822L321.764 264.323" stroke="#00E35B"/>
</g>
<path d="M209.575 203.58L322.062 78.7965C344.989 53.3633 384.192 51.3315 409.625 74.2584C435.059 97.1854 437.09 136.389 414.163 161.822L321.764 264.323" stroke="#00E35B"/>
<g filter="url(#filter8_f_832_2435)">
<line x1="248.644" y1="192.35" x2="325.644" y2="106.933" stroke="#00E35B" stroke-linecap="round"/>
</g>
<line x1="248.644" y1="192.35" x2="325.644" y2="106.933" stroke="#00E35B" stroke-linecap="round"/>
<g filter="url(#filter9_f_832_2435)">
<line x1="281.89" y1="260.016" x2="377.637" y2="153.802" stroke="#00E35B" stroke-linecap="round"/>
</g>
<line x1="281.89" y1="260.016" x2="377.637" y2="153.802" stroke="#00E35B" stroke-linecap="round"/>
<g filter="url(#filter10_f_832_2435)">
<line x1="232.824" y1="269.64" x2="340.624" y2="150.056" stroke="#00E35B" stroke-linecap="round"/>
</g>
<line x1="232.824" y1="269.64" x2="340.624" y2="150.056" stroke="#00E35B" stroke-linecap="round"/>
</g>
<g filter="url(#filter11_f_832_2435)">
<g clip-path="url(#clip3_832_2435)">
<circle cx="368.17" cy="121.408" r="48.7783" transform="rotate(42.0333 368.17 121.408)" fill="url(#paint0_linear_832_2435)"/>
<g filter="url(#filter12_f_832_2435)">
<path d="M393.828 102.633L431.884 89.799L421.716 131.533L393.828 102.633Z" fill="white"/>
</g>
<path d="M359.643 100.962L365.017 95.0003C365.288 94.6996 365.751 94.6755 366.052 94.9466L394.049 120.185C394.517 120.607 394.27 121.384 393.644 121.458L359.028 125.534L376.346 141.145C376.647 141.416 376.671 141.88 376.4 142.18L371.202 147.946C370.931 148.247 370.468 148.271 370.167 148L348.04 128.053C347.572 127.631 347.819 126.854 348.445 126.781L359.028 125.534L349.931 117.334C349.461 116.909 349.714 116.128 350.344 116.06L371.022 113.852C371.652 113.785 371.905 113.003 371.435 112.579L359.696 101.997C359.396 101.726 359.371 101.262 359.643 100.962Z" fill="#CCFFCD"/>
<circle cx="368.178" cy="121.38" r="46.0175" transform="rotate(42.0333 368.178 121.38)" stroke="#0E3016" stroke-width="0.438759"/>
</g>
</g>
<g clip-path="url(#clip4_832_2435)">
<circle cx="368.17" cy="121.408" r="48.7783" transform="rotate(42.0333 368.17 121.408)" fill="url(#paint1_linear_832_2435)"/>
<g filter="url(#filter13_f_832_2435)">
<path d="M393.828 102.633L431.884 89.799L421.716 131.533L393.828 102.633Z" fill="white"/>
</g>
<path d="M359.643 100.962L365.017 95.0003C365.288 94.6996 365.751 94.6755 366.052 94.9466L394.049 120.185C394.517 120.607 394.27 121.384 393.644 121.458L359.028 125.534L376.346 141.145C376.647 141.416 376.671 141.88 376.4 142.18L371.202 147.946C370.931 148.247 370.468 148.271 370.167 148L348.04 128.053C347.572 127.631 347.819 126.854 348.445 126.781L359.028 125.534L349.931 117.334C349.461 116.909 349.714 116.128 350.344 116.06L371.022 113.852C371.652 113.785 371.905 113.003 371.435 112.579L359.696 101.997C359.396 101.726 359.371 101.262 359.643 100.962Z" fill="#CCFFCD"/>
<circle cx="368.178" cy="121.38" r="46.0175" transform="rotate(42.0333 368.178 121.38)" stroke="#0E3016" stroke-width="0.438759"/>
</g>
<g opacity="0.9">
<rect x="512.04" y="35.1975" width="1.96094" height="2.35313" rx="0.196094" transform="rotate(42.0333 512.04 35.1975)" fill="white"/>
<rect x="514.867" y="36.1619" width="1.96094" height="3.52969" rx="0.196094" transform="rotate(42.0333 514.867 36.1619)" fill="white"/>
<rect x="517.971" y="37.1118" width="1.96094" height="4.90235" rx="0.196094" transform="rotate(42.0333 517.971 37.1118)" fill="white"/>
<rect x="521.06" y="37.7847" width="1.96094" height="6.4711" rx="0.196094" transform="rotate(42.0333 521.06 37.7847)" fill="white"/>
</g>
<g opacity="0.9">
<path d="M532.131 50.7871C532.562 50.7647 532.899 50.3964 532.83 49.9699C532.585 48.4333 531.832 46.9672 530.587 45.8442C529.336 44.7167 527.793 44.1194 526.233 44.0378C525.802 44.0153 525.472 44.3876 525.494 44.8181C525.517 45.2526 525.89 45.5799 526.324 45.6163C527.477 45.7133 528.61 46.1745 529.536 47.0094C530.459 47.8409 531.033 48.9142 531.251 50.0465C531.333 50.4731 531.697 50.8095 532.131 50.7871Z" fill="white"/>
<path d="M529.587 50.9189C530.018 50.8966 530.356 50.528 530.263 50.1073C530.067 49.2234 529.603 48.39 528.88 47.7377C528.151 47.0805 527.266 46.7052 526.36 46.6049C525.933 46.5576 525.604 46.9314 525.626 47.3602C525.648 47.796 526.029 48.1187 526.456 48.2067C526.951 48.3087 527.427 48.5399 527.829 48.9029C528.229 49.2628 528.506 49.7073 528.66 50.1847C528.793 50.5989 529.153 50.9414 529.587 50.9189Z" fill="white"/>
<path d="M526.826 51.062C527.373 51.0337 527.822 50.5429 527.539 50.0743C527.442 49.9132 527.32 49.7636 527.173 49.6311C527.019 49.4929 526.85 49.3833 526.672 49.3021C526.177 49.0767 525.74 49.5692 525.768 50.1127C525.797 50.6643 526.274 51.0906 526.826 51.062Z" fill="white"/>
</g>
<rect opacity="0.6" x="538.254" y="53.4161" width="13.1383" height="6.275" rx="1.27461" transform="rotate(42.0333 538.254 53.4161)" stroke="white" stroke-width="0.588282"/>
<rect opacity="0.9" x="538.304" y="54.3855" width="11.7656" height="4.90235" rx="0.784375" transform="rotate(42.0333 538.304 54.3855)" fill="white"/>
<path opacity="0.6" d="M547.012 64.3477C547.334 64.6377 547.36 65.1337 547.07 65.4554L546.939 65.6011C546.649 65.9229 546.153 65.9486 545.831 65.6585L547.012 64.3477Z" fill="white"/>
<g clip-path="url(#clip5_832_2435)">
<rect x="455.612" y="-30.1902" width="72.5547" height="21.1781" rx="10.5891" transform="rotate(42.0333 455.612 -30.1902)" fill="black"/>
<g opacity="0.75">
<rect x="491.276" y="9.61508" width="9.80469" height="9.80469" rx="4.90235" transform="rotate(42.0333 491.276 9.61508)" fill="#121212"/>
<rect x="491.276" y="9.61508" width="9.80469" height="9.80469" rx="4.90235" transform="rotate(42.0333 491.276 9.61508)" stroke="#0E0E0E" stroke-width="0.392188"/>
<g filter="url(#filter14_f_832_2435)">
<path d="M492.286 14.1843C490.731 13.4359 488.451 15.14 489.36 17.4302C489.925 15.9786 490.819 14.9868 492.286 14.1843Z" fill="#50A99A"/>
</g>
<g filter="url(#filter15_f_832_2435)">
<path d="M491.34 14.6896C490.55 14.3292 489.339 15.261 489.765 16.4374C490.085 15.6699 490.566 15.1359 491.34 14.6896Z" fill="#50A99A"/>
</g>
<g opacity="0.4" filter="url(#filter16_f_832_2435)">
<path d="M491.848 14.636C491.249 14.2401 489.549 15.3516 489.836 16.313C490.08 15.5896 491.13 14.6508 491.848 14.636Z" fill="#D0FFF7"/>
</g>
<g filter="url(#filter17_f_832_2435)">
<path d="M493.909 15.6472C494.814 17.117 493.355 19.5604 490.983 18.8931C492.369 18.1808 493.263 17.189 493.909 15.6472Z" fill="#3E518C"/>
</g>
<g filter="url(#filter18_f_832_2435)">
<path d="M493.504 16.64C493.944 17.3888 493.143 18.6902 491.929 18.3878C492.659 17.99 493.14 17.456 493.504 16.64Z" fill="#26408D"/>
</g>
<g opacity="0.5" filter="url(#filter19_f_832_2435)">
<path d="M493.505 16.1302C493.961 16.6849 493.031 18.4909 492.045 18.3042C492.739 17.9872 493.565 16.8453 493.505 16.1302Z" fill="#0D308C"/>
</g>
</g>
</g>
</g>
<g opacity="0.5" filter="url(#filter20_if_832_2435)">
<path d="M369.258 221.398L392.207 228.038L357.89 152.602C356.256 149.011 356.116 144.918 357.5 141.224C358.884 137.529 361.679 134.536 365.27 132.902C368.861 131.269 372.954 131.129 376.649 132.513C380.343 133.897 383.336 136.692 384.97 140.283L403.448 180.902L428.249 174.084C444.191 169.53 452.159 167.259 458.842 168.011C469.892 169.269 479.733 174.214 484.921 185.618C488.532 193.557 488.992 199.781 490.738 216.263C491.837 226.726 492.39 231.946 491.559 236.667C490.187 244.434 486.158 251.483 480.16 256.606C476.516 259.721 471.735 261.896 462.156 266.254L454.032 269.949C441.312 275.736 434.945 278.632 428.211 278.876C427.005 278.918 425.799 278.897 424.596 278.811C417.88 278.336 411.619 275.227 399.101 268.996L358.562 248.834C355.275 247.179 352.722 244.358 351.404 240.921C350.086 237.485 350.096 233.681 351.433 230.252C352.77 226.822 355.337 224.015 358.634 222.378C361.93 220.74 365.718 220.391 369.258 221.398Z" fill="#040B08"/>
<path d="M369.258 221.398L392.207 228.038L357.89 152.602C356.256 149.011 356.116 144.918 357.5 141.224C358.884 137.529 361.679 134.536 365.27 132.902C368.861 131.269 372.954 131.129 376.649 132.513C380.343 133.897 383.336 136.692 384.97 140.283L403.448 180.902L428.249 174.084C444.191 169.53 452.159 167.259 458.842 168.011C469.892 169.269 479.733 174.214 484.921 185.618C488.532 193.557 488.992 199.781 490.738 216.263C491.837 226.726 492.39 231.946 491.559 236.667C490.187 244.434 486.158 251.483 480.16 256.606C476.516 259.721 471.735 261.896 462.156 266.254L454.032 269.949C441.312 275.736 434.945 278.632 428.211 278.876C427.005 278.918 425.799 278.897 424.596 278.811C417.88 278.336 411.619 275.227 399.101 268.996L358.562 248.834C355.275 247.179 352.722 244.358 351.404 240.921C350.086 237.485 350.096 233.681 351.433 230.252C352.77 226.822 355.337 224.015 358.634 222.378C361.93 220.74 365.718 220.391 369.258 221.398Z" stroke="url(#paint2_linear_832_2435)" stroke-linecap="round" stroke-linejoin="round"/>
</g>
<g opacity="0.5" filter="url(#filter21_if_832_2435)">
<path d="M334.467 216.743L350.898 234.084L359.481 151.655C359.89 147.731 361.84 144.13 364.904 141.644C367.967 139.159 371.893 137.992 375.817 138.4C379.741 138.809 383.342 140.759 385.827 143.823C388.313 146.886 389.48 150.812 389.071 154.736L384.45 199.121L409.29 205.792C425.344 209.934 433.367 212.008 438.75 216.038C447.643 222.716 453.628 231.962 452.331 244.423C451.427 253.097 448.673 258.699 441.837 273.797C437.49 283.377 435.325 288.16 432.219 291.81C427.105 297.815 420.062 301.855 412.296 303.239C407.577 304.08 402.352 303.536 391.885 302.446L383.008 301.522C369.11 300.075 362.152 299.35 356.221 296.152C355.159 295.579 354.129 294.95 353.135 294.267C347.584 290.458 343.758 284.608 336.115 272.899L311.356 234.992C309.358 231.901 308.585 228.176 309.187 224.545C309.789 220.914 311.723 217.638 314.612 215.357C317.501 213.076 321.136 211.954 324.808 212.21C328.479 212.467 331.923 214.083 334.467 216.743Z" fill="#040B08"/>
<path d="M334.467 216.743L350.898 234.084L359.481 151.655C359.89 147.731 361.84 144.13 364.904 141.644C367.967 139.159 371.893 137.992 375.817 138.4C379.741 138.809 383.342 140.759 385.827 143.823C388.313 146.886 389.48 150.812 389.071 154.736L384.45 199.121L409.29 205.792C425.344 209.934 433.367 212.008 438.75 216.038C447.643 222.716 453.628 231.962 452.331 244.423C451.427 253.097 448.673 258.699 441.837 273.797C437.49 283.377 435.325 288.16 432.219 291.81C427.105 297.815 420.062 301.855 412.296 303.239C407.577 304.08 402.352 303.536 391.885 302.446L383.008 301.522C369.11 300.075 362.152 299.35 356.221 296.152C355.159 295.579 354.129 294.95 353.135 294.267C347.584 290.458 343.758 284.608 336.115 272.899L311.356 234.992C309.358 231.901 308.585 228.176 309.187 224.545C309.789 220.914 311.723 217.638 314.612 215.357C317.501 213.076 321.136 211.954 324.808 212.21C328.479 212.467 331.923 214.083 334.467 216.743Z" stroke="url(#paint3_linear_832_2435)" stroke-linecap="round" stroke-linejoin="round"/>
</g>
<g filter="url(#filter22_i_832_2435)">
<path d="M353.75 215.796L374.766 227.156L357.242 146.155C356.408 142.299 357.14 138.269 359.276 134.953C361.413 131.637 364.78 129.305 368.636 128.471C372.491 127.636 376.521 128.368 379.837 130.505C383.154 132.642 385.485 136.008 386.32 139.864L395.755 183.48L421.438 182.081C437.983 181.015 446.253 180.487 452.624 182.639C463.154 186.214 471.722 193.135 474.371 205.381C476.216 213.905 475.344 220.085 473.551 236.562C472.404 247.02 471.838 252.239 470.023 256.675C467.034 263.975 461.6 270.008 454.652 273.741C450.43 276.011 445.296 277.122 435.011 279.347L426.287 281.234C412.629 284.189 405.792 285.668 399.16 284.477C397.973 284.263 396.798 283.986 395.64 283.647C389.179 281.757 383.72 277.39 372.81 268.644L337.474 240.337C334.613 238.022 332.717 234.723 332.158 231.086C331.6 227.448 332.417 223.732 334.451 220.665C336.486 217.598 339.59 215.399 343.159 214.499C346.728 213.598 350.504 214.061 353.75 215.796Z" fill="#040B08"/>
</g>
<path d="M353.75 215.796L374.766 227.156L357.242 146.155C356.408 142.299 357.14 138.269 359.276 134.953C361.413 131.637 364.78 129.305 368.636 128.471C372.491 127.636 376.521 128.368 379.837 130.505C383.154 132.642 385.485 136.008 386.32 139.864L395.755 183.48L421.438 182.081C437.983 181.015 446.253 180.487 452.624 182.639C463.154 186.214 471.722 193.135 474.371 205.381C476.216 213.905 475.344 220.085 473.551 236.562C472.404 247.02 471.838 252.239 470.023 256.675C467.034 263.975 461.6 270.008 454.652 273.741C450.43 276.011 445.296 277.122 435.011 279.347L426.287 281.234C412.629 284.189 405.792 285.668 399.16 284.477C397.973 284.263 396.798 283.986 395.64 283.647C389.179 281.757 383.72 277.39 372.81 268.644L337.474 240.337C334.613 238.022 332.717 234.723 332.158 231.086C331.6 227.448 332.417 223.732 334.451 220.665C336.486 217.598 339.59 215.399 343.159 214.499C346.728 213.598 350.504 214.061 353.75 215.796Z" stroke="url(#paint4_linear_832_2435)" stroke-linecap="round" stroke-linejoin="round"/>
<g filter="url(#filter23_f_832_2435)">
<rect x="679" y="-43" width="125" height="238" fill="#00E35B"/>
</g>
<g filter="url(#filter24_f_832_2435)">
<rect x="-110" y="-183" width="125" height="238" fill="#00E35B"/>
</g>
</g>
<defs>
<filter id="filter0_f_832_2435" x="55.7245" y="-102.825" width="531.594" height="551.128" filterUnits="userSpaceOnUse" color-interpolation-filters="sRGB">
<feFlood flood-opacity="0" result="BackgroundImageFix"/>
<feBlend mode="normal" in="SourceGraphic" in2="BackgroundImageFix" result="shape"/>
<feGaussianBlur stdDeviation="0.294141" result="effect1_foregroundBlur_832_2435"/>
</filter>
<filter id="filter1_f_832_2435" x="60.9057" y="-97.7892" width="521.363" height="540.912" filterUnits="userSpaceOnUse" color-interpolation-filters="sRGB">
<feFlood flood-opacity="0" result="BackgroundImageFix"/>
<feBlend mode="normal" in="SourceGraphic" in2="BackgroundImageFix" result="shape"/>
<feGaussianBlur stdDeviation="0.196094" result="effect1_foregroundBlur_832_2435"/>
</filter>
<filter id="filter2_f_832_2435" x="52.4536" y="-20.7705" width="458.469" height="468.889" filterUnits="userSpaceOnUse" color-interpolation-filters="sRGB">
<feFlood flood-opacity="0" result="BackgroundImageFix"/>
<feBlend mode="normal" in="SourceGraphic" in2="BackgroundImageFix" result="shape"/>
<feGaussianBlur stdDeviation="50" result="effect1_foregroundBlur_832_2435"/>
</filter>
<filter id="filter3_f_832_2435" x="82.1095" y="2.03174" width="405.214" height="417.382" filterUnits="userSpaceOnUse" color-interpolation-filters="sRGB">
<feFlood flood-opacity="0" result="BackgroundImageFix"/>
<feBlend mode="normal" in="SourceGraphic" in2="BackgroundImageFix" result="shape"/>
<feGaussianBlur stdDeviation="40" result="effect1_foregroundBlur_832_2435"/>
</filter>
<filter id="filter4_f_832_2435" x="375.662" y="-193.306" width="281.35" height="298.49" filterUnits="userSpaceOnUse" color-interpolation-filters="sRGB">
<feFlood flood-opacity="0" result="BackgroundImageFix"/>
<feBlend mode="normal" in="SourceGraphic" in2="BackgroundImageFix" result="shape"/>
<feGaussianBlur stdDeviation="10.533" result="effect1_foregroundBlur_832_2435"/>
</filter>
<filter id="filter5_f_832_2435" x="298.681" y="-270.287" width="330.725" height="345.38" filterUnits="userSpaceOnUse" color-interpolation-filters="sRGB">
<feFlood flood-opacity="0" result="BackgroundImageFix"/>
<feBlend mode="normal" in="SourceGraphic" in2="BackgroundImageFix" result="shape"/>
<feGaussianBlur stdDeviation="49.0236" result="effect1_foregroundBlur_832_2435"/>
</filter>
<filter id="filter6_f_832_2435" x="399.265" y="-171.414" width="334.728" height="353.578" filterUnits="userSpaceOnUse" color-interpolation-filters="sRGB">
<feFlood flood-opacity="0" result="BackgroundImageFix"/>
<feBlend mode="normal" in="SourceGraphic" in2="BackgroundImageFix" result="shape"/>
<feGaussianBlur stdDeviation="49.0236" result="effect1_foregroundBlur_832_2435"/>
</filter>
<filter id="filter7_f_832_2435" x="204.204" y="52.8088" width="231.409" height="216.848" filterUnits="userSpaceOnUse" color-interpolation-filters="sRGB">
<feFlood flood-opacity="0" result="BackgroundImageFix"/>
<feBlend mode="normal" in="SourceGraphic" in2="BackgroundImageFix" result="shape"/>
<feGaussianBlur stdDeviation="2.5" result="effect1_foregroundBlur_832_2435"/>
</filter>
<filter id="filter8_f_832_2435" x="243.144" y="101.433" width="87.9996" height="96.417" filterUnits="userSpaceOnUse" color-interpolation-filters="sRGB">
<feFlood flood-opacity="0" result="BackgroundImageFix"/>
<feBlend mode="normal" in="SourceGraphic" in2="BackgroundImageFix" result="shape"/>
<feGaussianBlur stdDeviation="2.5" result="effect1_foregroundBlur_832_2435"/>
</filter>
<filter id="filter9_f_832_2435" x="276.39" y="148.302" width="106.747" height="117.214" filterUnits="userSpaceOnUse" color-interpolation-filters="sRGB">
<feFlood flood-opacity="0" result="BackgroundImageFix"/>
<feBlend mode="normal" in="SourceGraphic" in2="BackgroundImageFix" result="shape"/>
<feGaussianBlur stdDeviation="2.5" result="effect1_foregroundBlur_832_2435"/>
</filter>
<filter id="filter10_f_832_2435" x="227.324" y="144.556" width="118.799" height="130.584" filterUnits="userSpaceOnUse" color-interpolation-filters="sRGB">
<feFlood flood-opacity="0" result="BackgroundImageFix"/>
<feBlend mode="normal" in="SourceGraphic" in2="BackgroundImageFix" result="shape"/>
<feGaussianBlur stdDeviation="2.5" result="effect1_foregroundBlur_832_2435"/>
</filter>
<filter id="filter11_f_832_2435" x="249.279" y="2.51782" width="237.781" height="237.781" filterUnits="userSpaceOnUse" color-interpolation-filters="sRGB">
<feFlood flood-opacity="0" result="BackgroundImageFix"/>
<feBlend mode="normal" in="SourceGraphic" in2="BackgroundImageFix" result="shape"/>
<feGaussianBlur stdDeviation="25" result="effect1_foregroundBlur_832_2435"/>
</filter>
<filter id="filter12_f_832_2435" x="357.178" y="53.1489" width="111.357" height="115.034" filterUnits="userSpaceOnUse" color-interpolation-filters="sRGB">
<feFlood flood-opacity="0" result="BackgroundImageFix"/>
<feBlend mode="normal" in="SourceGraphic" in2="BackgroundImageFix" result="shape"/>
<feGaussianBlur stdDeviation="18.3251" result="effect1_foregroundBlur_832_2435"/>
</filter>
<filter id="filter13_f_832_2435" x="357.178" y="53.1489" width="111.357" height="115.034" filterUnits="userSpaceOnUse" color-interpolation-filters="sRGB">
<feFlood flood-opacity="0" result="BackgroundImageFix"/>
<feBlend mode="normal" in="SourceGraphic" in2="BackgroundImageFix" result="shape"/>
<feGaussianBlur stdDeviation="18.3251" result="effect1_foregroundBlur_832_2435"/>
</filter>
<filter id="filter14_f_832_2435" x="488.06" y="12.9133" width="5.31859" height="5.60936" filterUnits="userSpaceOnUse" color-interpolation-filters="sRGB">
<feFlood flood-opacity="0" result="BackgroundImageFix"/>
<feBlend mode="normal" in="SourceGraphic" in2="BackgroundImageFix" result="shape"/>
<feGaussianBlur stdDeviation="0.546262" result="effect1_foregroundBlur_832_2435"/>
</filter>
<filter id="filter15_f_832_2435" x="488.584" y="13.5186" width="3.84911" height="4.01146" filterUnits="userSpaceOnUse" color-interpolation-filters="sRGB">
<feFlood flood-opacity="0" result="BackgroundImageFix"/>
<feBlend mode="normal" in="SourceGraphic" in2="BackgroundImageFix" result="shape"/>
<feGaussianBlur stdDeviation="0.546262" result="effect1_foregroundBlur_832_2435"/>
</filter>
<filter id="filter16_f_832_2435" x="489.075" y="13.8254" width="3.50064" height="3.21597" filterUnits="userSpaceOnUse" color-interpolation-filters="sRGB">
<feFlood flood-opacity="0" result="BackgroundImageFix"/>
<feBlend mode="normal" in="SourceGraphic" in2="BackgroundImageFix" result="shape"/>
<feGaussianBlur stdDeviation="0.364174" result="effect1_foregroundBlur_832_2435"/>
</filter>
<filter id="filter17_f_832_2435" x="489.891" y="14.5547" width="5.38219" height="5.54393" filterUnits="userSpaceOnUse" color-interpolation-filters="sRGB">
<feFlood flood-opacity="0" result="BackgroundImageFix"/>
<feBlend mode="normal" in="SourceGraphic" in2="BackgroundImageFix" result="shape"/>
<feGaussianBlur stdDeviation="0.546262" result="effect1_foregroundBlur_832_2435"/>
</filter>
<filter id="filter18_f_832_2435" x="490.836" y="15.5474" width="3.88268" height="3.97777" filterUnits="userSpaceOnUse" color-interpolation-filters="sRGB">
<feFlood flood-opacity="0" result="BackgroundImageFix"/>
<feBlend mode="normal" in="SourceGraphic" in2="BackgroundImageFix" result="shape"/>
<feGaussianBlur stdDeviation="0.546262" result="effect1_foregroundBlur_832_2435"/>
</filter>
<filter id="filter19_f_832_2435" x="491.317" y="15.4018" width="3.0358" height="3.6442" filterUnits="userSpaceOnUse" color-interpolation-filters="sRGB">
<feFlood flood-opacity="0" result="BackgroundImageFix"/>
<feBlend mode="normal" in="SourceGraphic" in2="BackgroundImageFix" result="shape"/>
<feGaussianBlur stdDeviation="0.364174" result="effect1_foregroundBlur_832_2435"/>
</filter>
<filter id="filter20_if_832_2435" x="339.923" y="121.067" width="162.537" height="168.33" filterUnits="userSpaceOnUse" color-interpolation-filters="sRGB">
<feFlood flood-opacity="0" result="BackgroundImageFix"/>
<feBlend mode="normal" in="SourceGraphic" in2="BackgroundImageFix" result="shape"/>
<feColorMatrix in="SourceAlpha" type="matrix" values="0 0 0 0 0 0 0 0 0 0 0 0 0 0 0 0 0 0 127 0" result="hardAlpha"/>
<feOffset dx="5" dy="7"/>
<feGaussianBlur stdDeviation="10"/>
<feComposite in2="hardAlpha" operator="arithmetic" k2="-1" k3="1"/>
<feColorMatrix type="matrix" values="0 0 0 0 0 0 0 0 0 0.891026 0 0 0 0 0.35641 0 0 0 0.3 0"/>
<feBlend mode="normal" in2="shape" result="effect1_innerShadow_832_2435"/>
<feGaussianBlur stdDeviation="5" result="effect2_foregroundBlur_832_2435"/>
</filter>
<filter id="filter21_if_832_2435" x="298.488" y="127.82" width="164.52" height="186.329" filterUnits="userSpaceOnUse" color-interpolation-filters="sRGB">
<feFlood flood-opacity="0" result="BackgroundImageFix"/>
<feBlend mode="normal" in="SourceGraphic" in2="BackgroundImageFix" result="shape"/>
<feColorMatrix in="SourceAlpha" type="matrix" values="0 0 0 0 0 0 0 0 0 0 0 0 0 0 0 0 0 0 127 0" result="hardAlpha"/>
<feOffset dx="5" dy="7"/>
<feGaussianBlur stdDeviation="10"/>
<feComposite in2="hardAlpha" operator="arithmetic" k2="-1" k3="1"/>
<feColorMatrix type="matrix" values="0 0 0 0 0 0 0 0 0 0.891026 0 0 0 0 0.35641 0 0 0 0.3 0"/>
<feBlend mode="normal" in2="shape" result="effect1_innerShadow_832_2435"/>
<feGaussianBlur stdDeviation="5" result="effect2_foregroundBlur_832_2435"/>
</filter>
<filter id="filter22_i_832_2435" x="331.487" y="127.634" width="149.409" height="164.755" filterUnits="userSpaceOnUse" color-interpolation-filters="sRGB">
<feFlood flood-opacity="0" result="BackgroundImageFix"/>
<feBlend mode="normal" in="SourceGraphic" in2="BackgroundImageFix" result="shape"/>
<feColorMatrix in="SourceAlpha" type="matrix" values="0 0 0 0 0 0 0 0 0 0 0 0 0 0 0 0 0 0 127 0" result="hardAlpha"/>
<feOffset dx="5" dy="7"/>
<feGaussianBlur stdDeviation="10"/>
<feComposite in2="hardAlpha" operator="arithmetic" k2="-1" k3="1"/>
<feColorMatrix type="matrix" values="0 0 0 0 0 0 0 0 0 0.891026 0 0 0 0 0.35641 0 0 0 0.3 0"/>
<feBlend mode="normal" in2="shape" result="effect1_innerShadow_832_2435"/>
</filter>
<filter id="filter23_f_832_2435" x="479" y="-243" width="525" height="638" filterUnits="userSpaceOnUse" color-interpolation-filters="sRGB">
<feFlood flood-opacity="0" result="BackgroundImageFix"/>
<feBlend mode="normal" in="SourceGraphic" in2="BackgroundImageFix" result="shape"/>
<feGaussianBlur stdDeviation="100" result="effect1_foregroundBlur_832_2435"/>
</filter>
<filter id="filter24_f_832_2435" x="-310" y="-383" width="525" height="638" filterUnits="userSpaceOnUse" color-interpolation-filters="sRGB">
<feFlood flood-opacity="0" result="BackgroundImageFix"/>
<feBlend mode="normal" in="SourceGraphic" in2="BackgroundImageFix" result="shape"/>
<feGaussianBlur stdDeviation="100" result="effect1_foregroundBlur_832_2435"/>
</filter>
<linearGradient id="paint0_linear_832_2435" x1="400.755" y1="72.63" x2="346.512" y2="176.717" gradientUnits="userSpaceOnUse">
<stop stop-color="#20B551"/>
<stop offset="1" stop-color="#0E4F23"/>
</linearGradient>
<linearGradient id="paint1_linear_832_2435" x1="400.755" y1="72.63" x2="346.512" y2="176.717" gradientUnits="userSpaceOnUse">
<stop stop-color="#20B551"/>
<stop offset="1" stop-color="#0E4F23"/>
</linearGradient>
<linearGradient id="paint2_linear_832_2435" x1="446.338" y1="273.449" x2="380.982" y2="125.79" gradientUnits="userSpaceOnUse">
<stop stop-color="#00190A"/>
<stop offset="1" stop-color="#00E35B"/>
</linearGradient>
<linearGradient id="paint3_linear_832_2435" x1="374.601" y1="300.647" x2="392.967" y2="140.218" gradientUnits="userSpaceOnUse">
<stop stop-color="#00190A"/>
<stop offset="1" stop-color="#00E35B"/>
</linearGradient>
<linearGradient id="paint4_linear_832_2435" x1="418.025" y1="283.022" x2="385.499" y2="124.855" gradientUnits="userSpaceOnUse">
<stop stop-color="#00190A"/>
<stop offset="1" stop-color="#00E35B"/>
</linearGradient>
<clipPath id="clip0_832_2435">
<rect width="695" height="304" rx="40" fill="white"/>
</clipPath>
<clipPath id="clip1_832_2435">
<rect x="401.815" y="-103.767" width="251" height="518.08" rx="41.1798" transform="rotate(42.0333 401.815 -103.767)" fill="white"/>
</clipPath>
<clipPath id="clip2_832_2435">
<rect x="402.604" y="-88.5347" width="229.43" height="496.509" rx="32.3555" transform="rotate(42.0333 402.604 -88.5347)" fill="white"/>
</clipPath>
<clipPath id="clip3_832_2435">
<rect x="364.599" y="52.5178" width="97.5566" height="97.5567" rx="48.7783" transform="rotate(42.0333 364.599 52.5178)" fill="white"/>
</clipPath>
<clipPath id="clip4_832_2435">
<rect x="364.599" y="52.5178" width="97.5566" height="97.5567" rx="48.7783" transform="rotate(42.0333 364.599 52.5178)" fill="white"/>
</clipPath>
<clipPath id="clip5_832_2435">
<rect x="455.612" y="-30.1902" width="72.5547" height="21.1781" rx="10.5891" transform="rotate(42.0333 455.612 -30.1902)" fill="white"/>
</clipPath>
</defs>
</svg>
