<svg width="1214" height="1148" viewBox="0 0 1214 1148" fill="none" xmlns="http://www.w3.org/2000/svg">
<foreignObject x="-199.831" y="-199.049" width="1613.66" height="1546.66"><div xmlns="http://www.w3.org/1999/xhtml" style="backdrop-filter:blur(100px);clip-path:url(#bgblur_1_423_505_clip_path);height:100%;width:100%"></div></foreignObject><g data-figma-bg-blur-radius="200">
<g clip-path="url(#clip0_423_505)">
<rect x="1" y="1.78223" width="1212" height="1145" rx="224.339" fill="white" fill-opacity="0.05"/>
<path d="M607 375.671V574.282L733.389 646.504M932 574.282C932 616.962 923.594 659.224 907.261 698.654C890.928 738.085 866.989 773.913 836.81 804.092C806.631 834.271 770.803 858.21 731.372 874.543C691.941 890.876 649.68 899.282 607 899.282C564.32 899.282 522.059 890.876 482.628 874.543C443.197 858.21 407.369 834.271 377.19 804.092C347.011 773.913 323.072 738.085 306.739 698.654C290.406 659.224 282 616.962 282 574.282C282 488.087 316.241 405.422 377.19 344.473C438.14 283.523 520.805 249.282 607 249.282C693.195 249.282 775.86 283.523 836.81 344.473C897.759 405.422 932 488.087 932 574.282Z" stroke="#62F43E" stroke-width="50" stroke-linecap="round" stroke-linejoin="round"/>
<path d="M1213.18 786.875V920.357C1213.18 1044.26 1112.74 1144.7 988.84 1144.7H225.339C101.44 1144.7 1 1044.26 1 920.357V786.875" stroke="url(#paint0_linear_423_505)" stroke-width="11.217"/>
<path d="M1213.18 685.269V229.112C1213.18 105.213 1112.74 4.77338 988.84 4.77338H532.684" stroke="url(#paint1_linear_423_505)" stroke-width="11.217"/>
<g style="mix-blend-mode:plus-lighter" filter="url(#filter1_f_423_505)">
<rect x="1068.73" y="-103.79" width="292.609" height="1617.44" transform="rotate(41.0365 1068.73 -103.79)" fill="white" fill-opacity="0.15"/>
</g>
<g style="mix-blend-mode:plus-lighter" opacity="0.8" filter="url(#filter2_f_423_505)">
<rect x="272.45" y="980.649" width="669.279" height="363.43" fill="#62F43E"/>
</g>
</g>
<rect x="1" y="1.78223" width="1212" height="1145" rx="224.339" stroke="#383838" stroke-width="1.66255"/>
</g>
<defs>
<clipPath id="bgblur_1_423_505_clip_path" transform="translate(199.831 199.049)"><rect x="1" y="1.78223" width="1212" height="1145" rx="224.339"/>
</clipPath><filter id="filter1_f_423_505" x="-159.436" y="-270.045" width="1615.14" height="1744.64" filterUnits="userSpaceOnUse" color-interpolation-filters="sRGB">
<feFlood flood-opacity="0" result="BackgroundImageFix"/>
<feBlend mode="normal" in="SourceGraphic" in2="BackgroundImageFix" result="shape"/>
<feGaussianBlur stdDeviation="83.1276" result="effect1_foregroundBlur_423_505"/>
</filter>
<filter id="filter2_f_423_505" x="-176.228" y="531.971" width="1566.64" height="1260.79" filterUnits="userSpaceOnUse" color-interpolation-filters="sRGB">
<feFlood flood-opacity="0" result="BackgroundImageFix"/>
<feBlend mode="normal" in="SourceGraphic" in2="BackgroundImageFix" result="shape"/>
<feGaussianBlur stdDeviation="224.339" result="effect1_foregroundBlur_423_505"/>
</filter>
<linearGradient id="paint0_linear_423_505" x1="1" y1="965.786" x2="1213.18" y2="965.786" gradientUnits="userSpaceOnUse">
<stop stop-color="#62F43E" stop-opacity="0"/>
<stop offset="0.5" stop-color="#62F43E"/>
<stop offset="1" stop-color="#62F43E" stop-opacity="0"/>
</linearGradient>
<linearGradient id="paint1_linear_423_505" x1="664.296" y1="24.2161" x2="1238.6" y2="317.353" gradientUnits="userSpaceOnUse">
<stop stop-color="white" stop-opacity="0"/>
<stop offset="0.5" stop-color="white" stop-opacity="0.5"/>
<stop offset="1" stop-color="white" stop-opacity="0"/>
</linearGradient>
<clipPath id="clip0_423_505">
<rect x="1" y="1.78223" width="1212" height="1145" rx="224.339" fill="white"/>
</clipPath>
</defs>
</svg>
