<svg width="318" height="87" viewBox="0 0 318 87" fill="none" xmlns="http://www.w3.org/2000/svg">
<path d="M109.659 28.3999L56.0869 68.6323L109.2 69.229L109.009 86.2202L34.0137 85.3774L34.2568 63.7759L37.6035 61.2622L109.9 6.96631L109.659 28.3999ZM75.8857 1.62256L75.6436 23.2241L72.2969 25.7378L0 80.0337L0.241211 58.6001L53.8125 18.3677L0.700195 17.771L0.890625 0.779785L75.8857 1.62256Z" fill="white"/>
<path d="M154.624 67V58.5536L180.719 26.416L180.925 27.7894L178.728 24.9053L180.238 26.0727H155.517V16.8709H194.041V25.3173L167.878 57.4549L167.603 55.9441L169.938 59.0343L168.29 57.7295H194.041V67H154.624ZM196.27 81.9014V72.5623H204.098C205.289 72.5623 206.296 72.402 207.12 72.0816C207.944 71.8069 208.608 71.3262 209.111 70.6395C209.615 69.9528 210.027 69.0143 210.347 67.824L219.618 29.3688H230.056L219.549 70.0215C218.817 72.9514 217.787 75.2862 216.459 77.0258C215.177 78.7655 213.438 80.0015 211.24 80.734C209.088 81.5123 206.342 81.9014 203 81.9014H196.27ZM208.081 66.176V57.5922H216.047V66.176H208.081ZM203.549 66.176L192.012 29.3688H203.068L213.987 66.176H203.549ZM231.039 80.734V29.3688H239.76V45.6436L238.592 45.575C238.775 41.821 239.554 38.6622 240.927 36.0985C242.3 33.489 244.154 31.5434 246.489 30.2615C248.824 28.9339 251.456 28.2701 254.386 28.2701C256.996 28.2701 259.353 28.7508 261.459 29.7122C263.611 30.6736 265.442 32.0241 266.953 33.7637C268.509 35.4576 269.677 37.4719 270.455 39.8067C271.279 42.0957 271.691 44.6136 271.691 47.3604V48.9398C271.691 51.6408 271.302 54.1816 270.524 56.5622C269.745 58.8969 268.601 60.9341 267.09 62.6738C265.625 64.4134 263.817 65.7868 261.665 66.794C259.559 67.7554 257.133 68.2361 254.386 68.2361C251.548 68.2361 248.984 67.6638 246.695 66.5193C244.452 65.329 242.644 63.5436 241.27 61.1631C239.897 58.7367 239.142 55.6694 239.004 51.9613L242.026 56.0815V80.734H231.039ZM251.296 59.0343C253.173 59.0343 254.798 58.5765 256.172 57.6609C257.591 56.7453 258.69 55.4634 259.468 53.8154C260.246 52.1673 260.635 50.2674 260.635 48.1158C260.635 45.9641 260.246 44.0871 259.468 42.4848C258.69 40.8825 257.614 39.6464 256.24 38.7766C254.867 37.861 253.219 37.4032 251.296 37.4032C249.648 37.4032 248.092 37.7924 246.627 38.5706C245.162 39.3489 243.971 40.4705 243.056 41.9355C242.186 43.3546 241.751 45.0943 241.751 47.1544V49.6952C241.751 51.6637 242.209 53.3576 243.124 54.7767C244.086 56.1501 245.299 57.2031 246.764 57.9356C248.229 58.668 249.74 59.0343 251.296 59.0343ZM274.515 80.734V29.3688H283.236V45.6436L282.069 45.575C282.252 41.821 283.03 38.6622 284.404 36.0985C285.777 33.489 287.631 31.5434 289.966 30.2615C292.301 28.9339 294.933 28.2701 297.863 28.2701C300.472 28.2701 302.83 28.7508 304.936 29.7122C307.088 30.6736 308.919 32.0241 310.43 33.7637C311.986 35.4576 313.154 37.4719 313.932 39.8067C314.756 42.0957 315.168 44.6136 315.168 47.3604V48.9398C315.168 51.6408 314.779 54.1816 314 56.5622C313.222 58.8969 312.078 60.9341 310.567 62.6738C309.102 64.4134 307.294 65.7868 305.142 66.794C303.036 67.7554 300.61 68.2361 297.863 68.2361C295.025 68.2361 292.461 67.6638 290.172 66.5193C287.929 65.329 286.12 63.5436 284.747 61.1631C283.374 58.7367 282.618 55.6694 282.481 51.9613L285.502 56.0815V80.734H274.515ZM294.773 59.0343C296.65 59.0343 298.275 58.5765 299.648 57.6609C301.068 56.7453 302.166 55.4634 302.945 53.8154C303.723 52.1673 304.112 50.2674 304.112 48.1158C304.112 45.9641 303.723 44.0871 302.945 42.4848C302.166 40.8825 301.09 39.6464 299.717 38.7766C298.344 37.861 296.696 37.4032 294.773 37.4032C293.125 37.4032 291.568 37.7924 290.103 38.5706C288.638 39.3489 287.448 40.4705 286.532 41.9355C285.663 43.3546 285.228 45.0943 285.228 47.1544V49.6952C285.228 51.6637 285.686 53.3576 286.601 54.7767C287.562 56.1501 288.776 57.2031 290.241 57.9356C291.706 58.668 293.216 59.0343 294.773 59.0343Z" fill="white"/>
</svg>
