<svg width="200" height="200" viewBox="0 0 200 200" fill="none" xmlns="http://www.w3.org/2000/svg">
<path d="M112.5 159.375C112.5 161.847 111.767 164.264 110.394 166.319C109.02 168.375 107.068 169.977 104.784 170.923C102.5 171.869 99.9866 172.117 97.5618 171.634C95.1371 171.152 92.9098 169.962 91.1616 168.213C89.4135 166.465 88.2229 164.238 87.7406 161.813C87.2583 159.389 87.5059 156.875 88.452 154.591C89.398 152.307 91.0002 150.355 93.0558 148.981C95.1114 147.608 97.5282 146.875 100 146.875C103.316 146.875 106.495 148.192 108.839 150.536C111.183 152.88 112.5 156.059 112.5 159.375ZM169.532 62.4997L181.657 50.3825C183.418 48.6213 184.407 46.2326 184.407 43.7418C184.407 41.2511 183.418 38.8624 181.657 37.1012C179.895 35.34 177.507 34.3506 175.016 34.3506C172.525 34.3506 170.137 35.34 168.375 37.1012L156.25 49.2184L144.133 37.1168C142.372 35.3556 139.983 34.3662 137.493 34.3662C135.002 34.3662 132.613 35.3556 130.852 37.1168C129.091 38.878 128.101 41.2668 128.101 43.7575C128.101 46.2482 129.091 48.6369 130.852 50.3981L142.969 62.4997L130.868 74.6168C129.106 76.3781 128.117 78.7668 128.117 81.2575C128.117 83.7482 129.106 86.1369 130.868 87.8981C132.629 89.6593 135.018 90.6487 137.508 90.6487C139.999 90.6487 142.388 89.6593 144.149 87.8981L156.25 75.7809L168.368 87.9059C169.24 88.778 170.275 89.4697 171.414 89.9417C172.554 90.4136 173.775 90.6565 175.008 90.6565C176.242 90.6565 177.463 90.4136 178.602 89.9417C179.742 89.4697 180.777 88.778 181.649 87.9059C182.521 87.0338 183.213 85.9986 183.685 84.8592C184.157 83.7198 184.4 82.4986 184.4 81.2653C184.4 80.032 184.157 78.8108 183.685 77.6714C183.213 76.532 182.521 75.4967 181.649 74.6247L169.532 62.4997ZM136.797 121.328C126.113 113.555 113.24 109.367 100.028 109.367C86.8152 109.367 73.9424 113.555 63.2583 121.328C61.2484 122.792 59.9024 124.994 59.5163 127.45C59.1303 129.907 59.7358 132.416 61.1997 134.425C62.6635 136.435 64.8659 137.781 67.3221 138.167C69.7784 138.553 72.2875 137.948 74.2973 136.484C81.7747 131.047 90.7824 128.118 100.028 128.118C109.273 128.118 118.281 131.047 125.758 136.484C127.768 137.948 130.277 138.553 132.733 138.167C135.19 137.781 137.392 136.435 138.856 134.425C140.32 132.416 140.925 129.907 140.539 127.45C140.153 124.994 138.807 122.792 136.797 121.328ZM109.375 43.7497C109.375 41.2633 108.388 38.8787 106.63 37.1205C104.871 35.3624 102.487 34.3747 100 34.3747C68.2076 34.391 37.3997 45.4075 12.8051 65.5544C11.8536 66.3356 11.0652 67.2966 10.485 68.3826C9.90488 69.4685 9.54429 70.6581 9.42386 71.8834C9.30344 73.1087 9.42553 74.3457 9.78317 75.5238C10.1408 76.702 10.727 77.7981 11.5083 78.7497C12.2895 79.7012 13.2506 80.4896 14.3365 81.0698C15.4225 81.6499 16.612 82.0105 17.8373 82.1309C19.0626 82.2514 20.2996 82.1293 21.4778 81.7716C22.6559 81.414 23.752 80.8278 24.7036 80.0465C45.9432 62.6513 72.5466 53.1394 100 53.1247C102.487 53.1247 104.871 52.1369 106.63 50.3788C108.388 48.6206 109.375 46.2361 109.375 43.7497ZM109.375 81.2497C109.375 78.7633 108.388 76.3787 106.63 74.6205C104.871 72.8624 102.487 71.8747 100 71.8747C77.4545 71.7911 55.556 79.4094 37.9301 93.4684C36.0301 95.028 34.8185 97.2715 34.5565 99.7157C34.2945 102.16 35.003 104.609 36.5294 106.536C38.0557 108.463 40.2778 109.713 42.7171 110.018C45.1564 110.322 47.6176 109.656 49.5708 108.164C63.8916 96.7428 81.6833 90.555 100 90.6247C102.487 90.6247 104.871 89.6369 106.63 87.8788C108.388 86.1206 109.375 83.7361 109.375 81.2497Z" fill="#62F43E"/>
</svg>
