<svg width="200" height="200" viewBox="0 0 200 200" fill="none" xmlns="http://www.w3.org/2000/svg">
<path d="M175 91.667H166.083C164.223 77.0001 157.541 63.3676 147.087 52.9135C136.633 42.4595 123 35.7769 108.333 33.917V25.0003C108.333 22.7902 107.455 20.6706 105.892 19.1078C104.33 17.545 102.21 16.667 99.9998 16.667C97.7897 16.667 95.6701 17.545 94.1073 19.1078C92.5445 20.6706 91.6665 22.7902 91.6665 25.0003V33.917C76.9997 35.7769 63.3671 42.4595 52.913 52.9135C42.459 63.3676 35.7764 77.0001 33.9165 91.667H24.9998C22.7897 91.667 20.6701 92.545 19.1073 94.1078C17.5445 95.6706 16.6665 97.7902 16.6665 100C16.6665 102.21 17.5445 104.33 19.1073 105.893C20.6701 107.456 22.7897 108.334 24.9998 108.334H33.9165C35.7764 123.001 42.459 136.633 52.913 147.087C63.3671 157.541 76.9997 164.224 91.6665 166.084V175C91.6665 177.21 92.5445 179.33 94.1073 180.893C95.6701 182.456 97.7897 183.334 99.9998 183.334C102.21 183.334 104.33 182.456 105.892 180.893C107.455 179.33 108.333 177.21 108.333 175V166.084C123 164.224 136.633 157.541 147.087 147.087C157.541 136.633 164.223 123.001 166.083 108.334H175C177.21 108.334 179.33 107.456 180.892 105.893C182.455 104.33 183.333 102.21 183.333 100C183.333 97.7902 182.455 95.6706 180.892 94.1078C179.33 92.545 177.21 91.667 175 91.667ZM141.666 108.334H149.25C147.513 118.554 142.642 127.982 135.312 135.312C127.981 142.643 118.554 147.514 108.333 149.25V141.667C108.333 139.457 107.455 137.337 105.892 135.774C104.33 134.212 102.21 133.334 99.9998 133.334C97.7897 133.334 95.6701 134.212 94.1073 135.774C92.5445 137.337 91.6665 139.457 91.6665 141.667V149.25C81.4461 147.514 72.0183 142.643 64.6878 135.312C57.3573 127.982 52.4866 118.554 50.7498 108.334H58.3332C60.5433 108.334 62.6629 107.456 64.2257 105.893C65.7885 104.33 66.6665 102.21 66.6665 100C66.6665 97.7902 65.7885 95.6706 64.2257 94.1078C62.6629 92.545 60.5433 91.667 58.3332 91.667H50.7498C52.4866 81.4466 57.3573 72.0188 64.6878 64.6883C72.0183 57.3578 81.4461 52.4871 91.6665 50.7503V58.3337C91.6665 60.5438 92.5445 62.6634 94.1073 64.2262C95.6701 65.789 97.7897 66.667 99.9998 66.667C102.21 66.667 104.33 65.789 105.892 64.2262C107.455 62.6634 108.333 60.5438 108.333 58.3337V50.7503C118.554 52.4871 127.981 57.3578 135.312 64.6883C142.642 72.0188 147.513 81.4466 149.25 91.667H141.666C139.456 91.667 137.337 92.545 135.774 94.1078C134.211 95.6706 133.333 97.7902 133.333 100C133.333 102.21 134.211 104.33 135.774 105.893C137.337 107.456 139.456 108.334 141.666 108.334ZM99.9998 91.667C98.3517 91.667 96.7405 92.1557 95.3701 93.0714C93.9997 93.9871 92.9316 95.2886 92.3008 96.8113C91.6701 98.334 91.5051 100.01 91.8266 101.626C92.1482 103.243 92.9418 104.727 94.1073 105.893C95.2727 107.058 96.7576 107.852 98.3741 108.174C99.9906 108.495 101.666 108.33 103.189 107.699C104.712 107.069 106.013 106 106.929 104.63C107.844 103.26 108.333 101.648 108.333 100C108.333 97.7902 107.455 95.6706 105.892 94.1078C104.33 92.545 102.21 91.667 99.9998 91.667Z" fill="#62F43E"/>
</svg>
