<svg width="200" height="200" viewBox="0 0 200 200" fill="none" xmlns="http://www.w3.org/2000/svg">
<path d="M100 121.875C112.081 121.875 121.875 112.081 121.875 100C121.875 87.9188 112.081 78.125 100 78.125C87.9188 78.125 78.125 87.9188 78.125 100C78.125 112.081 87.9188 121.875 100 121.875Z" stroke="#62F43E" stroke-width="18.75" stroke-linecap="round" stroke-linejoin="round"/>
<path d="M84.375 21.875L78.125 40.625L59.375 53.125L34.375 46.875L21.875 71.875L40.625 90.625V109.375L21.875 128.125L34.375 153.125L59.375 146.875L78.125 159.375L84.375 178.125H115.625L121.875 159.375L140.625 146.875L165.625 153.125L178.125 128.125L159.375 109.375V90.625L178.125 71.875L165.625 46.875L140.625 53.125L121.875 40.625L115.625 21.875H84.375Z" stroke="#62F43E" stroke-width="18.75" stroke-linecap="round" stroke-linejoin="round"/>
</svg>
