<svg width="200" height="200" viewBox="0 0 200 200" fill="none" xmlns="http://www.w3.org/2000/svg">
<path d="M105.85 18.2919L164.183 40.1669C167.361 41.358 170.099 43.4906 172.032 46.2798C173.965 49.069 175 52.3817 175 55.7752V100.467C175 114.395 171.122 128.049 163.799 139.897C156.477 151.746 146 161.321 133.542 167.55L105.592 181.525C103.856 182.394 101.941 182.846 100 182.846C98.0589 182.846 96.1444 182.394 94.4083 181.525L66.4583 167.55C54.0003 161.321 43.5231 151.746 36.2006 139.897C28.8781 128.049 24.9997 114.395 25 100.467V55.7752C24.9996 52.3817 26.035 49.069 27.9679 46.2798C29.9009 43.4906 32.6391 41.358 35.8167 40.1669L94.15 18.2919C97.9219 16.878 102.078 16.878 105.85 18.2919ZM100 33.9002L41.6667 55.7752V100.467C41.6686 111.299 44.6866 121.917 50.3826 131.131C56.0786 140.344 64.2276 147.79 73.9167 152.634L100 165.692L126.083 152.65C135.775 147.805 143.926 140.357 149.622 131.14C155.318 121.923 158.335 111.302 158.333 100.467V55.7752L100 33.9002ZM100 66.6669C102.21 66.6669 104.33 67.5448 105.893 69.1076C107.455 70.6704 108.333 72.79 108.333 75.0002V91.6669H125C127.21 91.6669 129.33 92.5448 130.893 94.1076C132.455 95.6704 133.333 97.79 133.333 100C133.333 102.21 132.455 104.33 130.893 105.893C129.33 107.456 127.21 108.334 125 108.334H108.333V125C108.333 127.21 107.455 129.33 105.893 130.893C104.33 132.456 102.21 133.334 100 133.334C97.7899 133.334 95.6702 132.456 94.1074 130.893C92.5446 129.33 91.6667 127.21 91.6667 125V108.334H75C72.7899 108.334 70.6702 107.456 69.1074 105.893C67.5446 104.33 66.6667 102.21 66.6667 100C66.6667 97.79 67.5446 95.6704 69.1074 94.1076C70.6702 92.5448 72.7899 91.6669 75 91.6669H91.6667V75.0002C91.6667 72.79 92.5446 70.6704 94.1074 69.1076C95.6702 67.5448 97.7899 66.6669 100 66.6669Z" fill="#62F43E"/>
</svg>
